<svg width="57" height="93" viewBox="0 0 57 93" fill="none" xmlns="http://www.w3.org/2000/svg">
<path d="M18.2012 46.4165C18.2012 46.4165 15.5495 44.7832 14.2404 43.9925C10.4636 41.7103 6.67489 39.444 2.90596 37.1458C1.00963 35.9897 -0.0443308 33.1444 0.105952 31.0499C0.335331 27.8312 2.30483 26.2278 4.82602 24.8481C10.1136 21.9509 15.3438 18.9498 20.6037 16.0047C23.8803 14.1697 27.1766 12.3687 30.4532 10.5297C34.934 8.01388 39.4049 5.47607 43.8817 2.95223C44.7142 2.48301 45.5427 1.99781 46.4029 1.58649C50.6781 -0.454146 55.5207 1.70629 56.0052 6.90771C56.2445 9.47946 55.1628 11.6958 52.8433 13.0176C48.3784 15.5634 43.8639 18.0234 39.3812 20.5412C33.7218 23.72 28.0783 26.9227 22.4249 30.1114C21.5094 30.6286 20.578 31.1218 19.4707 31.7268C20.4337 32.3497 21.2622 32.9168 22.1184 33.4359C31.5902 39.1605 41.062 44.8831 50.5416 50.5896C52.4656 51.7477 54.269 52.9577 54.9354 55.3218C55.6592 57.8836 54.8049 60.7389 52.7207 62.3822C50.6563 64.0115 47.6428 64.1912 45.3964 62.8374C40.8543 60.0999 31.7543 54.6549 31.7543 54.6549L18.2012 46.4165Z" fill="url(#paint0_linear)"/>
<path d="M19.4152 60.9725C21.3708 62.1605 23.1604 63.2467 24.9499 64.335C29.846 67.314 34.7756 70.2392 39.6282 73.2922C42.6734 75.207 43.1084 80.091 40.7197 82.7865C38.3864 85.4202 34.7895 85.8075 31.2321 83.5572C25.4126 79.8793 19.4824 76.3831 13.5976 72.809C10.0502 70.6545 6.44537 68.5919 2.97502 66.3197C-0.651535 63.9456 -0.873004 58.9299 1.92898 55.9927C2.72587 55.1561 3.85101 54.609 4.87926 54.026C8.76289 51.8276 16.1544 47.7024 17.6375 46.8757C17.8154 46.7759 17.9776 46.6501 18.118 46.5004C18.1457 46.4724 18.1734 46.4405 18.203 46.4085C16.8505 45.5799 32.9347 55.3538 31.7542 54.6469C31.505 54.4992 31.0502 54.4353 30.8169 54.5651C27.0736 56.6396 23.3502 58.7522 19.4152 60.9725Z" fill="url(#paint1_linear)"/>
<path d="M54.8623 86.3227C55.0699 90.2662 51.8546 92.9757 48.3863 92.9837C44.9831 92.9916 41.7204 90.2801 41.8608 85.9073C41.9597 82.8065 44.9495 79.5618 48.6433 79.6856C51.8665 79.7914 55.2538 82.9183 54.8623 86.3227Z" fill="url(#paint2_linear)"/>
<path d="M1.05483 35.2487L0.950025 35.067C-1.00563 31.6487 0.155109 27.2759 3.54042 25.3011L45.2973 0.959298C48.6826 -1.01544 53.0131 0.156623 54.9688 3.57498L55.0736 3.75668C57.0292 7.17504 55.8685 11.5478 52.4832 13.5226L10.7243 37.8664C7.33902 39.8391 3.0085 38.6691 1.05483 35.2487Z" fill="url(#paint3_linear)"/>
<defs>
<linearGradient id="paint0_linear" x1="74.091" y1="2.27697" x2="12.0167" y2="57.4347" gradientUnits="userSpaceOnUse">
<stop offset="1.08687e-06" stop-color="#8AFF25"/>
<stop offset="0.0874" stop-color="#82FE28"/>
<stop offset="0.2219" stop-color="#6DFC2F"/>
<stop offset="0.3868" stop-color="#49F93A"/>
<stop offset="0.574" stop-color="#19F44A"/>
<stop offset="0.6604" stop-color="#00F252"/>
<stop offset="0.7435" stop-color="#00F76F"/>
<stop offset="0.8475" stop-color="#00FB8D"/>
<stop offset="0.9366" stop-color="#00FE9F"/>
<stop offset="1" stop-color="#00FFA6"/>
</linearGradient>
<linearGradient id="paint1_linear" x1="3.24093" y1="82.7556" x2="49.4326" y2="49.3977" gradientUnits="userSpaceOnUse">
<stop offset="0.4197" stop-color="#FFFB55"/>
<stop offset="0.5361" stop-color="#FFE368"/>
<stop offset="0.7802" stop-color="#FFA699"/>
<stop offset="1" stop-color="#FF6AC9"/>
</linearGradient>
<linearGradient id="paint2_linear" x1="42.7316" y1="89.6821" x2="54.1605" y2="83.1474" gradientUnits="userSpaceOnUse">
<stop stop-color="#FF6AC9"/>
<stop offset="0.2435" stop-color="#FF67CA"/>
<stop offset="0.4521" stop-color="#FF5CCC"/>
<stop offset="0.6478" stop-color="#FE4AD0"/>
<stop offset="0.8345" stop-color="#FD32D5"/>
<stop offset="1" stop-color="#FC15DB"/>
</linearGradient>
<linearGradient id="paint3_linear" x1="1.04671" y1="35.2317" x2="60.9156" y2="0.839031" gradientUnits="userSpaceOnUse">
<stop stop-color="#2994FF"/>
<stop offset="0.0285" stop-color="#2798FF"/>
<stop offset="0.3294" stop-color="#16C2FF"/>
<stop offset="0.6021" stop-color="#0AE0FF"/>
<stop offset="0.8347" stop-color="#03F2FF"/>
<stop offset="1" stop-color="#00F9FF"/>
</linearGradient>
</defs>
</svg>
