<svg width="32" height="53" viewBox="0 0 32 53" fill="none" xmlns="http://www.w3.org/2000/svg">
<path d="M10.3747 26.4579C10.3747 26.4579 8.8632 25.5269 8.11706 25.0762C5.96428 23.7754 3.80475 22.4836 1.65648 21.1737C0.575585 20.5147 -0.0251626 18.8929 0.0604975 17.699C0.191242 15.8644 1.31384 14.9505 2.7509 14.1641C5.76479 12.5127 8.74598 10.8021 11.7441 9.12338C13.6117 8.07746 15.4906 7.05089 17.3582 6.00269C19.9122 4.56867 22.4606 3.12214 25.0124 1.68357C25.4869 1.41611 25.9592 1.13955 26.4495 0.9051C28.8863 -0.258047 31.6465 0.973387 31.9227 3.93816C32.0591 5.40404 31.4425 6.66734 30.1204 7.42077C27.5754 8.87186 25.0022 10.274 22.4471 11.7092C19.2213 13.521 16.0046 15.3466 12.7822 17.1641C12.2603 17.4589 11.7294 17.74 11.0983 18.0848C11.6472 18.4399 12.1194 18.7632 12.6075 19.0591C18.0063 22.322 23.4051 25.5838 28.8085 28.8366C29.9052 29.4967 30.9331 30.1864 31.3129 31.5339C31.7254 32.9941 31.2385 34.6216 30.0506 35.5582C28.8739 36.4869 27.1561 36.5894 25.8758 35.8177C23.2868 34.2574 18.0998 31.1537 18.0998 31.1537L10.3747 26.4579Z" fill="url(#paint0_linear)"/>
<path d="M11.0665 34.7539C12.1813 35.4311 13.2013 36.0502 14.2213 36.6705C17.012 38.3686 19.8219 40.0359 22.5878 41.776C24.3236 42.8675 24.5715 45.6513 23.21 47.1878C21.88 48.6889 19.8298 48.9097 17.8021 47.6271C14.4851 45.5307 11.1049 43.5378 7.75059 41.5006C5.72857 40.2726 3.67385 39.0969 1.69578 37.8018C-0.371336 36.4486 -0.497572 33.5896 1.09954 31.9155C1.55376 31.4386 2.19509 31.1268 2.78118 30.7944C4.99482 29.5414 9.20794 27.19 10.0533 26.7189C10.1547 26.662 10.2471 26.5903 10.3272 26.5049C10.3429 26.489 10.3587 26.4708 10.3756 26.4526C9.60468 25.9802 18.7726 31.5513 18.0997 31.1484C17.9577 31.0642 17.6984 31.0277 17.5654 31.1017C15.4318 32.2842 13.3095 33.4883 11.0665 34.7539Z" fill="url(#paint1_linear)"/>
<path d="M31.2711 49.2033C31.3894 51.451 29.5567 52.9954 27.5798 53C25.64 53.0045 23.7803 51.459 23.8603 48.9665C23.9167 47.1991 25.6209 45.3496 27.7263 45.4202C29.5635 45.4805 31.4942 47.2628 31.2711 49.2033Z" fill="url(#paint2_linear)"/>
<path d="M0.601244 20.0915L0.541508 19.988C-0.573201 18.0395 0.0884108 15.5471 2.01802 14.4215L25.8191 0.546793C27.7487 -0.578796 30.2171 0.0892738 31.3318 2.03772L31.3915 2.14128C32.5063 4.08972 31.8446 6.58218 29.915 7.70777L6.1128 21.5836C4.18319 22.708 1.71483 22.0411 0.601244 20.0915Z" fill="url(#paint3_linear)"/>
<defs>
<linearGradient id="paint0_linear" x1="42.2315" y1="1.29867" x2="6.84956" y2="32.7382" gradientUnits="userSpaceOnUse">
<stop offset="1.08687e-06" stop-color="#8AFF25"/>
<stop offset="0.0874" stop-color="#82FE28"/>
<stop offset="0.2219" stop-color="#6DFC2F"/>
<stop offset="0.3868" stop-color="#49F93A"/>
<stop offset="0.574" stop-color="#19F44A"/>
<stop offset="0.6604" stop-color="#00F252"/>
<stop offset="0.7435" stop-color="#00F76F"/>
<stop offset="0.8475" stop-color="#00FB8D"/>
<stop offset="0.9366" stop-color="#00FE9F"/>
<stop offset="1" stop-color="#00FFA6"/>
</linearGradient>
<linearGradient id="paint1_linear" x1="1.84734" y1="47.1702" x2="28.1763" y2="28.1564" gradientUnits="userSpaceOnUse">
<stop stop-color="#B7FF6A"/>
<stop offset="0.4197" stop-color="#FFFB55"/>
<stop offset="0.5361" stop-color="#FFE368"/>
<stop offset="0.7802" stop-color="#FFA699"/>
<stop offset="1" stop-color="#FF6AC9"/>
</linearGradient>
<linearGradient id="paint2_linear" x1="24.3567" y1="51.1181" x2="30.8711" y2="47.3934" gradientUnits="userSpaceOnUse">
<stop stop-color="#FF6AC9"/>
<stop offset="0.2435" stop-color="#FF67CA"/>
<stop offset="0.4521" stop-color="#FF5CCC"/>
<stop offset="0.6478" stop-color="#FE4AD0"/>
<stop offset="0.8345" stop-color="#FD32D5"/>
<stop offset="1" stop-color="#FC15DB"/>
</linearGradient>
<linearGradient id="paint3_linear" x1="0.596615" y1="20.0818" x2="34.7215" y2="0.478244" gradientUnits="userSpaceOnUse">
<stop stop-color="#2994FF"/>
<stop offset="0.0285" stop-color="#2798FF"/>
<stop offset="0.3294" stop-color="#16C2FF"/>
<stop offset="0.6021" stop-color="#0AE0FF"/>
<stop offset="0.8347" stop-color="#03F2FF"/>
<stop offset="1" stop-color="#00F9FF"/>
</linearGradient>
</defs>
</svg>
