<?xml version="1.0" encoding="utf-8"?>
<!-- Generator: Adobe Illustrator 24.1.0, SVG Export Plug-In . SVG Version: 6.00 Build 0)  -->
<svg version="1.1" id="BACKGROUND" xmlns="http://www.w3.org/2000/svg" xmlns:xlink="http://www.w3.org/1999/xlink" x="0px" y="0px"
	 viewBox="0 0 3072 3072" style="enable-background:new 0 0 3072 3072;" xml:space="preserve">
<style type="text/css">
	.st0{clip-path:url(#SVGID_2_);}
	.st1{fill:url(#SVGID_3_);}
	.st2{clip-path:url(#SVGID_5_);}
	.st3{fill:url(#SVGID_6_);}
	.st4{fill:url(#SVGID_7_);}
	.st5{fill:url(#SVGID_8_);}
	.st6{fill:url(#SVGID_9_);}
	.st7{fill:url(#SVGID_10_);}
	.st8{fill:url(#SVGID_11_);}
	.st9{fill:url(#SVGID_12_);}
	.st10{opacity:0.22;fill:url(#SVGID_13_);}
	.st11{fill:url(#SVGID_14_);}
	.st12{fill:#FFFFFF;}
	.st13{fill:url(#SVGID_15_);}
	.st14{fill:url(#SVGID_16_);}
	.st15{fill:url(#SVGID_17_);}
	.st16{fill:url(#SVGID_18_);}
	.st17{fill:url(#SVGID_19_);}
	.st18{fill:url(#SVGID_20_);}
	.st19{fill:url(#SVGID_21_);}
	.st20{fill:url(#SVGID_22_);}
	.st21{fill:url(#SVGID_23_);}
	.st22{fill:url(#SVGID_24_);}
	.st23{fill:url(#SVGID_25_);}
	.st24{fill:url(#SVGID_26_);}
	.st25{fill:url(#SVGID_27_);}
	.st26{fill:url(#SVGID_28_);}
	.st27{fill:url(#SVGID_29_);}
	.st28{opacity:0.36;}
	.st29{fill:url(#SVGID_30_);}
	.st30{fill:url(#SVGID_31_);}
	.st31{fill:url(#SVGID_32_);}
	.st32{fill:url(#SVGID_33_);}
	.st33{fill:url(#SVGID_34_);}
	.st34{fill:url(#SVGID_35_);}
	.st35{fill:url(#SVGID_36_);}
	.st36{fill:url(#SVGID_37_);}
	.st37{fill:url(#SVGID_38_);}
	.st38{fill:url(#SVGID_39_);}
	.st39{fill:url(#SVGID_40_);}
	.st40{fill:url(#SVGID_41_);}
	.st41{fill:url(#SVGID_42_);}
	.st42{fill:url(#SVGID_43_);}
	.st43{fill:url(#SVGID_44_);}
	.st44{fill:none;stroke:#FFFFFF;stroke-width:5;stroke-miterlimit:10;}
	.st45{fill:none;stroke:#FFFFFF;stroke-miterlimit:10;}
	.st46{opacity:0.14;fill:#000024;}
	.st47{fill:url(#SVGID_45_);}
	.st48{fill:url(#SVGID_46_);}
	.st49{fill:url(#SVGID_47_);}
</style>
<g>
	<g>
		<defs>
			<polyline id="SVGID_1_" points="3072,3072 0,3072 0,0 3072,0 			"/>
		</defs>
		<clipPath id="SVGID_2_">
			<use xlink:href="#SVGID_1_"  style="overflow:visible;"/>
		</clipPath>
		<g class="st0">
			<linearGradient id="SVGID_3_" gradientUnits="userSpaceOnUse" x1="-236.0734" y1="387.9615" x2="3270.9407" y2="2659.9819">
				<stop  offset="0" style="stop-color:#562F88"/>
				<stop  offset="0.3334" style="stop-color:#4A1A7E"/>
				<stop  offset="0.7255" style="stop-color:#3F0775"/>
				<stop  offset="1" style="stop-color:#3B0072"/>
			</linearGradient>
			<polyline class="st1" points="3072,3072 0,3072 0,0 3072,0 			"/>
			<g>
				<defs>
					<polyline id="SVGID_4_" points="3072,3072 0,3072 0,0 3072,0 					"/>
				</defs>
				<clipPath id="SVGID_5_">
					<use xlink:href="#SVGID_4_"  style="overflow:visible;"/>
				</clipPath>
				<g class="st2">
					<g>
						<linearGradient id="SVGID_6_" gradientUnits="userSpaceOnUse" x1="3200.8994" y1="2008.5125" x2="1442.926" y2="2547.3115">
							<stop  offset="0" style="stop-color:#FD38D3"/>
							<stop  offset="0.0132" style="stop-color:#F837D2;stop-opacity:0.9868"/>
							<stop  offset="0.1399" style="stop-color:#C930CC;stop-opacity:0.8601"/>
							<stop  offset="0.2709" style="stop-color:#A12AC7;stop-opacity:0.7291"/>
							<stop  offset="0.4044" style="stop-color:#8025C3;stop-opacity:0.5956"/>
							<stop  offset="0.5412" style="stop-color:#6621C0;stop-opacity:0.4588"/>
							<stop  offset="0.6825" style="stop-color:#541EBE;stop-opacity:0.3175"/>
							<stop  offset="0.8313" style="stop-color:#491DBC;stop-opacity:0.1687"/>
							<stop  offset="1" style="stop-color:#461CBC;stop-opacity:0"/>
						</linearGradient>
						<path class="st3" d="M-453.29,3213.31h3639.98V899.03c-10.92-14.54-21.71-29.25-32.42-43.91l-17.49-27.4
							c-95.04,74.56-191.38,150.49-269.54,260.67c-116.91,164.81-183.53,391.81-266.39,597.89
							c-82.85,206.08-196.8,407.76-353.41,459.95c-134.85,44.94-275.05-30.85-394.84-134.02
							c-119.79-103.17-229.01-234.97-355.48-318.33c-223.13-147.06-483.45-128.87-714.6-12.99
							c-231.15,115.88-437.23,322.45-629.85,546.43c-102.51,119.2-202.12,244.02-298.57,374.12
							C-273.17,2773.13-401.47,2976.79-453.29,3213.31"/>
					</g>
					<g>
						<linearGradient id="SVGID_7_" gradientUnits="userSpaceOnUse" x1="3741.8518" y1="1665.507" x2="-493.4026" y2="-235.032">
							<stop  offset="3.409785e-07" style="stop-color:#FE5BCC"/>
							<stop  offset="0.0715" style="stop-color:#FE69C2;stop-opacity:0.9857"/>
							<stop  offset="0.3845" style="stop-color:#FE9F9A;stop-opacity:0.9231"/>
							<stop  offset="0.6547" style="stop-color:#FFC77D;stop-opacity:0.8691"/>
							<stop  offset="0.8688" style="stop-color:#FFDF6B;stop-opacity:0.8262"/>
							<stop  offset="1" style="stop-color:#FFE864;stop-opacity:0.8"/>
						</linearGradient>
						<path class="st4" d="M-131.07-227.33v1725.98C-15.9,1334.18,50.35,1109.2,132.54,904.77
							c82.85-206.08,196.8-407.76,353.41-459.95C620.81,399.88,761,475.67,880.8,578.84c119.79,103.17,229.01,234.97,355.48,318.33
							c223.13,147.06,483.45,128.87,714.6,12.99c231.15-115.88,437.23-322.45,629.85-546.44
							c102.51-119.2,202.12-244.02,298.57-374.12c49.94-67.36,100.01-139.67,145.59-216.93H-131.07z"/>
					</g>
					<g>
						<linearGradient id="SVGID_8_" gradientUnits="userSpaceOnUse" x1="1633.3861" y1="2659.2205" x2="3683.2744" y2="2823.6267">
							<stop  offset="1.971282e-07" style="stop-color:#269BFF;stop-opacity:0.3"/>
							<stop  offset="0.1475" style="stop-color:#1DB2FF;stop-opacity:0.3569"/>
							<stop  offset="0.4177" style="stop-color:#0ED6FF;stop-opacity:0.461"/>
							<stop  offset="0.6377" style="stop-color:#05ECFF;stop-opacity:0.5457"/>
							<stop  offset="0.7785" style="stop-color:#02F4FF;stop-opacity:0.6"/>
						</linearGradient>
						<path class="st5" d="M3252.22,2139.72c-20.2,54.09-40.34,108.21-61.55,160.96c-82.85,206.08-196.8,407.76-353.41,459.95
							c-134.85,44.94-275.05-30.85-394.84-134.02c-119.79-103.17-229.01-234.97-355.48-318.33
							c-223.13-147.06-483.45-128.87-714.6-12.99c-231.15,115.88-437.23,322.45-629.85,546.43
							c-101.84,118.43-200.81,242.41-296.67,371.59h2806.39V2139.72z"/>
					</g>
					<g>
						
							<linearGradient id="SVGID_9_" gradientUnits="userSpaceOnUse" x1="1564.7821" y1="2337.1221" x2="653.2396" y2="258.8061" gradientTransform="matrix(0 1 1 0 -1005.6173 -1030.3827)">
							<stop  offset="0" style="stop-color:#F7FB57"/>
							<stop  offset="0.1341" style="stop-color:#F8FB69;stop-opacity:0.8528"/>
							<stop  offset="0.4036" style="stop-color:#FAFD98;stop-opacity:0.5568"/>
							<stop  offset="0.7803" style="stop-color:#FEFEE3;stop-opacity:0.1431"/>
							<stop  offset="0.9106" style="stop-color:#FFFFFF;stop-opacity:0"/>
						</linearGradient>
						<path class="st6" d="M-73.73-92.16v597.44c67.79-24.78,131.9-74.95,183.93-144.81c39.96-53.65,73.84-118.34,118.92-161.92
							c103.63-100.2,240.18-66.85,357.35-9.27c117.17,57.59,235.61,136.97,358.23,117.68c141.3-22.23,261.8-195.23,297.09-399.13
							H-73.73z"/>
					</g>
					<g>
						<linearGradient id="SVGID_10_" gradientUnits="userSpaceOnUse" x1="1665.1521" y1="953.6293" x2="4254.0312" y2="224.7239">
							<stop  offset="5.487623e-07" style="stop-color:#FFE964;stop-opacity:0.5"/>
							<stop  offset="0.0524" style="stop-color:#FEDC6C;stop-opacity:0.5353"/>
							<stop  offset="0.1503" style="stop-color:#FDB882;stop-opacity:0.6013"/>
							<stop  offset="0.2821" style="stop-color:#FB7FA6;stop-opacity:0.6901"/>
							<stop  offset="0.4073" style="stop-color:#F843CB;stop-opacity:0.7745"/>
							<stop  offset="0.8838" style="stop-color:#F837D2;stop-opacity:0.8417"/>
						</linearGradient>
						<path class="st7" d="M3145.73-116.74H1510.92c-29.97,133.79-31.06,282.49,0.26,415.76
							c47.77,203.32,169.3,363.72,309.83,408.92c177.8,57.19,366.44-60.34,542.83,5.98c124.38,46.76,227.66,181.65,300.31,340.16
							c49.72,108.49,87.6,229.79,145.94,328.15c86.29,145.5,207.16,224.95,335.65,268.32V-116.74z"/>
					</g>
					<g>
						<linearGradient id="SVGID_11_" gradientUnits="userSpaceOnUse" x1="-65.536" y1="1853.4646" x2="2342.658" y2="1853.4646">
							<stop  offset="8.151518e-07" style="stop-color:#E3FD5D;stop-opacity:0.4"/>
							<stop  offset="0.033" style="stop-color:#A1FA59;stop-opacity:0.4266"/>
							<stop  offset="0.0774" style="stop-color:#4EF654;stop-opacity:0.4623"/>
							<stop  offset="0.1089" style="stop-color:#1AF451;stop-opacity:0.4877"/>
							<stop  offset="0.1242" style="stop-color:#06F350;stop-opacity:0.5"/>
							<stop  offset="0.1925" style="stop-color:#07F056;stop-opacity:0.5"/>
							<stop  offset="0.2817" style="stop-color:#0AE866;stop-opacity:0.5"/>
							<stop  offset="0.3826" style="stop-color:#0FDA81;stop-opacity:0.5"/>
							<stop  offset="0.4919" style="stop-color:#16C7A7;stop-opacity:0.5"/>
							<stop  offset="0.6067" style="stop-color:#1FAFD7;stop-opacity:0.5"/>
							<stop  offset="0.6922" style="stop-color:#269BFF;stop-opacity:0.5"/>
						</linearGradient>
						<path class="st8" d="M2342.66,3151.87c-98.85-192.3-253.06-323.06-415.64-323.73c-70.1-0.29-140.08,20.37-209.96,12.21
							c-96.79-11.31-190.06-80.24-255.02-188.46c0,0-44.82-126.71-159.51-421.62s-335.87-491.52-557.06-417.79
							s-302.53-12.56-302.53-12.56c-76.54-67.3-140.32-184.09-141.82-317.15c-1.44-128.16,53.26-242.54,67.55-368.91
							c23.5-207.77-72.56-418.36-201-503.76c-73.04-48.56-153.35-62.39-233.21-51.58v2593.36H2342.66z"/>
					</g>
					<g>
						<linearGradient id="SVGID_12_" gradientUnits="userSpaceOnUse" x1="-51.0112" y1="2870.3201" x2="1114.7784" y2="2112.6868">
							<stop  offset="0" style="stop-color:#07F350;stop-opacity:0.7"/>
							<stop  offset="0.0137" style="stop-color:#15F451;stop-opacity:0.6931"/>
							<stop  offset="0.0583" style="stop-color:#3EF654;stop-opacity:0.6705"/>
							<stop  offset="0.1082" style="stop-color:#64F757;stop-opacity:0.6452"/>
							<stop  offset="0.1627" style="stop-color:#84F959;stop-opacity:0.6177"/>
							<stop  offset="0.2228" style="stop-color:#A0FA5B;stop-opacity:0.5872"/>
							<stop  offset="0.2908" style="stop-color:#B6FB5C;stop-opacity:0.5528"/>
							<stop  offset="0.3701" style="stop-color:#C7FC5E;stop-opacity:0.5127"/>
							<stop  offset="0.4682" style="stop-color:#D2FD5E;stop-opacity:0.463"/>
							<stop  offset="0.6058" style="stop-color:#D9FD5F;stop-opacity:0.3934"/>
							<stop  offset="0.9878" style="stop-color:#DBFD5F;stop-opacity:0.2"/>
						</linearGradient>
						<path class="st9" d="M-152.34,3268.61V1663.56c135.7,55.72,259.14,178.45,344.95,345.89
							c115.28,224.94,163.99,522.82,302.64,715.81c94.98,132.21,221.59,199.42,346.19,252.78
							c124.6,53.36,253.07,97.49,365.13,195.08c31.01,27,60.74,59.11,87.77,95.5H-152.34z"/>
					</g>
				</g>
			</g>
			<g>
				
					<radialGradient id="SVGID_13_" cx="1251.5146" cy="1493.657" r="7.6755" gradientTransform="matrix(4.096 0 0 6.144 -4772.0679 -7901.1841)" gradientUnits="userSpaceOnUse">
					<stop  offset="0.6979" style="stop-color:#000024"/>
					<stop  offset="0.7798" style="stop-color:#020226;stop-opacity:0.729"/>
					<stop  offset="0.8213" style="stop-color:#0A0A2D;stop-opacity:0.5914"/>
					<stop  offset="0.8539" style="stop-color:#171738;stop-opacity:0.4838"/>
					<stop  offset="0.8817" style="stop-color:#2A2A48;stop-opacity:0.3917"/>
					<stop  offset="0.9065" style="stop-color:#43435D;stop-opacity:0.3095"/>
					<stop  offset="0.9292" style="stop-color:#616177;stop-opacity:0.2345"/>
					<stop  offset="0.9502" style="stop-color:#858596;stop-opacity:0.1647"/>
					<stop  offset="0.97" style="stop-color:#AFAFBA;stop-opacity:0.0992"/>
					<stop  offset="0.9881" style="stop-color:#DCDCE1;stop-opacity:0.0394"/>
					<stop  offset="1" style="stop-color:#FFFFFF;stop-opacity:0"/>
				</radialGradient>
				<ellipse class="st10" cx="354.14" cy="1275.84" rx="37.24" ry="55.85"/>
				<linearGradient id="SVGID_14_" gradientUnits="userSpaceOnUse" x1="306.0494" y1="1241.6584" x2="370.6511" y2="1241.6584">
					<stop  offset="0" style="stop-color:#68BFC6"/>
					<stop  offset="1" style="stop-color:#FFFFFF;stop-opacity:0"/>
				</linearGradient>
				<ellipse class="st11" cx="338.35" cy="1241.66" rx="32.3" ry="48.45"/>
			</g>
			<g>
				<g>
					<polygon class="st12" points="254.92,312.68 277.8,347 300.68,312.68 277.8,278.36 					"/>
					<polygon class="st12" points="384.34,312.68 407.22,347 430.1,312.68 407.22,278.36 					"/>
					<polygon class="st12" points="513.77,312.68 536.64,347 559.52,312.68 536.64,278.36 					"/>
				</g>
			</g>
			<g>
				<g>
					<polygon class="st12" points="2720.23,2799.08 2735.06,2821.33 2749.88,2799.08 2735.06,2776.84 					"/>
					<polygon class="st12" points="2804.11,2799.08 2818.93,2821.33 2833.76,2799.08 2818.93,2776.84 					"/>
					<polygon class="st12" points="2887.98,2799.08 2902.81,2821.33 2917.64,2799.08 2902.81,2776.84 					"/>
				</g>
			</g>
			<g>
				<g>
					<polygon class="st12" points="2838.83,597.18 2861.71,562.86 2838.83,528.54 2815.95,562.86 					"/>
					<polygon class="st12" points="2838.83,403.04 2861.71,368.72 2838.83,334.41 2815.95,368.72 					"/>
					<polygon class="st12" points="2838.83,208.91 2861.71,174.59 2838.83,140.27 2815.95,174.59 					"/>
				</g>
			</g>
			<path class="st12" d="M2602.54,2600.3l-23.5-25.99c-3.77-4.17-4.57-12.13-1.79-17.79l0,0c2.78-5.65,8.09-6.86,11.86-2.69
				l13.26,14.66c3.03,3.36,7.18,3.3,10.18-0.13l19.83-22.71c3-3.43,7.14-3.48,10.18-0.13l20.1,22.22c3.03,3.35,7.18,3.3,10.18-0.13
				l19.85-22.72c3-3.43,7.14-3.48,10.18-0.13l20.1,22.22c3.03,3.35,7.18,3.3,10.18-0.13l19.86-22.73c3-3.43,7.14-3.48,10.17-0.13
				l23.53,26c3.77,4.17,4.58,12.13,1.8,17.79v0c-2.78,5.66-8.09,6.86-11.86,2.7l-13.29-14.69c-3.03-3.35-7.18-3.3-10.17,0.13
				l-19.87,22.73c-3,3.43-7.14,3.48-10.18,0.13l-20.1-22.22c-3.03-3.35-7.18-3.3-10.18,0.13l-19.85,22.72
				c-3,3.43-7.14,3.48-10.18,0.13l-20.09-22.22c-3.03-3.36-7.18-3.3-10.18,0.13l-19.83,22.72
				C2609.72,2603.6,2605.58,2603.66,2602.54,2600.3z"/>
			<path class="st12" d="M267.77,846.26l-23.5-25.99c-3.77-4.17-4.57-12.13-1.79-17.79l0,0c2.78-5.65,8.09-6.86,11.86-2.69
				l13.26,14.66c3.03,3.36,7.18,3.3,10.18-0.13l19.83-22.71c3-3.43,7.14-3.48,10.18-0.13l20.1,22.22c3.03,3.35,7.18,3.3,10.18-0.13
				l19.85-22.72c3-3.43,7.14-3.48,10.18-0.13l20.1,22.22c3.03,3.35,7.18,3.3,10.17-0.13l19.86-22.73c3-3.43,7.14-3.48,10.17-0.13
				l23.53,26c3.77,4.17,4.58,12.13,1.8,17.79v0c-2.78,5.66-8.09,6.86-11.86,2.7l-13.29-14.69c-3.03-3.35-7.18-3.3-10.17,0.13
				l-19.87,22.73c-3,3.43-7.14,3.48-10.18,0.13l-20.1-22.22c-3.03-3.35-7.18-3.3-10.18,0.13l-19.85,22.72
				c-3,3.43-7.14,3.48-10.18,0.13l-20.09-22.22c-3.03-3.36-7.18-3.3-10.18,0.13l-19.83,22.72
				C274.95,849.57,270.8,849.62,267.77,846.26z"/>
			<g>
				<linearGradient id="SVGID_15_" gradientUnits="userSpaceOnUse" x1="2211.0376" y1="1790.4528" x2="2522.0505" y2="1790.4528">
					<stop  offset="0" style="stop-color:#7F20CC"/>
					<stop  offset="0.3645" style="stop-color:#641EC4;stop-opacity:0.6355"/>
					<stop  offset="0.7515" style="stop-color:#4E1DBE;stop-opacity:0.2485"/>
					<stop  offset="1" style="stop-color:#461CBC;stop-opacity:0"/>
				</linearGradient>
				<path class="st13" d="M2212.85,1546.3c-0.25,0.85-0.51,1.69-0.75,2.54c-2.06,7.03-1.06,15.25,2.47,20.81l292.01,459.01
					c3.54,5.56,8.96,7.44,13.74,4.68c0.58-0.33,1.15-0.67,1.73-1.01L2212.85,1546.3z"/>
				<linearGradient id="SVGID_16_" gradientUnits="userSpaceOnUse" x1="2226.9973" y1="1757.1691" x2="2552.606" y2="1757.1691">
					<stop  offset="0" style="stop-color:#7F20CC"/>
					<stop  offset="0.3645" style="stop-color:#641EC4;stop-opacity:0.6355"/>
					<stop  offset="0.7515" style="stop-color:#4E1DBE;stop-opacity:0.2485"/>
					<stop  offset="1" style="stop-color:#461CBC;stop-opacity:0"/>
				</linearGradient>
				<path class="st14" d="M2228.98,1501.55l-0.05,0.12c-3.05,7.22-2.43,16.62,1.5,22.8l306.98,482.55
					c3.93,6.18,10.17,7.55,15.11,3.31l0.08-0.07L2228.98,1501.55z"/>
				<linearGradient id="SVGID_17_" gradientUnits="userSpaceOnUse" x1="2242.3347" y1="1726.778" x2="2579.8762" y2="1726.778">
					<stop  offset="0" style="stop-color:#7F20CC"/>
					<stop  offset="0.3645" style="stop-color:#641EC4;stop-opacity:0.6355"/>
					<stop  offset="0.7515" style="stop-color:#4E1DBE;stop-opacity:0.2485"/>
					<stop  offset="1" style="stop-color:#461CBC;stop-opacity:0"/>
				</linearGradient>
				<path class="st15" d="M2248.39,1461.97c-2.06,3.66-4.09,7.35-6.06,11.13l329.84,518.49c2.61-2.76,5.16-5.64,7.7-8.55
					L2248.39,1461.97z"/>
				<linearGradient id="SVGID_18_" gradientUnits="userSpaceOnUse" x1="2192.3367" y1="1856.3934" x2="2448.4983" y2="1856.3934">
					<stop  offset="0" style="stop-color:#7F20CC"/>
					<stop  offset="0.3645" style="stop-color:#641EC4;stop-opacity:0.6355"/>
					<stop  offset="0.7515" style="stop-color:#4E1DBE;stop-opacity:0.2485"/>
					<stop  offset="1" style="stop-color:#461CBC;stop-opacity:0"/>
				</linearGradient>
				<path class="st16" d="M2193.04,1655.36c-0.26,3.51-0.48,7.03-0.67,10.57c-0.29,5.35,1.02,10.64,3.5,14.52l236.05,371.05
					c2.47,3.89,5.93,6.1,9.51,5.92c2.37-0.12,4.72-0.29,7.07-0.51L2193.04,1655.36z"/>
				<linearGradient id="SVGID_19_" gradientUnits="userSpaceOnUse" x1="2204.7849" y1="1922.9503" x2="2343.3994" y2="1922.9503">
					<stop  offset="0" style="stop-color:#7F20CC"/>
					<stop  offset="0.3645" style="stop-color:#641EC4;stop-opacity:0.6355"/>
					<stop  offset="0.7515" style="stop-color:#4E1DBE;stop-opacity:0.2485"/>
					<stop  offset="1" style="stop-color:#461CBC;stop-opacity:0"/>
				</linearGradient>
				<path class="st17" d="M2204.78,1814c2.63,11.37,5.64,22.46,8.99,33.29c0.6,1.95,1.42,3.73,2.41,5.28l102.06,160.44
					c0.99,1.55,2.14,2.86,3.4,3.86c7.05,5.52,14.3,10.56,21.75,15.03L2204.78,1814z"/>
				<linearGradient id="SVGID_20_" gradientUnits="userSpaceOnUse" x1="2199.0498" y1="1823.5984" x2="2487.6899" y2="1823.5984">
					<stop  offset="0" style="stop-color:#7F20CC"/>
					<stop  offset="0.3645" style="stop-color:#641EC4;stop-opacity:0.6355"/>
					<stop  offset="0.7515" style="stop-color:#4E1DBE;stop-opacity:0.2485"/>
					<stop  offset="1" style="stop-color:#461CBC;stop-opacity:0"/>
				</linearGradient>
				<path class="st18" d="M2200.53,1597.03c-0.37,1.99-0.73,3.99-1.09,6c-1.11,6.37,0.15,13.18,3.18,17.94l269.22,423.19
					c3.03,4.76,7.51,6.97,11.8,5.6c1.35-0.43,2.7-0.88,4.05-1.35L2200.53,1597.03z"/>
				<linearGradient id="SVGID_21_" gradientUnits="userSpaceOnUse" x1="2192.2651" y1="1889.5424" x2="2402.5989" y2="1889.5424">
					<stop  offset="0" style="stop-color:#7F20CC"/>
					<stop  offset="0.3645" style="stop-color:#641EC4;stop-opacity:0.6355"/>
					<stop  offset="0.7515" style="stop-color:#4E1DBE;stop-opacity:0.2485"/>
					<stop  offset="1" style="stop-color:#461CBC;stop-opacity:0"/>
				</linearGradient>
				<path class="st19" d="M2192.27,1724.23c0.31,5.82,0.73,11.59,1.24,17.33c0.35,4.01,1.57,7.74,3.44,10.67l187.23,294.32
					c1.86,2.93,4.29,4.93,6.94,5.65c3.8,1.02,7.62,1.93,11.48,2.67L2192.27,1724.23z"/>
				<linearGradient id="SVGID_22_" gradientUnits="userSpaceOnUse" x1="2288.4167" y1="1661.3223" x2="2625.4204" y2="1661.3223">
					<stop  offset="0" style="stop-color:#7F20CC"/>
					<stop  offset="0.3645" style="stop-color:#641EC4;stop-opacity:0.6355"/>
					<stop  offset="0.7515" style="stop-color:#4E1DBE;stop-opacity:0.2485"/>
					<stop  offset="1" style="stop-color:#461CBC;stop-opacity:0"/>
				</linearGradient>
				<path class="st20" d="M2296.2,1396.93c-2.64,2.73-5.23,5.54-7.79,8.41l331.04,520.37c2.04-3.7,4.03-7.45,5.96-11.28
					L2296.2,1396.93z"/>
				<linearGradient id="SVGID_23_" gradientUnits="userSpaceOnUse" x1="2467.8669" y1="1498.4863" x2="2673.4084" y2="1498.4863">
					<stop  offset="0" style="stop-color:#7F20CC"/>
					<stop  offset="0.3645" style="stop-color:#641EC4;stop-opacity:0.6355"/>
					<stop  offset="0.7515" style="stop-color:#4E1DBE;stop-opacity:0.2485"/>
					<stop  offset="1" style="stop-color:#461CBC;stop-opacity:0"/>
				</linearGradient>
				<path class="st21" d="M2486.49,1345.56c-1.82-2.86-4.17-4.85-6.76-5.61c-3.92-1.15-7.88-2.15-11.87-3.01l205.54,323.1
					c-0.39-6.02-0.87-11.99-1.45-17.92c-0.38-3.91-1.6-7.53-3.42-10.38L2486.49,1345.56z"/>
				<linearGradient id="SVGID_24_" gradientUnits="userSpaceOnUse" x1="2528.9441" y1="1465.0774" x2="2659.0134" y2="1465.0774">
					<stop  offset="0" style="stop-color:#7F20CC"/>
					<stop  offset="0.3645" style="stop-color:#641EC4;stop-opacity:0.6355"/>
					<stop  offset="0.7515" style="stop-color:#4E1DBE;stop-opacity:0.2485"/>
					<stop  offset="1" style="stop-color:#461CBC;stop-opacity:0"/>
				</linearGradient>
				<path class="st22" d="M2555.56,1384.04c-0.89-1.4-1.91-2.6-3.02-3.56c-7.61-6.5-15.49-12.37-23.59-17.63l130.07,204.46
					c-3.13-12.39-6.66-24.47-10.64-36.18c-0.58-1.72-1.34-3.3-2.23-4.7L2555.56,1384.04z"/>
				<linearGradient id="SVGID_25_" gradientUnits="userSpaceOnUse" x1="2421.1641" y1="1531.7106" x2="2674.0444" y2="1531.7106">
					<stop  offset="0" style="stop-color:#7F20CC"/>
					<stop  offset="0.3645" style="stop-color:#641EC4;stop-opacity:0.6355"/>
					<stop  offset="0.7515" style="stop-color:#4E1DBE;stop-opacity:0.2485"/>
					<stop  offset="1" style="stop-color:#461CBC;stop-opacity:0"/>
				</linearGradient>
				<path class="st23" d="M2437.84,1339.18c-2.43-3.82-5.8-6.02-9.32-5.92c-2.46,0.07-4.91,0.19-7.35,0.36l252.27,396.55
					c0.23-3.65,0.43-7.32,0.59-11c0.23-5.27-1.08-10.43-3.51-14.25L2437.84,1339.18z"/>
				<linearGradient id="SVGID_26_" gradientUnits="userSpaceOnUse" x1="2346.8171" y1="1597.5735" x2="2656.24" y2="1597.5735">
					<stop  offset="0" style="stop-color:#7F20CC"/>
					<stop  offset="0.3645" style="stop-color:#641EC4;stop-opacity:0.6355"/>
					<stop  offset="0.7515" style="stop-color:#4E1DBE;stop-opacity:0.2485"/>
					<stop  offset="1" style="stop-color:#461CBC;stop-opacity:0"/>
				</linearGradient>
				<path class="st24" d="M2362.32,1360.66c-3.48-5.47-8.82-7.48-13.54-4.83c-0.66,0.37-1.31,0.74-1.96,1.11l307.6,483.53
					c0.28-0.96,0.56-1.93,0.83-2.89c1.99-6.95,0.9-15.04-2.58-20.51L2362.32,1360.66z"/>
				<linearGradient id="SVGID_27_" gradientUnits="userSpaceOnUse" x1="2315.9644" y1="1630.8674" x2="2640.4893" y2="1630.8674">
					<stop  offset="0" style="stop-color:#7F20CC"/>
					<stop  offset="0.3645" style="stop-color:#641EC4;stop-opacity:0.6355"/>
					<stop  offset="0.7515" style="stop-color:#4E1DBE;stop-opacity:0.2485"/>
					<stop  offset="1" style="stop-color:#461CBC;stop-opacity:0"/>
				</linearGradient>
				<path class="st25" d="M2331.18,1381.82c-3.91-6.14-10.08-7.55-15.03-3.43l-0.19,0.16l322.63,507.15l0,0
					c3.04-7.38,2.38-16.92-1.62-23.19L2331.18,1381.82z"/>
				<linearGradient id="SVGID_28_" gradientUnits="userSpaceOnUse" x1="2263.8984" y1="1694.048" x2="2604.1274" y2="1694.048">
					<stop  offset="0" style="stop-color:#7F20CC"/>
					<stop  offset="0.3645" style="stop-color:#641EC4;stop-opacity:0.6355"/>
					<stop  offset="0.7515" style="stop-color:#4E1DBE;stop-opacity:0.2485"/>
					<stop  offset="1" style="stop-color:#461CBC;stop-opacity:0"/>
				</linearGradient>
				<path class="st26" d="M2604.13,1951.06l-333.31-523.94c-2.35,3.2-4.66,6.45-6.92,9.77l333.4,524.08
					C2599.62,1957.74,2601.89,1954.43,2604.13,1951.06z"/>
				<linearGradient id="SVGID_29_" gradientUnits="userSpaceOnUse" x1="2381.5393" y1="1564.4615" x2="2667.8188" y2="1564.4615">
					<stop  offset="0" style="stop-color:#7F20CC"/>
					<stop  offset="0.3645" style="stop-color:#641EC4;stop-opacity:0.6355"/>
					<stop  offset="0.7515" style="stop-color:#4E1DBE;stop-opacity:0.2485"/>
					<stop  offset="1" style="stop-color:#461CBC;stop-opacity:0"/>
				</linearGradient>
				<path class="st27" d="M2397.43,1345.75c-2.99-4.7-7.4-6.92-11.65-5.65c-1.42,0.42-2.83,0.87-4.24,1.33l284.84,447.74
					c0.37-2.09,0.73-4.19,1.08-6.29c1.05-6.31-0.23-13.01-3.22-17.72L2397.43,1345.75z"/>
			</g>
			<g class="st28">
				<linearGradient id="SVGID_30_" gradientUnits="userSpaceOnUse" x1="613.6361" y1="3088.4407" x2="1099.5197" y2="3088.4407">
					<stop  offset="0" style="stop-color:#3470DB"/>
					<stop  offset="1" style="stop-color:#2ACE5B"/>
				</linearGradient>
				<path class="st29" d="M616.47,2707.01c-0.4,1.32-0.79,2.64-1.18,3.97c-3.22,10.99-1.66,23.83,3.86,32.51l456.19,717.1
					c5.52,8.69,14,11.62,21.47,7.31c0.9-0.52,1.8-1.05,2.7-1.58L616.47,2707.01z"/>
				<linearGradient id="SVGID_31_" gradientUnits="userSpaceOnUse" x1="638.5692" y1="3036.4429" x2="1147.2552" y2="3036.4429">
					<stop  offset="0" style="stop-color:#3470DB"/>
					<stop  offset="1" style="stop-color:#2ACE5B"/>
				</linearGradient>
				<path class="st30" d="M641.66,2637.1l-0.08,0.19c-4.77,11.27-3.8,25.97,2.34,35.62l479.58,753.87
					c6.14,9.66,15.88,11.79,23.61,5.18l0.13-0.11L641.66,2637.1z"/>
				<linearGradient id="SVGID_32_" gradientUnits="userSpaceOnUse" x1="662.5305" y1="2988.9641" x2="1189.859" y2="2988.9641">
					<stop  offset="0" style="stop-color:#3470DB"/>
					<stop  offset="1" style="stop-color:#2ACE5B"/>
				</linearGradient>
				<path class="st31" d="M671.99,2575.26c-3.22,5.72-6.4,11.48-9.46,17.39l515.3,810.02c4.08-4.32,8.06-8.81,12.03-13.36
					L671.99,2575.26z"/>
				<linearGradient id="SVGID_33_" gradientUnits="userSpaceOnUse" x1="584.4205" y1="3191.457" x2="984.6121" y2="3191.457">
					<stop  offset="0" style="stop-color:#3470DB"/>
					<stop  offset="1" style="stop-color:#2ACE5B"/>
				</linearGradient>
				<path class="st32" d="M585.53,2877.39c-0.4,5.48-0.75,10.99-1.05,16.52c-0.45,8.36,1.6,16.61,5.46,22.69l368.77,579.68
					c3.86,6.07,9.26,9.52,14.85,9.24c3.7-0.18,7.38-0.45,11.05-0.79L585.53,2877.39z"/>
				<linearGradient id="SVGID_34_" gradientUnits="userSpaceOnUse" x1="603.8676" y1="3295.4368" x2="820.4199" y2="3295.4368">
					<stop  offset="0" style="stop-color:#3470DB"/>
					<stop  offset="1" style="stop-color:#2ACE5B"/>
				</linearGradient>
				<path class="st33" d="M603.87,3125.24c4.1,17.76,8.82,35.09,14.04,52c0.94,3.04,2.22,5.83,3.76,8.25l159.45,250.65
					c1.54,2.43,3.34,4.47,5.32,6.03c11.02,8.62,22.34,16.49,33.97,23.47L603.87,3125.24z"/>
				<linearGradient id="SVGID_35_" gradientUnits="userSpaceOnUse" x1="594.9083" y1="3140.2229" x2="1045.84" y2="3140.2229">
					<stop  offset="0" style="stop-color:#3470DB"/>
					<stop  offset="1" style="stop-color:#2ACE5B"/>
				</linearGradient>
				<path class="st34" d="M597.23,2786.26c-0.58,3.11-1.15,6.24-1.7,9.38c-1.74,9.95,0.24,20.59,4.97,28.03l420.59,661.13
					c4.73,7.44,11.72,10.89,18.43,8.76c2.11-0.67,4.22-1.38,6.32-2.1L597.23,2786.26z"/>
				<linearGradient id="SVGID_36_" gradientUnits="userSpaceOnUse" x1="584.3084" y1="3243.2449" x2="912.9051" y2="3243.2449">
					<stop  offset="0" style="stop-color:#3470DB"/>
					<stop  offset="1" style="stop-color:#2ACE5B"/>
				</linearGradient>
				<path class="st35" d="M584.31,2984.98c0.48,9.1,1.15,18.11,1.94,27.08c0.55,6.27,2.46,12.09,5.37,16.67l292.51,459.81
					c2.91,4.57,6.7,7.7,10.85,8.82c5.93,1.6,11.9,3.02,17.94,4.17L584.31,2984.98z"/>
				<linearGradient id="SVGID_37_" gradientUnits="userSpaceOnUse" x1="734.5226" y1="2886.7048" x2="1261.0106" y2="2886.7048">
					<stop  offset="0" style="stop-color:#3470DB"/>
					<stop  offset="1" style="stop-color:#2ACE5B"/>
				</linearGradient>
				<path class="st36" d="M746.69,2473.66c-4.12,4.26-8.17,8.65-12.17,13.14l517.17,812.96c3.18-5.79,6.29-11.64,9.32-17.62
					L746.69,2473.66z"/>
				<linearGradient id="SVGID_38_" gradientUnits="userSpaceOnUse" x1="1014.8709" y1="2632.3118" x2="1335.981" y2="2632.3118">
					<stop  offset="0" style="stop-color:#3470DB"/>
					<stop  offset="1" style="stop-color:#2ACE5B"/>
				</linearGradient>
				<path class="st37" d="M1043.96,2393.4c-2.84-4.46-6.52-7.57-10.55-8.76c-6.13-1.79-12.31-3.36-18.54-4.71l321.11,504.76
					c-0.61-9.4-1.36-18.73-2.27-28c-0.6-6.11-2.5-11.76-5.34-16.22L1043.96,2393.4z"/>
				<linearGradient id="SVGID_39_" gradientUnits="userSpaceOnUse" x1="1110.2893" y1="2580.1187" x2="1313.4918" y2="2580.1187">
					<stop  offset="0" style="stop-color:#3470DB"/>
					<stop  offset="1" style="stop-color:#2ACE5B"/>
				</linearGradient>
				<path class="st38" d="M1151.87,2453.52c-1.39-2.18-2.98-4.07-4.72-5.56c-11.89-10.16-24.2-19.32-36.86-27.54l203.2,319.42
					c-4.88-19.35-10.41-38.23-16.62-56.52c-0.91-2.69-2.09-5.16-3.48-7.34L1151.87,2453.52z"/>
				<linearGradient id="SVGID_40_" gradientUnits="userSpaceOnUse" x1="941.9089" y1="2684.217" x2="1336.9747" y2="2684.217">
					<stop  offset="0" style="stop-color:#3470DB"/>
					<stop  offset="1" style="stop-color:#2ACE5B"/>
				</linearGradient>
				<path class="st39" d="M967.96,2383.43c-3.79-5.96-9.07-9.4-14.56-9.25c-3.84,0.1-7.67,0.29-11.49,0.57l394.11,619.51
					c0.36-5.71,0.67-11.43,0.92-17.18c0.36-8.23-1.69-16.29-5.48-22.26L967.96,2383.43z"/>
				<linearGradient id="SVGID_41_" gradientUnits="userSpaceOnUse" x1="825.759" y1="2787.1125" x2="1309.1592" y2="2787.1125">
					<stop  offset="0" style="stop-color:#3470DB"/>
					<stop  offset="1" style="stop-color:#2ACE5B"/>
				</linearGradient>
				<path class="st40" d="M849.97,2416.99c-5.43-8.55-13.78-11.69-21.15-7.54c-1.02,0.57-2.04,1.15-3.07,1.74l480.55,755.4
					c0.44-1.5,0.87-3.01,1.3-4.52c3.11-10.85,1.4-23.49-4.03-32.04L849.97,2416.99z"/>
				<linearGradient id="SVGID_42_" gradientUnits="userSpaceOnUse" x1="777.5593" y1="2839.1267" x2="1284.5525" y2="2839.1267">
					<stop  offset="0" style="stop-color:#3470DB"/>
					<stop  offset="1" style="stop-color:#2ACE5B"/>
				</linearGradient>
				<path class="st41" d="M801.33,2450.04c-6.1-9.59-15.75-11.79-23.47-5.36l-0.3,0.25l504.03,792.3l0,0
					c4.75-11.53,3.72-26.43-2.53-36.23L801.33,2450.04z"/>
				<linearGradient id="SVGID_43_" gradientUnits="userSpaceOnUse" x1="696.2185" y1="2937.8313" x2="1227.7457" y2="2937.8313">
					<stop  offset="0" style="stop-color:#3470DB"/>
					<stop  offset="1" style="stop-color:#2ACE5B"/>
				</linearGradient>
				<path class="st42" d="M1227.75,3339.35l-520.71-818.53c-3.67,4.99-7.28,10.07-10.81,15.27l520.85,818.75
					C1220.7,3349.79,1224.25,3344.62,1227.75,3339.35z"/>
				<linearGradient id="SVGID_44_" gradientUnits="userSpaceOnUse" x1="880.0048" y1="2735.3833" x2="1327.2483" y2="2735.3833">
					<stop  offset="0" style="stop-color:#3470DB"/>
					<stop  offset="1" style="stop-color:#2ACE5B"/>
				</linearGradient>
				<path class="st43" d="M904.83,2393.71c-4.67-7.35-11.56-10.82-18.19-8.83c-2.22,0.66-4.42,1.36-6.63,2.07l444.99,699.49
					c0.58-3.27,1.15-6.54,1.69-9.83c1.64-9.85-0.35-20.33-5.03-27.68L904.83,2393.71z"/>
			</g>
			<rect x="2818.05" y="743.42" class="st44" width="36.86" height="927.74"/>
			<rect x="157.83" y="2632.61" class="st44" width="36.86" height="927.74"/>
			<ellipse class="st45" cx="888.21" cy="-7.05" rx="107.51" ry="161.27"/>
			<ellipse class="st44" cx="9.66" cy="1808.41" rx="107.51" ry="161.27"/>
		</g>
	</g>
</g>
<circle class="st46" cx="2094.13" cy="2564.06" r="94.98"/>
<circle class="st46" cx="598.55" cy="2096.53" r="94.98"/>
<linearGradient id="SVGID_45_" gradientUnits="userSpaceOnUse" x1="671.5515" y1="2287.3389" x2="442.0227" y2="1801.0492">
	<stop  offset="6.926126e-08" style="stop-color:#E0BA72"/>
	<stop  offset="0.1182" style="stop-color:#D9BB71"/>
	<stop  offset="0.2881" style="stop-color:#C6BC6F"/>
	<stop  offset="0.4893" style="stop-color:#A7BF6A"/>
	<stop  offset="0.7144" style="stop-color:#7CC265"/>
	<stop  offset="0.9566" style="stop-color:#45C75D"/>
	<stop  offset="1" style="stop-color:#3AC85C"/>
</linearGradient>
<circle class="st47" cx="566.45" cy="2064.66" r="94.98"/>
<circle class="st46" cx="2189.11" cy="384.34" r="94.98"/>
<linearGradient id="SVGID_46_" gradientUnits="userSpaceOnUse" x1="2389.4199" y1="239.5709" x2="1912.5543" y2="464.7852">
	<stop  offset="0.3893" style="stop-color:#F4C378"/>
	<stop  offset="0.4904" style="stop-color:#F5A48C"/>
	<stop  offset="0.6501" style="stop-color:#F779A8"/>
	<stop  offset="0.7939" style="stop-color:#F95ABC"/>
	<stop  offset="0.9154" style="stop-color:#FA47C9"/>
	<stop  offset="1" style="stop-color:#FA40CD"/>
</linearGradient>
<circle class="st48" cx="2160.91" cy="347.49" r="94.98"/>
<linearGradient id="SVGID_47_" gradientUnits="userSpaceOnUse" x1="2183.5864" y1="2773.4929" x2="1954.1868" y2="2287.4768">
	<stop  offset="0" style="stop-color:#3AC85C"/>
	<stop  offset="0.6795" style="stop-color:#34A5B4"/>
	<stop  offset="1" style="stop-color:#3296D8"/>
</linearGradient>
<circle class="st49" cx="2065.94" cy="2524.23" r="94.98"/>
</svg>
