<svg width="47" height="78" viewBox="0 0 47 78" fill="none" xmlns="http://www.w3.org/2000/svg">
<path d="M15.1814 38.7155C15.1814 38.7155 12.9696 37.3532 11.8778 36.6936C8.72756 34.7901 5.56743 32.8998 2.4238 30.9829C0.842091 30.0186 -0.0370048 27.6453 0.0883447 25.8983C0.279668 23.2136 1.92241 21.8763 4.02531 20.7255C8.43563 18.3089 12.7981 15.8058 17.1854 13.3493C19.9183 11.8187 22.6677 10.3165 25.4007 8.78264C29.1381 6.68419 32.8672 4.56743 36.6013 2.46232C37.2957 2.07094 37.9868 1.66624 38.7042 1.32316C42.2701 -0.378911 46.3093 1.42309 46.7134 5.76154C46.913 7.90662 46.0108 9.75525 44.0761 10.8578C40.3519 12.9812 36.5865 15.033 32.8474 17.1331C28.127 19.7845 23.4198 22.4559 18.7044 25.1156C17.9407 25.5469 17.1639 25.9583 16.2403 26.4629C17.0435 26.9825 17.7346 27.4555 18.4487 27.8885C26.3491 32.6633 34.2494 37.4364 42.1563 42.1962C43.7611 43.1622 45.2653 44.1714 45.8211 46.1433C46.4248 48.2801 45.7122 50.6616 43.9738 52.0323C42.2519 53.3913 39.7384 53.5412 37.8647 52.412C34.0762 50.1287 26.4859 45.5871 26.4859 45.5871L15.1814 38.7155Z" fill="url(#paint0_linear)"/>
<path d="M16.1941 50.8566C17.8253 51.8476 19.3179 52.7536 20.8106 53.6612C24.8943 56.1461 29.0061 58.5859 33.0536 61.1324C35.5936 62.7295 35.9564 66.8032 33.964 69.0515C32.0178 71.2482 29.0177 71.5713 26.0505 69.6944C21.1965 66.6266 16.2502 63.7105 11.3418 60.7293C8.38285 58.9323 5.37611 57.2119 2.48153 55.3167C-0.543351 53.3365 -0.728077 49.1529 1.60903 46.703C2.27371 46.0052 3.21218 45.5489 4.06984 45.0626C7.30913 43.2289 13.4743 39.7882 14.7113 39.0987C14.8598 39.0154 14.995 38.9105 15.1121 38.7856C15.1352 38.7623 15.1583 38.7356 15.1831 38.709C14.0549 38.0178 27.4706 46.1701 26.4859 45.5805C26.2781 45.4573 25.8988 45.404 25.7042 45.5123C22.582 47.2426 19.4763 49.0047 16.1941 50.8566Z" fill="url(#paint1_linear)"/>
<path d="M45.7601 72.0009C45.9333 75.2901 43.2514 77.5501 40.3585 77.5567C37.52 77.5634 34.7986 75.3017 34.9157 71.6544C34.9982 69.068 37.492 66.3617 40.5729 66.465C43.2613 66.5532 46.0866 69.1613 45.7601 72.0009Z" fill="url(#paint2_linear)"/>
<path d="M0.879822 29.4006L0.792407 29.2491C-0.838785 26.3979 0.129375 22.7506 2.95304 21.1034L37.782 0.800142C40.6057 -0.846972 44.2177 0.130637 45.8489 2.98186L45.9363 3.13341C47.5675 5.98464 46.5994 9.63194 43.7757 11.2791L8.94507 31.584C6.12141 33.2295 2.50936 32.2535 0.879822 29.4006Z" fill="url(#paint3_linear)"/>
<defs>
<linearGradient id="paint0_linear" x1="61.7986" y1="1.89909" x2="10.023" y2="47.9056" gradientUnits="userSpaceOnUse">
<stop offset="1.08687e-06" stop-color="#8AFF25"/>
<stop offset="0.0874" stop-color="#82FE28"/>
<stop offset="0.2219" stop-color="#6DFC2F"/>
<stop offset="0.3868" stop-color="#49F93A"/>
<stop offset="0.574" stop-color="#19F44A"/>
<stop offset="0.6604" stop-color="#00F252"/>
<stop offset="0.7435" stop-color="#00F76F"/>
<stop offset="0.8475" stop-color="#00FB8D"/>
<stop offset="0.9366" stop-color="#00FE9F"/>
<stop offset="1" stop-color="#00FFA6"/>
</linearGradient>
<linearGradient id="paint1_linear" x1="2.70331" y1="69.0258" x2="41.2314" y2="41.2022" gradientUnits="userSpaceOnUse">
<stop stop-color="#B7FF6A"/>
<stop offset="0.4197" stop-color="#FFFB55"/>
<stop offset="0.5361" stop-color="#FFE368"/>
<stop offset="0.7802" stop-color="#FFA699"/>
<stop offset="1" stop-color="#FF6AC9"/>
</linearGradient>
<linearGradient id="paint2_linear" x1="35.642" y1="74.8029" x2="45.1747" y2="69.3524" gradientUnits="userSpaceOnUse">
<stop stop-color="#FF6AC9"/>
<stop offset="0.2435" stop-color="#FF67CA"/>
<stop offset="0.4521" stop-color="#FF5CCC"/>
<stop offset="0.6478" stop-color="#FE4AD0"/>
<stop offset="0.8345" stop-color="#FD32D5"/>
<stop offset="1" stop-color="#FC15DB"/>
</linearGradient>
<linearGradient id="paint3_linear" x1="0.873048" y1="29.3865" x2="50.8091" y2="0.699834" gradientUnits="userSpaceOnUse">
<stop stop-color="#2994FF"/>
<stop offset="0.0285" stop-color="#2798FF"/>
<stop offset="0.3294" stop-color="#16C2FF"/>
<stop offset="0.6021" stop-color="#0AE0FF"/>
<stop offset="0.8347" stop-color="#03F2FF"/>
<stop offset="1" stop-color="#00F9FF"/>
</linearGradient>
</defs>
</svg>
