<?xml version="1.0" encoding="utf-8"?>
<!-- Generator: Adobe Illustrator 24.1.0, SVG Export Plug-In . SVG Version: 6.00 Build 0)  -->
<svg version="1.1" id="Layer_1" xmlns="http://www.w3.org/2000/svg" xmlns:xlink="http://www.w3.org/1999/xlink" x="0px" y="0px"
	 viewBox="0 0 305.4 306.4" style="enable-background:new 0 0 305.4 306.4;" xml:space="preserve">
<style type="text/css">
	.st0{fill:#2962FF;}
	.st1{clip-path:url(#SVGID_2_);}
	.st2{clip-path:url(#SVGID_4_);}
	.st3{clip-path:url(#SVGID_6_);}
</style>
<g id="Group_396" transform="translate(-1188.823 -1413)">
	<circle id="Ellipse_10" class="st0" cx="1343.7" cy="1566.2" r="152.7"/>
	<g id="Group_102" transform="translate(-1940)">
		<g id="Group_101">
			<g>
				<g>
					<defs>
						<path id="SVGID_1_" d="M3373.1,1470.3c0,4.1-3.3,7.4-7.4,7.4c-4.1,0-7.4-3.3-7.4-7.4c0-4.1,3.3-7.4,7.4-7.4l0,0
							C3369.8,1462.9,3373.1,1466.2,3373.1,1470.3z M3300.2,1573.4c0-11.7-5.5-17.6-16.4-17.6h-7v35.5h5.7
							C3294.3,1591.4,3300.2,1585.5,3300.2,1573.4z M3336,1462.9c-4.1,0-7.4,3.3-7.4,7.4s3.3,7.4,7.4,7.4c4.1,0,7.4-3.3,7.4-7.4
							S3340.1,1462.9,3336,1462.9z M3306.4,1462.9c-4.1,0-7.4,3.3-7.4,7.4s3.3,7.4,7.4,7.4c4.1,0,7.4-3.3,7.4-7.4l0,0
							C3313.9,1466.2,3310.5,1462.9,3306.4,1462.9z M3436.4,1566.2c0,84.3-68.4,152.7-152.7,152.7s-152.7-68.4-152.7-152.7
							c0-84.3,68.4-152.7,152.7-152.7l0,0C3368.1,1413.5,3436.4,1481.9,3436.4,1566.2z M3325.9,1673.3c0-3-2.5-5.5-5.5-5.4
							c-3,0-5.4,2.4-5.4,5.4v-6.5c0-3-2.5-5.5-5.5-5.4c-3,0-5.4,2.4-5.4,5.4v-3.6c0-3-2.4-5.5-5.5-5.5c-3,0-5.5,2.4-5.5,5.5v-21.8
							c6.5-3.6,8.8-11.7,5.2-18.1c-3.6-6.5-11.7-8.8-18.1-5.2c-6.5,3.6-8.8,11.7-5.2,18.1c1.6,2.8,4.1,5.1,7.2,6.1v33.2l-2.4-5.5
							c-1.2-2.7-4.5-3.9-7.2-2.7c-2.7,1.2-3.9,4.4-2.8,7.1l12.1,27.6c0.9,2.2,3.2,3.5,5.6,3.2c0.1,0.3,0.2,0.5,0.2,0.5h32.8
							c3,0,5.5-17.2,5.5-20.2L3325.9,1673.3z M3266.7,1646.1c1.6-1.1,3.2-2.3,4.9-3.3c0.8-0.5,0.1-1.8-0.8-1.2
							c-1.7,1-3.3,2.2-4.9,3.3C3265.2,1645.4,3265.9,1646.6,3266.7,1646.1z M3269.1,1624.2c0.8,0.5,1.6-0.8,0.8-1.2
							c-1.8-0.9-3.3-2.2-4.7-3.6c-0.7-0.7-1.7,0.4-1,1C3265.7,1621.8,3267.3,1623.1,3269.1,1624.2L3269.1,1624.2z M3282.6,1598.2
							c8.5,0,14.8-2.2,19.4-6.4c4.5-4.2,6.8-10.4,6.8-18.5c0-7.6-2.2-13.5-6.5-17.7s-10.3-6.3-18.1-6.3h-15.1v49L3282.6,1598.2
							L3282.6,1598.2z M3313.5,1632.5c0.3,0.9,1.7,0.5,1.4-0.4c-0.3-0.8-0.9-0.9-1.6-1.1c-0.9-0.2-1.9-0.4-2.8-0.6
							c-2-0.3-3.9-0.4-5.8-0.4c-0.4,0-0.8,0.4-0.8,0.8s0.3,0.7,0.8,0.8c1.6,0,3.1,0,4.7,0.2c0.8,0.1,1.5,0.2,2.3,0.4
							c0.4,0.1,0.8,0.2,1.2,0.3C3313,1632.5,3313.2,1632.5,3313.5,1632.5C3313.5,1632.5,3313.6,1632.6,3313.5,1632.5L3313.5,1632.5z
							 M3306,1614.7c0.8-0.7-0.3-1.7-1-1l-5.1,4.4c-0.8,0.7,0.3,1.7,1,1L3306,1614.7z M3302.4,1648.5c-0.9-1.6-2-3.1-3-4.6
							c-0.5-0.7-2.1-3.4-2.9-1.7c-0.2,0.4,0,0.8,0.4,1c0.1,0.1,0.3,0.1,0.5,0.1c0,0.2,0.4,0.6,0.5,0.7c0.2,0.2,0.3,0.5,0.5,0.7
							c0.4,0.5,0.7,1,1,1.5c0.7,1,1.3,2.1,2,3.2c0.2,0.4,0.7,0.5,1,0.3S3302.7,1648.8,3302.4,1648.5L3302.4,1648.5z M3286.2,1601.8
							c-0.1,2.9-0.2,5.7-0.4,8.6c0,0.9,1.4,0.9,1.5,0c0.1-2.9,0.2-5.7,0.4-8.6C3287.7,1600.9,3286.3,1600.9,3286.2,1601.8
							L3286.2,1601.8z M3383.4,1469.8c0-7.9-6.4-14.3-14.3-14.3h-170.8c-7.9,0-14.3,6.4-14.3,14.3v195.5c0,7.9,6.4,14.3,14.3,14.3
							h68.3l-1.4-3.1c-2.3-5.3,0.1-11.4,5.4-13.7c1.3-0.6,2.7-0.8,4.1-0.8c0.8,0,1.7,0.1,2.5,0.3V1646h-1.9
							c-0.4,0.4-0.8,0.7-1.1,0.9c-1.6,1-3.1,2.1-4.7,3.2c-0.9,0.7-2.1,1-3.3,1l0,0c-2.4,0-4.6-1.6-5.4-3.9c-0.1-0.4-0.2-0.8-0.3-1.2
							H3218v28.7h-19.7c-5.2,0-9.4-4.2-9.4-9.4v-181.7h29.1v29.1h131.3v-29.1h29.1v181.7c0,5.2-4.2,9.4-9.4,9.4h-19.7V1646h-42.7
							c1,1.7,1,3.9,0.1,5.6c-0.7,1.2-1.8,2.1-3,2.5c1.1,0.7,2.2,1.5,3,2.5c5.2-1.4,10.5,1.2,12.5,6.2c5.7-0.7,10.9,3.4,11.6,9.1
							c0.1,0.4,0.1,0.8,0.1,1.2v6.3h38.2c7.9,0,14.3-6.4,14.3-14.3L3383.4,1469.8z M3339.4,1585.4c0.1,1.9-0.8,3.7-2.3,4.9
							c-1.5,1.2-3.9,1.8-7,1.8c-2.3,0-4.7-0.3-7-0.9c-2.4-0.6-4.8-1.4-7.1-2.4v7.5c3.6,1.7,8.1,2.5,13.6,2.5c5.5,0,9.9-1.2,13.1-3.8
							c3.1-2.4,4.9-6.3,4.7-10.2c0-2-0.4-3.9-1.1-5.7c-0.8-1.7-2.2-3.2-3.7-4.4c-2.4-1.7-5.1-3.1-7.9-4.1c-2.3-0.8-4.5-2-6.7-3.2
							c-1-0.7-2-1.5-2.6-2.5c-0.6-1-0.8-2.2-0.8-3.3c-0.1-1.7,0.7-3.4,2-4.5c1.3-1.1,3.3-1.7,5.9-1.7c4,0.1,8,1,11.7,2.7l2.5-6.5
							c-4.4-2-9.1-3-14-3.1c-4.9,0-8.7,1.1-11.7,3.5c-2.9,2.3-4.5,5.9-4.3,9.7c-0.1,3,0.8,6,2.7,8.4c1.8,2.3,5,4.4,9.4,6.2
							c4.3,1.8,7.1,3.3,8.6,4.5C3338.7,1581.9,3339.4,1583.6,3339.4,1585.4L3339.4,1585.4z M3244.1,1549h-8.7l-18.3,49.1h8.5
							l4.8-13.6h18.7l4.9,13.6h8.5L3244.1,1549z M3286.6,1623.7c-3.3,0-6,2.7-6,6c0,1.8,0.8,3.4,2.1,4.5c1.2-2.7,4.4-3.9,7.2-2.7
							c0.8,0.3,1.3,0.8,1.9,1.4c1.8-2.8,0.9-6.6-1.9-8.3C3288.9,1624.1,3287.7,1623.7,3286.6,1623.7L3286.6,1623.7z M3293.1,1639.8
							c5.5-3.6,7-10.9,3.5-16.4c-3.6-5.5-10.9-7-16.4-3.5c-5.5,3.6-7,10.9-3.5,16.4c1.3,2.1,3.3,3.7,5.5,4.5v-4.2
							c0-0.3,0-0.5,0.1-0.8c-3.4-2.4-4.1-7.1-1.7-10.4c2.4-3.4,7.1-4.1,10.4-1.7c3.4,2.4,4.1,7.1,1.7,10.4l-0.1,0.1
							c0.4,0.8,0.5,1.5,0.5,2.3V1639.8z M3246.9,1577.7l-4.6-13.3c-0.4-0.8-0.8-2.3-1.4-4.2s-1-3.3-1.2-4.2c-0.7,3-1.6,6-2.6,9
							l-4.4,12.8H3246.9z"/>
					</defs>
					<clipPath id="SVGID_2_">
						<use xlink:href="#SVGID_1_"  style="overflow:visible;"/>
					</clipPath>
					<g id="Group_100" class="st1">
						<g id="Group_99">
							<g id="Group_98">
								<g>
									<g>
										<defs>
											<rect id="SVGID_3_" x="3126.3" y="1408.8" width="314.8" height="314.8"/>
										</defs>
										<clipPath id="SVGID_4_">
											<use xlink:href="#SVGID_3_"  style="overflow:visible;"/>
										</clipPath>
										<g id="Group_97" class="st2">
											<g id="Group_96">
												<g>
													<g>
														<defs>
															<rect id="SVGID_5_" x="3126.3" y="1408.8" width="314.8" height="314.8"/>
														</defs>
														<clipPath id="SVGID_6_">
															<use xlink:href="#SVGID_5_"  style="overflow:visible;"/>
														</clipPath>
														<g id="Group_95" class="st3">
															
																<image style="overflow:visible;enable-background:new    ;" width="702" height="702" id="Rectangle_44" xlink:href="1C25A68AEFDBC674.png"  transform="matrix(0.4492 0 0 0.4492 3125.8723 1408.6403)">
															</image>
														</g>
													</g>
												</g>
											</g>
										</g>
									</g>
								</g>
							</g>
						</g>
					</g>
				</g>
			</g>
		</g>
	</g>
</g>
</svg>
