<svg width="440" height="440" viewBox="0 0 440 440" fill="none" xmlns="http://www.w3.org/2000/svg">
<circle cx="220" cy="220" r="220" fill="#0968AC"/>
<path d="M169.453 252L166.078 239.156H143.812L140.344 252H120L142.359 183.188H167.062L189.703 252H169.453ZM162.234 223.969L159.281 212.719C158.594 210.219 157.75 206.984 156.75 203.016C155.781 199.047 155.141 196.203 154.828 194.484C154.547 196.078 153.984 198.703 153.141 202.359C152.328 206.016 150.5 213.219 147.656 223.969H162.234ZM255.328 216.281C255.328 227.719 252.172 236.531 245.859 242.719C239.578 248.906 230.734 252 219.328 252H197.156V183.469H220.875C231.875 183.469 240.359 186.281 246.328 191.906C252.328 197.531 255.328 205.656 255.328 216.281ZM236.109 216.938C236.109 210.656 234.859 206 232.359 202.969C229.891 199.938 226.125 198.422 221.062 198.422H215.672V236.812H219.797C225.422 236.812 229.547 235.188 232.172 231.938C234.797 228.656 236.109 223.656 236.109 216.938ZM312.469 231.188C312.469 235.438 311.391 239.219 309.234 242.531C307.078 245.812 303.969 248.375 299.906 250.219C295.844 252.031 291.078 252.938 285.609 252.938C281.047 252.938 277.219 252.625 274.125 252C271.031 251.344 267.812 250.219 264.469 248.625V232.125C268 233.938 271.672 235.359 275.484 236.391C279.297 237.391 282.797 237.891 285.984 237.891C288.734 237.891 290.75 237.422 292.031 236.484C293.312 235.516 293.953 234.281 293.953 232.781C293.953 231.844 293.688 231.031 293.156 230.344C292.656 229.625 291.828 228.906 290.672 228.188C289.547 227.469 286.516 226 281.578 223.781C277.109 221.75 273.75 219.781 271.5 217.875C269.281 215.969 267.625 213.781 266.531 211.312C265.469 208.844 264.938 205.922 264.938 202.547C264.938 196.234 267.234 191.312 271.828 187.781C276.422 184.25 282.734 182.484 290.766 182.484C297.859 182.484 305.094 184.125 312.469 187.406L306.797 201.703C300.391 198.766 294.859 197.297 290.203 197.297C287.797 197.297 286.047 197.719 284.953 198.562C283.859 199.406 283.312 200.453 283.312 201.703C283.312 203.047 284 204.25 285.375 205.312C286.781 206.375 290.562 208.312 296.719 211.125C302.625 213.781 306.719 216.641 309 219.703C311.312 222.734 312.469 226.562 312.469 231.188Z" fill="white"/>
</svg>
