<?xml version="1.0" encoding="utf-8"?>
<!-- Generator: Adobe Illustrator 24.1.0, SVG Export Plug-In . SVG Version: 6.00 Build 0)  -->
<svg version="1.1" id="ae37f038-3a9e-4b82-ad68-fc94ba16af2a"
	 xmlns="http://www.w3.org/2000/svg" xmlns:xlink="http://www.w3.org/1999/xlink" x="0px" y="0px" viewBox="0 0 699.6 574.7"
	 style="enable-background:new 0 0 699.6 574.7;" xml:space="preserve">
<style type="text/css">
	.st0{fill:none;}
	.st1{opacity:0.1;}
	.st2{fill:#3F3D56;}
	.st3{fill:#6C63FF;}
	.st4{opacity:0.1;enable-background:new    ;}
	.st5{opacity:0.1;fill:#6C63FF;enable-background:new    ;}
	.st6{fill:none;stroke:#3F3D56;stroke-width:4;stroke-miterlimit:10;}
	.st7{fill:url(#SVGID_1_);}
	.st8{fill:#BE6F72;}
	.st9{fill:#FF6F61;}
	.st10{fill:url(#SVGID_2_);}
	.st11{fill:url(#SVGID_3_);}
	.st12{opacity:0.1;fill:none;stroke:#000000;stroke-miterlimit:10;enable-background:new    ;}
	.st13{fill:url(#SVGID_4_);}
	.st14{fill:#2F2E41;}
	.st15{fill:#FBBEBE;}
	.st16{fill:#E8E8F0;}
	.st17{fill:#F86D70;}
</style>
<pattern  x="-201" y="574.7" width="36.9" height="49.5" patternUnits="userSpaceOnUse" id="ad310e25-2b04-44c8-bb7b-9823891" viewBox="0 -49.5 36.9 49.5" style="overflow:visible;">
	<g>
		<rect x="0" y="-49.5" class="st0" width="36.9" height="49.5"/>
		<rect x="0" y="-49.5" class="st0" width="36.9" height="49.5"/>
		<path d="M4.3-13.2c4.5,0,4.5,7,0,7S-0.2-13.2,4.3-13.2z"/>
		<path d="M4.5-17.2c4.5,0,4.5,7,0,7S0-17.2,4.5-17.2z"/>
		<path d="M4.5-20.9c4.5,0,4.5,7,0,7S0-20.9,4.5-20.9z"/>
		<path d="M3.4-24.7c4.5,0,4.5,7,0,7S-1.1-24.7,3.4-24.7z"/>
		<path d="M1.1-28.3l0.2-0.4c1-1.7,3.1-2.2,4.8-1.2c1.6,1,2.2,3.1,1.3,4.8l-0.2,0.4c-1,1.7-3.1,2.2-4.8,1.3
			C0.7-24.5,0.2-26.6,1.1-28.3z"/>
		<path d="M1.5-30.1l0.2-0.6c0.3-0.9,0.8-1.6,1.6-2.1c0.8-0.5,1.8-0.6,2.7-0.3c1.9,0.5,2.9,2.4,2.4,4.3l-0.2,0.6
			c-0.3,0.9-0.8,1.6-1.6,2.1c-0.8,0.5-1.8,0.6-2.7,0.4C2.1-26.3,1-28.2,1.5-30.1z"/>
		<path d="M1.6-33.9v-0.4c0-1.9,1.6-3.5,3.5-3.5c1.9,0,3.5,1.6,3.5,3.5v0.4c0,1.9-1.6,3.5-3.5,3.5C3.2-30.4,1.6-32,1.6-33.9z"/>
		<path d="M4.9-42.3c4.5,0,4.5,7,0,7S0.4-42.3,4.9-42.3z"/>
		<path d="M1.8-42v-0.2c0-1.9,1.6-3.5,3.5-3.5c1.9,0,3.5,1.6,3.5,3.5v0.2c0,1.9-1.6,3.5-3.5,3.5C3.4-38.5,1.8-40.1,1.8-42z"/>
		<path d="M6-49.3c4.5,0,4.5,7,0,7S1.5-49.3,6-49.3z"/>
		<path d="M10-14.1c4.5,0,4.5,7,0,7S5.5-14.1,10-14.1z"/>
		<path d="M6.6-20.9c4.5,0,4.5,7,0,7S2.1-20.9,6.6-20.9z"/>
		<path d="M8.5-27c4.5,0,4.5,7,0,7S4-27,8.5-27z"/>
		<path d="M8.5-29.3c4.5,0,4.5,7,0,7S4-29.3,8.5-29.3z"/>
		<path d="M14.9-33.8c4.5,0,4.5,7,0,7S10.4-33.8,14.9-33.8z"/>
		<path d="M9.8-38.5c4.5,0,4.5,7,0,7S5.3-38.5,9.8-38.5z"/>
		<path d="M10.6-45.1c4.5,0,4.5,7,0,7S6.1-45.1,10.6-45.1z"/>
		<path d="M10.6-49.5c4.5,0,4.5,7,0,7S6.1-49.5,10.6-49.5z"/>
		<path d="M12.8-18.1c2.6,0,2.6,4,0,4S10.3-18.1,12.8-18.1z"/>
		<path d="M13-20.4c2.6,0,2.6,4,0,4S10.4-20.4,13-20.4z"/>
		<path d="M13.1-21v-0.2c0-1.1,0.9-2,2-2s2,0.9,2,2v0.2c0,1.1-0.9,2-2,2S13.1-19.9,13.1-21z"/>
		<path d="M15.1-25.9c2.6,0,2.6,4,0,4S12.5-25.9,15.1-25.9z"/>
		<path d="M16.6-11.1c0.6,0,1,0.4,1,1s-0.4,1-1,1s-1-0.4-1-1S16.1-11.1,16.6-11.1z"/>
		<path d="M21.7-16.5c0.6,0,1,0.4,1,1c0,0.6-0.4,1-1,1s-1-0.4-1-1C20.7-16.1,21.2-16.5,21.7-16.5z"/>
		<path d="M16.9-8.9v0.4c0,0.6-0.4,1-1,1c-0.6,0-1-0.4-1-1v-0.4c0-0.6,0.4-1,1-1C16.4-9.9,16.9-9.5,16.9-8.9z"/>
		<path d="M16.5-4.8v0.2c0,0.6-0.4,1-1,1c-0.6,0-1-0.4-1-1v-0.2c0-0.6,0.4-1,1-1C16-5.8,16.5-5.3,16.5-4.8z"/>
		<path d="M15.5-2c0.6,0,1,0.4,1,1s-0.4,1-1,1c-0.6,0-1-0.4-1-1S14.9-2,15.5-2z"/>
		<path d="M10.6-2c0.6,0,1,0.4,1,1s-0.4,1-1,1c-0.6,0-1-0.4-1-1S10-2,10.6-2z"/>
		<path d="M10.4-4.7c0.6,0,1,0.4,1,1s-0.4,1-1,1c-0.6,0-1-0.4-1-1S9.8-4.7,10.4-4.7z"/>
		<path d="M7.4-6.2c0.6,0,1,0.4,1,1s-0.4,1-1,1s-1-0.4-1-1S6.8-6.2,7.4-6.2z"/>
		<path d="M11.9-7.1h0.4c0.6,0,1,0.4,1,1s-0.4,1-1,1h-0.4c-0.6,0-1-0.4-1-1S11.3-7.1,11.9-7.1z"/>
		<path d="M13.3-11l0.6-1.3c0.3-0.5,0.9-0.6,1.4-0.4c0,0,0,0,0,0c0.5,0.3,0.6,0.9,0.4,1.4c0,0,0,0,0,0L15-10
			c-0.3,0.5-0.9,0.6-1.4,0.4c0,0,0,0,0,0C13.2-9.9,13-10.5,13.3-11z"/>
		<path d="M18.4-19.3v-0.2c0-0.6,0.4-1,1-1s1,0.4,1,1v0.2c0,0.6-0.4,1-1,1S18.4-18.8,18.4-19.3z"/>
		<path d="M20.7-24.9l0.2-0.4c0.6-1.1,2.3-0.1,1.7,1l-0.2,0.4C21.8-22.8,20.1-23.8,20.7-24.9z"/>
		<path d="M22.1-29.4c-0.5-0.5-0.8-1.1-0.8-1.9c0-0.6,0.4-1,1-1s1,0.4,1,1c0,0.2,0.1,0.3,0.2,0.4c0.4,0.4,0.4,1,0,1.4c0,0,0,0,0,0
			C23.2-29,22.5-29,22.1-29.4z"/>
		<path d="M20.3-33.4l-0.5-1.7c-0.4-1.2,1.5-1.8,1.9-0.5l0.5,1.7C22.6-32.7,20.7-32.2,20.3-33.4z"/>
		<path d="M19.4-37h-0.2c-0.6,0-1-0.4-1-1s0.4-1,1-1h0.2c0.6,0,1,0.4,1,1S20-37,19.4-37z"/>
		<path d="M17.6-41.5l-0.2-0.4c-0.6-1.2,1.1-2.2,1.7-1l0.2,0.4C19.9-41.3,18.2-40.3,17.6-41.5z"/>
		<path d="M15.8-47.9v-0.6c0-0.6,0.4-1,1-1c0.6,0,1,0.4,1,1v0.6c0,0.6-0.4,1-1,1S15.8-47.3,15.8-47.9z"/>
		<path d="M14.3-49.4c0.6,0,1,0.4,1,1s-0.4,1-1,1c-0.6,0-1-0.4-1-1S13.8-49.4,14.3-49.4z"/>
		<path d="M14.3-41.3c0.6,0,1,0.4,1,1s-0.4,1-1,1c-0.6,0-1-0.4-1-1S13.8-41.3,14.3-41.3z"/>
		<path d="M17.1-36.5c0.6,0.3,1,1,1,1.6c0,0.6-0.4,1-1,1s-1-0.4-1-1c0,0.1,0.2,0.2,0,0.1C15-35.3,16-37,17.1-36.5z"/>
		<path d="M17.4-31.3c0.6,0,1,0.4,1,1s-0.4,1-1,1s-1-0.4-1-1S16.8-31.3,17.4-31.3z"/>
		<path d="M18.1-28.5c0.6,0,1,0.4,1,1s-0.4,1-1,1s-1-0.4-1-1S17.6-28.5,18.1-28.5z"/>
		<path d="M19-24.9l0.2,0.4c0.6,1.1-1.1,2.2-1.7,1l-0.2-0.4C16.7-25.1,18.4-26.1,19-24.9z"/>
		<path d="M17.9-16c0.6,0,1,0.4,1,1s-0.4,1-1,1s-1-0.4-1-1S17.4-16,17.9-16z"/>
		<path d="M24.6-16l0.6-0.9c0.3-0.4,1-0.5,1.4-0.2c0.4,0.3,0.5,0.8,0.3,1.2l-0.6,1c-0.3,0.5-0.9,0.6-1.4,0.3
			C24.6-15,24.4-15.5,24.6-16L24.6-16z"/>
		<path d="M34.9-29.7v-0.2c0-0.6,0.4-1,1-1s1,0.4,1,1v0.2c0,0.6-0.4,1-1,1S34.9-29.2,34.9-29.7z"/>
		<path d="M24-39.2c0.6,0,1,0.4,1,1s-0.4,1-1,1s-1-0.4-1-1S23.5-39.2,24-39.2z"/>
		<path d="M22.9-29c0.6,0,1,0.4,1,1s-0.4,1-1,1s-1-0.4-1-1S22.3-29,22.9-29z"/>
		<path d="M18.2-21.9l0.6,0.6c0.9,0.9-0.5,2.3-1.4,1.4l-0.6-0.6C15.9-21.4,17.3-22.8,18.2-21.9z"/>
	</g>
</pattern>
<g class="st1">
	<ellipse class="st2" cx="278.4" cy="362.1" rx="11.4" ry="14.9"/>
	<path class="st2" d="M287.4,298.4c1.6-2.8,2.4-5.9,2.4-9.1c0-8.2-5.1-14.9-11.4-14.9S267,281,267,289.3c0,3.2,0.8,6.3,2.4,9.1
		c-3.2,5.7-3.2,12.6,0,18.2c-3.2,5.7-3.2,12.6,0,18.2c-1.6,2.8-2.4,5.9-2.4,9.1c0,8.2,5.1,14.9,11.4,14.9s11.4-6.7,11.4-14.9
		c0-3.2-0.8-6.3-2.4-9.1c3.2-5.7,3.2-12.6,0-18.2C290.6,310.9,290.6,304,287.4,298.4L287.4,298.4z"/>
	<ellipse class="st2" cx="278.4" cy="271.1" rx="11.4" ry="14.9"/>
	<ellipse class="st2" cx="278.4" cy="252.9" rx="11.4" ry="14.9"/>
	<path class="st3" d="M235.8,128.2c-1.6-2-3-4.1-4.2-6.2l29.9-4.9l-32.3,0.2c-6.3-13.7-6.6-29.3-1-43.2l43.4,22.5l-40-29.4
		c14.9-26.2,48.2-35.3,74.4-20.4c26.2,14.9,35.3,48.2,20.4,74.4c-1.4,2.5-3,4.8-4.8,7.1c2.4,3.1,4.5,6.4,6.2,9.9l-38.8,20.2
		l41.4-13.9c5.9,17.5,2.6,36.7-8.8,51.2c18.6,23.7,14.5,57.9-9.1,76.6c-23.7,18.6-57.9,14.5-76.6-9.1c-15.6-19.8-15.6-47.6,0-67.4
		C220.3,175.9,220.3,148,235.8,128.2L235.8,128.2z"/>
	<path class="st4" d="M333.2,161.9c0,12.2-4.1,24.1-11.7,33.7c18.6,23.7,14.5,57.9-9.1,76.6c-23.7,18.6-57.9,14.5-76.6-9.1
		c-15.6-19.8-15.6-47.6,0-67.4C228.5,186.4,333.2,155.8,333.2,161.9z"/>
</g>
<g class="st1">
	<ellipse class="st2" cx="411.3" cy="330.3" rx="8.5" ry="11.1"/>
	<path class="st2" d="M418,282.6c1.2-2.1,1.8-4.4,1.8-6.8c0-6.1-3.8-11.1-8.5-11.1s-8.5,5-8.5,11.1c0,2.4,0.6,4.7,1.8,6.8
		c-2.4,4.2-2.4,9.4,0,13.6c-2.4,4.2-2.4,9.4,0,13.6c-1.2,2.1-1.8,4.4-1.8,6.8c0,6.1,3.8,11.1,8.5,11.1s8.5-5,8.5-11.1
		c0-2.4-0.6-4.7-1.8-6.8c2.4-4.2,2.4-9.4,0-13.6C420.4,292,420.4,286.9,418,282.6z"/>
	<ellipse class="st2" cx="411.3" cy="262.2" rx="8.5" ry="11.1"/>
	<ellipse class="st2" cx="411.3" cy="248.6" rx="8.5" ry="11.1"/>
	<path class="st3" d="M379.4,155.5c-1.2-1.5-2.2-3-3.2-4.7l22.3-3.7l-24.2,0.2c-4.7-10.2-5-21.9-0.8-32.3l32.4,16.8l-29.9-22
		c11.2-19.5,36.2-26.2,55.7-15c19.5,11.2,26.2,36.2,15,55.7c-1,1.7-2.1,3.3-3.3,4.9c1.8,2.3,3.4,4.8,4.7,7.4l-29,15.1l30.9-10.4
		c4.4,13,1.9,27.4-6.6,38.3c13.9,17.7,10.9,43.3-6.8,57.2c-17.7,13.9-43.3,10.9-57.2-6.8c-11.7-14.8-11.7-35.6,0-50.4
		C367.9,191.1,367.9,170.3,379.4,155.5L379.4,155.5z"/>
	<path class="st4" d="M452.2,180.7c0,9.1-3.1,18-8.7,25.2c13.9,17.7,10.9,43.3-6.8,57.2c-17.7,13.9-43.3,10.9-57.2-6.8
		c-11.7-14.8-11.7-35.6,0-50.4C374,198.9,452.2,176.1,452.2,180.7z"/>
</g>
<path class="st5" d="M607.8,110.4c-3.6-0.7-7.3-0.3-10.6,1.2c-4.1,1.8-8.7,1.8-12.7,0c-4.8-2.1-10.3-2-15,0.3
	c-1.3,0.7-2.8,1.1-4.3,1.1c-6.1,0-11.1-6.1-12.2-14.2c1.2-0.9,2.2-2,3-3.3c3.6-5.7,9.1-9.4,15.3-9.4s11.6,3.6,15.2,9.3
	c2.2,3.5,6,5.6,10.1,5.5h0.2C601.6,100.8,605.8,104.7,607.8,110.4z"/>
<path class="st5" d="M626.3,85l-9.8,6.2l6-10.8c-1.7-1.3-3.8-2.1-5.9-2.1h-0.2c-0.7,0-1.3,0-2-0.1l-3.4,2.1l1.4-2.6
	c-2.4-0.8-4.4-2.4-5.8-4.4l-6,3.8l3.8-6.8c-3.5-4.2-8.2-6.7-13.3-6.7c-6.2,0-11.7,3.7-15.3,9.4c-2.1,3.5-6,5.6-10.1,5.4h-0.3
	c-6.8,0-12.4,7.8-12.4,17.3c0,9.6,5.5,17.3,12.4,17.3c1.5,0,3-0.4,4.3-1.1c4.7-2.3,10.2-2.4,15-0.3c4.1,1.8,8.7,1.8,12.7,0
	c4.8-2.1,10.2-2,14.9,0.3c1.3,0.7,2.8,1.1,4.3,1.1c6.8,0,12.4-7.8,12.4-17.3C628.9,91.9,628,88.3,626.3,85z"/>
<path class="st5" d="M190.3,105c-2.5-0.5-5.1-0.2-7.4,0.8c-2.8,1.3-6.1,1.3-8.9,0c-3.4-1.5-7.2-1.4-10.5,0.2c-0.9,0.5-2,0.7-3,0.8
	c-4.2,0-7.8-4.3-8.5-9.9c0.8-0.6,1.6-1.4,2.1-2.3c2.5-4,6.4-6.6,10.7-6.6s8.1,2.6,10.6,6.5c1.5,2.4,4.2,3.9,7.1,3.9h0.1
	C185.9,98.3,188.8,101,190.3,105z"/>
<path class="st5" d="M203.2,87.2l-6.9,4.4l4.2-7.6c-1.2-0.9-2.6-1.5-4.1-1.5h-0.1c-0.5,0-1,0-1.4-0.1l-2.3,1.5l1-1.8
	c-1.7-0.6-3.1-1.7-4.1-3.1l-4.2,2.6l2.6-4.8c-2.2-2.9-5.7-4.6-9.3-4.7c-4.3,0-8.2,2.6-10.7,6.6c-1.5,2.4-4.2,3.9-7.1,3.8h-0.2
	c-4.8,0-8.7,5.4-8.7,12.1s3.9,12.1,8.7,12.1c1,0,2.1-0.3,3-0.8c3.3-1.6,7.1-1.7,10.5-0.2c1.4,0.6,2.9,1,4.5,1c1.5,0,3-0.3,4.4-0.9
	c3.3-1.4,7.1-1.4,10.4,0.2c0.9,0.5,2,0.7,3,0.7c4.8,0,8.7-5.4,8.7-12.1C205.1,92.1,204.4,89.5,203.2,87.2z"/>
<path class="st5" d="M68.6,183.4c2.5-0.5,5.1-0.2,7.4,0.8c2.8,1.3,6.1,1.3,8.9,0c3.4-1.5,7.2-1.4,10.5,0.2c0.9,0.5,2,0.8,3,0.8
	c4.2,0,7.8-4.3,8.5-9.9c-0.8-0.6-1.6-1.4-2.1-2.3c-2.5-4-6.4-6.6-10.7-6.6s-8.1,2.5-10.6,6.5c-1.5,2.4-4.2,3.9-7.1,3.9h-0.1
	C72.9,176.7,70,179.4,68.6,183.4z"/>
<path class="st5" d="M55.6,165.7l6.9,4.4l-4.2-7.6c1.2-0.9,2.6-1.5,4.2-1.5h0.1c0.5,0,1,0,1.4-0.1l2.3,1.5l-1-1.8
	c1.6-0.6,3.1-1.7,4.1-3.1l4.2,2.6l-2.6-4.8c2.2-2.9,5.7-4.6,9.3-4.7c4.3,0,8.2,2.6,10.7,6.6c1.5,2.4,4.2,3.9,7.1,3.8h0.2
	c4.8,0,8.7,5.4,8.7,12.1s-3.9,12.1-8.7,12.1c-1,0-2.1-0.3-3-0.8c-3.3-1.6-7.1-1.7-10.5-0.2c-1.4,0.6-2.9,1-4.5,1
	c-1.5,0-3-0.3-4.4-0.9c-3.3-1.4-7.1-1.4-10.4,0.2c-0.9,0.5-2,0.7-3,0.7c-4.8,0-8.7-5.4-8.7-12.1C53.8,170.5,54.4,168,55.6,165.7z"/>
<path class="st6" d="M463.3,490.3c2.6-4.8-0.3-10.8-3.8-15.1s-7.6-8.8-7.5-14.3c0.1-7.9,8.5-12.6,15.2-16.7c5-3.1,9.6-6.8,13.7-11
	c1.7-1.6,3.1-3.5,4.2-5.6c1.4-3.1,1.3-6.6,1.3-10c-0.3-11.3-0.8-22.5-1.7-33.8"/>
<path class="st3" d="M497.5,383.2c-0.2-4.2-2.5-8-6.2-10.1l-2.8,5.5l0.1-6.6c-6.5-1.9-13.4,1.8-15.3,8.3c-1.9,6.5,1.8,13.4,8.3,15.3
	c6.5,1.9,13.4-1.8,15.3-8.3C497.4,386,497.5,384.6,497.5,383.2z"/>
<path class="st3" d="M475.5,466.5c-3.1,6-10.5,8.4-16.6,5.3c-3.9-2-6.4-5.9-6.7-10.3c-0.1-1.7,0.2-3.4,0.8-5c2.5-6.3,9.6-9.5,16-7
	c3.2,1.3,5.8,3.9,7,7.1l-7.7,6.3l8.5-2C476.8,462.9,476.4,464.8,475.5,466.5z"/>
<path class="st3" d="M469.4,442.6c-6.8,0.3-12.6-4.9-12.9-11.7c-0.3-5.7,3.5-10.9,9-12.4l-0.1,5.1l2.8-5.5l0,0
	c6.8-0.3,12.6,4.9,12.9,11.7S476.2,442.3,469.4,442.6L469.4,442.6z"/>
<path class="st3" d="M499.3,422.8c-6.8,0.4-12.6-4.9-12.9-11.7c-0.4-6.8,4.9-12.6,11.7-12.9c2.3-0.1,4.7,0.4,6.7,1.6l-2.2,6l4.4-4.4
	c5,4.6,5.3,12.4,0.8,17.4C505.6,421.2,502.5,422.6,499.3,422.8L499.3,422.8z"/>
<path class="st4" d="M495.8,386.5c-2.8,0.3-5.6,1.2-8.5,1.4s-6-0.5-7.8-2.7c-0.8-1.3-1.6-2.6-2.3-4c-0.8-1.2-1.8-2.2-3.1-2.9
	c-3.1,6.1-0.7,13.5,5.4,16.6c6.1,3.1,13.5,0.7,16.6-5.4c0.5-1,0.8-2,1.1-3C496.7,386.4,496.3,386.5,495.8,386.5z"/>
<path class="st4" d="M499.3,422.8c-6.8,0.3-12.6-4.9-12.9-11.7c-0.1-2,0.3-4,1.2-5.8c1,0.7,1.8,1.5,2.5,2.5c0.7,1.4,1.6,2.8,2.4,4.1
	c1.9,2.2,5.2,3,8.2,2.8s5.8-1,8.8-1.2c0.4,0,0.8-0.1,1.2-0.1C509.5,418.6,504.8,422.5,499.3,422.8z"/>
<path class="st4" d="M469.4,442.6c-6.8,0.3-12.6-4.9-12.9-11.7c-0.1-1.9,0.3-3.8,1.1-5.6c1,0.7,1.9,1.5,2.6,2.5
	c0.8,1.4,1.7,2.8,2.7,4.2c2.1,2.3,5.6,3.1,8.7,3s6-0.8,9-1C479.1,438.9,474.6,442.4,469.4,442.6z"/>
<path class="st4" d="M475.5,466.5c-3.1,6-10.5,8.4-16.6,5.3c-3.9-2-6.4-5.9-6.7-10.3c-0.1-1.7,0.2-3.4,0.8-5c1,0.7,1.9,1.5,2.7,2.4
	c1.2,1.4,1.9,3,3.3,4.4c2.5,2.5,6.6,3.5,10.2,3.6C471.3,466.9,473.4,466.8,475.5,466.5z"/>
<path class="st6" d="M259.5,335.9c-2.6-4.8,0.3-10.8,3.8-15.1s7.5-8.8,7.5-14.3c-0.1-7.9-8.5-12.6-15.2-16.7c-5-3.1-9.5-6.8-13.6-11
	c-1.7-1.6-3.1-3.5-4.2-5.6c-1.4-3.1-1.3-6.6-1.3-10c0.3-11.3,0.9-22.5,1.7-33.8"/>
<path class="st3" d="M225.4,228.9c0.2-4.2,2.5-8,6.1-10.1l2.8,5.5l-0.1-6.6c1.3-0.4,2.7-0.5,4-0.5c6.8,0.3,12,6.1,11.7,12.9
	c-0.3,6.8-6.1,12-12.9,11.7C230.3,241.4,225.1,235.6,225.4,228.9L225.4,228.9z"/>
<path class="st3" d="M247.3,312.2c3.1,6,10.5,8.4,16.6,5.3c6-3.1,8.4-10.5,5.3-16.6c-3.1-6-10.5-8.4-16.6-5.3
	c-2.7,1.4-4.8,3.8-5.9,6.7l7.7,6.3l-8.5-2C246,308.5,246.4,310.4,247.3,312.2z"/>
<path class="st3" d="M253.4,288.3c6.8,0.3,12.6-4.9,12.9-11.7c0.3-5.7-3.4-10.9-9-12.4l0.1,5.1l-2.8-5.5l0,0
	c-6.8-0.3-12.6,4.9-12.9,11.7c-0.1,1.4,0.1,2.8,0.5,4.2C243.8,284.5,248.2,288,253.4,288.3z"/>
<path class="st3" d="M223.5,268.4c6.8,0.3,12.6-4.9,12.9-11.7s-4.9-12.6-11.7-12.9c-2.3-0.1-4.7,0.4-6.7,1.6l2.2,6l-4.5-4.3
	c-2.4,2.2-3.9,5.2-4,8.5c-0.1,1.1,0,2.3,0.3,3.4C213.4,264.3,218.1,268.1,223.5,268.4z"/>
<path class="st4" d="M227.1,232.1c2.8,0.3,5.6,1.2,8.5,1.4s6-0.5,7.8-2.7c0.8-1.3,1.6-2.6,2.3-4c0.8-1.2,1.8-2.2,3.1-2.9
	c3.1,6.1,0.7,13.5-5.4,16.6s-13.5,0.7-16.6-5.4c-0.5-1-0.9-2-1.1-3C226.1,232,226.6,232.1,227.1,232.1z"/>
<path class="st4" d="M223.5,268.4c6.8,0.3,12.6-4.9,12.9-11.7c0.1-2-0.3-4-1.2-5.8c-1,0.7-1.8,1.5-2.5,2.5c-0.7,1.4-1.6,2.8-2.4,4.1
	c-1.9,2.2-5.2,3-8.2,2.9s-5.8-1-8.8-1.2c-0.4,0-0.8-0.1-1.2-0.1C213.4,264.2,218.1,268.1,223.5,268.4z"/>
<path class="st4" d="M253.4,288.3c6.8,0.3,12.6-4.9,12.9-11.7c0.1-1.9-0.3-3.9-1.1-5.6c-1,0.7-1.9,1.5-2.6,2.5
	c-0.8,1.4-1.7,2.8-2.7,4.1c-2.1,2.3-5.6,3.1-8.7,3s-6-0.8-9-1C243.8,284.6,248.2,288,253.4,288.3z"/>
<path class="st4" d="M247.3,312.2c3.1,6,10.6,8.4,16.6,5.3c5.5-2.9,8-9.4,5.9-15.3c-1,0.7-1.9,1.5-2.7,2.4c-1.2,1.4-2,3-3.3,4.4
	c-2.5,2.5-6.6,3.5-10.2,3.6C251.5,312.5,249.4,312.4,247.3,312.2z"/>
<circle class="st2" cx="578.7" cy="238.2" r="100"/>
<path class="st3" d="M621.6,264c-3.5-3.5-11.8-8.7-16-10.7c-4.8-2.3-6.5-2.3-9.9,0.2c-2.8,2-4.7,3.9-7.9,3.2s-9.7-5.5-15.9-11.7
	s-11-12.6-11.7-15.9s1.2-5.1,3.2-7.9c2.4-3.4,2.5-5.1,0.2-9.9c-2-4.1-7.2-12.5-10.7-16s-4.3-2.7-6.2-2c-2,0.8-3.9,1.8-5.7,3
	c-3.5,2.3-5.4,4.3-6.8,7.2s-2.9,8.3,5,22.5c5.9,10.9,13.3,20.8,22.1,29.5l0,0l0,0c8.7,8.8,18.7,16.3,29.6,22.1
	c14.2,8,19.6,6.4,22.5,5s4.9-3.3,7.2-6.8c1.2-1.8,2.2-3.7,3-5.7C624.4,268.2,625.2,267.4,621.6,264z"/>
<path class="st4" d="M578.7,138.2c-55.2,0-100,44.7-100,100c0,55.2,44.7,100,99.9,100c55.2,0,100-44.7,100-100c0,0,0-0.1,0-0.1
	C678.7,183,633.9,138.3,578.7,138.2z M578.7,324.8c-47.9,0-86.7-38.8-86.7-86.7c0-47.9,38.8-86.7,86.7-86.7
	c47.9,0,86.7,38.8,86.7,86.7v0C665.4,286,626.6,324.9,578.7,324.8L578.7,324.8L578.7,324.8z"/>
<circle class="st2" cx="349.1" cy="390" r="100"/>
<path class="st3" d="M405.9,359.8L376,390.3c-0.2,0.2-0.2,0.5,0,0.8c0,0,0,0,0,0l21,22.3c1.4,1.4,1.4,3.7,0,5.1
	c-0.7,0.7-1.6,1-2.5,1.1c-1,0-1.9-0.4-2.6-1.1L371,396.2c-0.2-0.2-0.6-0.2-0.8,0l-5.1,5.1c-4.2,4.3-10,6.7-16,6.7
	c-6.1,0-12-2.5-16.3-6.9l-4.9-5c-0.2-0.2-0.6-0.2-0.8,0l-20.8,22.2c-1.4,1.4-3.7,1.4-5.1,0c0,0,0,0,0,0c-1.4-1.4-1.4-3.7,0-5.1
	c0,0,0,0,0,0l20.9-22.3c0.2-0.2,0.2-0.6,0-0.8l-29.9-30.5c-0.2-0.2-0.6-0.2-0.8,0c-0.1,0.1-0.2,0.2-0.2,0.4v60.9
	c0,4.9,4,8.9,8.9,8.9H398c4.9,0,8.9-4,8.9-8.9v-60.9c0-0.3-0.2-0.6-0.5-0.6C406.2,359.6,406,359.7,405.9,359.8z"/>
<path class="st3" d="M349.1,400.9c4.1,0,8-1.6,10.9-4.5l43.6-44.4c-1.5-1.3-3.5-2-5.5-2h-97.9c-2,0-4,0.7-5.5,2l43.6,44.4
	C341.1,399.3,345,400.9,349.1,400.9z"/>
<path class="st4" d="M347.8,290.1c-55.2,0-100,44.7-100,100c0,55.2,44.7,100,99.9,100c55.2,0,100-44.7,100-100c0,0,0-0.1,0-0.1
	C447.8,334.8,403,290.1,347.8,290.1z M347.8,476.7c-47.9,0-86.7-38.8-86.7-86.7c0-47.9,38.8-86.7,86.7-86.7
	c47.9,0,86.7,38.8,86.7,86.7l0,0C434.5,437.9,395.7,476.7,347.8,476.7z"/>
<circle class="st2" cx="111.9" cy="315.4" r="100"/>
<path class="st3" d="M111.9,267.5L72,359.5l3.7,3.7l36.1-15.9l36.1,15.9l3.7-3.7L111.9,267.5z"/>
<path class="st4" d="M111.9,215.4c-55.2,0-100,44.7-100.1,99.9c0,55.2,44.7,100,99.9,100.1c55.2,0,100-44.7,100.1-99.9
	c0,0,0,0,0-0.1C211.8,260.2,167.1,215.4,111.9,215.4z M111.9,402c-47.9,0-86.7-38.8-86.7-86.7s38.8-86.7,86.7-86.7
	s86.7,38.8,86.7,86.7c0,0,0,0,0,0C198.5,363.2,159.7,402,111.9,402L111.9,402z"/>
<linearGradient id="SVGID_1_" gradientUnits="userSpaceOnUse" x1="618.1025" y1="-156.5376" x2="618.1025" y2="15.54" gradientTransform="matrix(1 0 0 -1 -52 413.37)">
	<stop  offset="0" style="stop-color:#808080;stop-opacity:0.25"/>
	<stop  offset="0.54" style="stop-color:#808080;stop-opacity:0.12"/>
	<stop  offset="1" style="stop-color:#808080;stop-opacity:0.1"/>
</linearGradient>
<path class="st7" d="M587.9,441.2c-0.9-2.2-1.8-4.4-2.8-6.6c-0.8-2.1-1.9-4.1-3.4-5.9c-0.6-0.6-1.2-1.1-2-1.5
	c-0.8-0.3-1.7-0.5-2.6-0.5c-1.4-0.2-2.7-0.2-4.1-0.1c-0.5-0.2-1.1-0.4-1.7-0.6c6.1-1.6,10.4-7,10.6-13.2c0-0.2,0-0.4,0-0.6
	c0-7.9-6.3-14.3-14.2-14.3c0,0,0,0,0,0c-2.6,0-5.2,0.7-7.5,2.1c-6.1-1.4-12.3,1.6-15,7.2c-3.3,3.2-5.2,7.7-5.1,12.3
	c0,0.2,0,0.4,0,0.6c0.3,7.8,5.3,14,11.6,14.6c-0.7,0.3-1.3,0.7-1.8,1.2c-1.9,1.9-2.3,4.8-2.5,7.5l-0.2,2l-3.4,1.2
	c-0.3,0.1-0.5,0.5-0.4,0.8c0,0.1,0.1,0.2,0.2,0.3l3.2,2.3c0,0.2,0,0.4,0,0.6s0,0.4,0.1,0.7c-0.5,0.5-1,1.1-1.2,1.8
	c-0.3,1-0.4,2.2-0.3,3.2l0.1,2.8c0,2.1,0.3,4.2,0.8,6.2c0.4,1.2,2.2,4.2,3.5,4.2c-1.2,5.5-1.5,17.1-1.5,17.1c-0.2,0.2,0.3,0.3,1,0.4
	c0.7,5.5,3.1,21,7.2,27.8c0.7,2.2,1.2,4.5,1.6,6.8c0,0,1.2,14.7,2.8,19.1c1.3,3.7,2.4,12.9,2.7,15.6c-0.6,0.1-1,0.6-1.1,1.1
	c-0.8,2.4-5.9,6-5.9,6c-1.6,0.8-3.1,1.7-4.4,2.8c-1.6,1.5-1.5,2.8,5.6,1.9c13.8-1.6,16.2-6,16.2-6s-0.2-0.7-0.5-1.7
	c-0.4-1.5-1-2.9-1.8-4.3c-0.2-0.2-0.4,0.1-0.6,0.6c-1-6.4-1.4-12.9-0.9-19.3c0,0,0.4-6.8-1.6-11.5c-0.4-2.5-0.4-5.1,0-7.5
	c0.8-3.2-3.2-18.7-3.2-18.7l-2.3-11.4c0.3,0.4,0.5,0.8,0.6,1.3l0.1,0.2l0.1,0.3c0,0.1,0.1,0.2,0.2,0.3c1.5,6.4,5.8,24.1,5.8,26.7
	c0,3.2,3.9,11.1,3.9,11.1s1.6,13.1,4.3,18.3c2.1,3.9,2.2,9.7,2,12.2l0,0c0,0-0.5,3.3-1.3,4.1c-0.6,0.8-1.1,1.7-1.5,2.6l-0.1,0.2
	c0,0-1.2,2.4-0.4,2.8c3,1.2,6.3,1.6,9.5,1.2c0,0,1.6-2,1.6-2.8c0-0.5-0.1-1-0.2-1.4c-0.3-1.9-0.8-4.8-0.8-4.9c0.3-1.3-1-4.8-1-4.8
	l-0.4-11.1c0.7-7.5-0.2-15.1-2.8-22.3c0,0-2-7.2-1.6-9.1s-0.8-23.1-0.8-23.1l-0.1-0.3c-0.1-1.5-0.1-3,0.1-4.5
	c0.4-4.8-1.2-14.7-1.6-15.1c-0.3-1.1-0.5-2.2-0.6-3.3c0.1-0.8,0.4-3.3,0.7-6.3c3.9-0.1,7.8-0.5,11.6-1c0.4,0,0.7-0.1,1-0.4
	c0.2-0.2,0.2-0.5,0.2-0.8C592.4,452.6,590.2,446.8,587.9,441.2z M580,453.9c0.4-2.8,0.8-5.6,1.3-7.7l0.1,0.2
	c0.8,2.1,1.4,4.2,1.9,6.3C582.2,453.2,581.1,453.6,580,453.9z"/>
<path class="st8" d="M549.4,486c0,0,2.4,21.2,7.5,29.5c0.7,2.2,1.2,4.4,1.6,6.7c0,0,1.2,14.5,2.8,18.9s2.8,16.1,2.8,16.1
	s5.5,6.3,7.5,1.2c-1.2-6.7-1.6-13.6-1.2-20.4c0,0,0.4-6.7-1.6-11.4c-0.4-2.5-0.4-5,0-7.5c0.8-3.2-3.2-18.5-3.2-18.5l-3.1-15.3
	L549.4,486z"/>
<path class="st9" d="M574.1,562.3c0,0-2.4,4.3-16.1,5.9c-7.1,0.8-7.2-0.5-5.6-1.9c1.4-1.1,2.8-2,4.4-2.8c0,0,5.1-3.5,5.9-5.9
	s3.5-0.4,3.5-0.4c3.9,5.9,4.7-1.6,5.5-0.8c0.8,1.3,1.4,2.7,1.8,4.2C573.9,561.6,574.1,562.3,574.1,562.3z"/>
<path class="st4" d="M574.1,562.3c0,0-2.4,4.3-16.1,5.9c-7.1,0.8-7.2-0.5-5.6-1.9c1.1,0.7,3.4,1,7.9-0.8c6.5-2.7,11.3-4.2,13.2-4.8
	C573.9,561.6,574.1,562.3,574.1,562.3z"/>
<path class="st4" d="M570.2,537.9c0,0,0.4-6.7-1.6-11.4c-0.4-2.5-0.4-5,0-7.5c0.8-3.2-3.2-18.5-3.2-18.5l-3.1-15.3l-2.7,0.2
	l3.1,15.2c0,0,3.9,15.3,3.2,18.5c-0.4,2.5-0.4,5,0,7.5c2,4.7,1.6,11.4,1.6,11.4c-0.5,6.8-0.1,13.7,1.2,20.4
	c-0.2,0.6-0.6,1.2-1.1,1.6c1.5,0.7,3,0.6,3.9-1.6C570.2,551.6,569.8,544.8,570.2,537.9z"/>
<path class="st2" d="M567.6,399.8c-2.6,0-5.2,0.7-7.4,2.1c-6.1-1.4-12.3,1.6-15,7.2c-3.3,3.2-5.2,7.6-5.1,12.2
	c0,8.4,5.6,15.1,12.6,15.1c5,0,9.4-3.6,11.4-8.7c1.2,0.3,2.3,0.5,3.5,0.5c7.8,0,14.1-6.3,14.1-14.2
	C581.8,406.1,575.4,399.8,567.6,399.8L567.6,399.8z"/>
<path class="st8" d="M579.2,488l1.2,3.1c0,0,1.2,20.8,0.8,22.8s1.6,9,1.6,9c2.5,7,3.5,14.6,2.8,22l0.4,11c0,0,1.6,4.3,0.8,5.1
	s-6.7-0.7-6.7-0.7s0.8-8.2-2-13.4s-4.3-18.1-4.3-18.1s-3.9-7.9-3.9-11s-6.3-28.7-6.3-28.7L579.2,488z"/>
<path class="st2" d="M548.6,487.6c0,0,0.4-14.2,2-18.5c0.8-2,1.4-4.1,1.8-6.3c0,0,23.8,4.3,25.8,2.7c0,0,0.4,5.5,0.8,5.9
	s2,10.2,1.6,14.9s0,4.7,0,4.7s-16.1,2.4-16.5,0s-1.6-2.3-1.6-2.3S547.8,488.4,548.6,487.6z"/>
<g class="st1">
	<path d="M561.6,487.6c0,0-9.9-0.3-12.9-0.8c0,0.5,0,0.8,0,0.8c-0.8,0.8,13.8,1.2,13.8,1.2c0.2,0,0.4,0.1,0.5,0.2
		C562.4,487.6,561.6,487.6,561.6,487.6z"/>
	<path d="M578.9,471.5c-0.4-0.4-0.8-5.9-0.8-5.9c-0.2,0.1-0.4,0.2-0.7,0.2c0.1,1.7,0.4,4.2,0.7,4.5s2,10.2,1.6,14.9s0,4.7,0,4.7
		s-12.8,1.9-15.8,0.6c0,0.2,0.1,0.4,0.1,0.6c0.4,2.4,16.5,0,16.5,0s-0.4,0,0-4.7S579.2,471.9,578.9,471.5z"/>
	
		<pattern  id="SVGID_2_" xlink:href="#ad310e25-2b04-44c8-bb7b-9823891" patternTransform="matrix(1 0 0 -1 -88 -15843.7295)"  class="st1">
	</pattern>
	<path class="st10" d="M561.6,487.6c0,0-9.9-0.3-12.9-0.8c0,0.5,0,0.8,0,0.8c-0.8,0.8,13.8,1.2,13.8,1.2c0.2,0,0.4,0.1,0.5,0.2
		C562.4,487.6,561.6,487.6,561.6,487.6z"/>
	
		<pattern  id="SVGID_3_" xlink:href="#ad310e25-2b04-44c8-bb7b-9823891" patternTransform="matrix(1 0 0 -1 -88 -15843.7295)"  class="st1">
	</pattern>
	<path class="st11" d="M578.9,471.5c-0.4-0.4-0.8-5.9-0.8-5.9c-0.2,0.1-0.4,0.2-0.7,0.2c0.1,1.7,0.4,4.2,0.7,4.5s2,10.2,1.6,14.9
		s0,4.7,0,4.7s-12.8,1.9-15.8,0.6c0,0.2,0.1,0.4,0.1,0.6c0.4,2.4,16.5,0,16.5,0s-0.4,0,0-4.7S579.2,471.9,578.9,471.5z"/>
</g>
<path class="st8" d="M565.9,424.5c0.3,0.8,0.9,1.4,1.5,1.9c0.4,0.3,0.9,0.5,1.4,0.6c-0.9,0.5-1.8,0.9-2.7,1.4c-1.4,0.9-2.7,1.9-4,3
	c-1.3,1.1-2.9,1.7-4.6,1.8c1.2-1.6,1.4-3.7,0.6-5.6c-0.4-0.6-0.6-1.3-0.7-1.9c0-1.1,1-2,1.9-2.6c0.8-0.5,1.5-1,2.3-1.5
	c0.6-0.4,1.5-1.2,2.3-1.2s0.9,0.7,1,1.4C565.2,422.8,565.5,423.7,565.9,424.5z"/>
<path class="st4" d="M565.9,424.5c0.3,0.8,0.9,1.4,1.5,1.9c0.4,0.3,0.9,0.5,1.4,0.6c-0.9,0.5-1.8,0.9-2.7,1.4c-1.4,0.9-2.7,1.9-4,3
	c-1.3,1.1-2.9,1.7-4.6,1.8c1.2-1.6,1.4-3.7,0.6-5.6c-0.4-0.6-0.6-1.3-0.7-1.9c0-1.1,1-2,1.9-2.6c0.8-0.5,1.5-1,2.3-1.5
	c0.6-0.4,1.5-1.2,2.3-1.2s0.9,0.7,1,1.4C565.2,422.8,565.5,423.7,565.9,424.5z"/>
<circle class="st8" cx="575.1" cy="438.7" r="9"/>
<path class="st9" d="M587.9,567c0,0.8-1.6,2.8-1.6,2.8c-3.2,0.4-6.4,0-9.4-1.2c-0.8-0.4,0.4-2.8,0.4-2.8l0.1-0.2
	c0.4-0.9,0.9-1.8,1.5-2.6c0.8-0.8,1.2-4,1.2-4c2.4-4,6.8,1.7,6.8,1.7s0.5,3,0.8,4.8C587.8,566.3,587.9,566.8,587.9,567z"/>
<path class="st4" d="M587.9,567c0,0.8-1.6,2.8-1.6,2.8c-3.2,0.4-6.4,0-9.4-1.2c-0.8-0.4,0.4-2.8,0.4-2.8l0.1-0.2
	c2.7,1.2,5.6,1.8,8.6,1.8l1.8-1.8C587.8,566.3,587.9,566.8,587.9,567z"/>
<circle class="st8" cx="557" cy="419.8" r="8.8"/>
<path class="st8" d="M549.9,437.5c-1.9,1.8-2.3,4.8-2.5,7.5l-0.3,3.9c-0.1,1.1-0.1,2.1-0.1,3.2c0,0.7,0.2,1.3,0.2,2s0.1,1.6,0.1,2.3
	v5.8c-0.1,1.2,0.1,2.4,0.6,3.5c0.6,1.1,1.9,1.6,3,1.1c0.6-0.5,1.1-1.2,1.2-1.9c1-2.3,1.6-4.8,2-7.3c0.1-0.9,0.1-1.7,0.2-2.6
	s0.2-1.8,0.4-2.7c0.6-3.7,0.8-7.4,1.1-11.1c0.1-1.1,1.1-5.4-0.4-5.9c-0.7-0.2-2.2,0.5-2.8,0.7C551.6,436.3,550.7,436.8,549.9,437.5z
	"/>
<path class="st4" d="M549.9,437.5c-1.9,1.8-2.3,4.8-2.5,7.5l-0.3,3.9c-0.1,1.1-0.1,2.1-0.1,3.2c0,0.7,0.2,1.3,0.2,2s0.1,1.6,0.1,2.3
	v5.8c-0.1,1.2,0.1,2.4,0.6,3.5c0.6,1.1,1.9,1.6,3,1.1c0.6-0.5,1.1-1.2,1.2-1.9c1-2.3,1.6-4.8,2-7.3c0.1-0.9,0.1-1.7,0.2-2.6
	s0.2-1.8,0.4-2.7c0.6-3.7,0.8-7.4,1.1-11.1c0.1-1.1,1.1-5.4-0.4-5.9c-0.7-0.2-2.2,0.5-2.8,0.7C551.6,436.3,550.7,436.8,549.9,437.5z
	"/>
<path class="st9" d="M568.2,425.5c0,0-6.7,5.1-10.6,6.3c0,0-2.3,2.7-2.7,3.3s-1.2,7.7-2,9.3s-2.8,5.1,0,8.6c0,0,0.8,3.5,0.4,4.7
	s-1.8,5.5-0.5,5.7s5.2,2.9,8.8,2.2s16.7,3,16.7,3s2.2-20.2,3.8-23.8l-3.5-1.2c0,0-9.8-5.9-3.9-14.9
	C574.5,428.7,569,427.5,568.2,425.5z"/>
<path class="st2" d="M543.8,449.2l8.1,5.8c0.2,0.2,0.5,0.2,0.7,0l2.2-1.7c0.3-0.2,0.3-0.6,0.1-0.9c0,0,0,0-0.1-0.1l-6.2-5.5
	c-0.2-0.2-0.4-0.2-0.6-0.1l-4,1.4c-0.3,0.1-0.5,0.5-0.4,0.8C543.7,449,543.7,449.1,543.8,449.2z"/>
<path class="st8" d="M546.6,466.5c-0.6-2-0.9-4.1-0.8-6.1l-0.1-2.8c-0.1-1.1,0-2.2,0.3-3.2c0.6-1.4,1.9-2.5,3.4-3
	c1.5-0.4,3.1-0.5,4.6-0.3c0.2,0,0.4,0.1,0.6,0.2c0.2,0.1,0.3,0.3,0.3,0.5c0.5,0.9,0.5,1.9,0.2,2.9c-0.2,0.4-0.5,0.7-0.9,1
	c-1.1,0.8-2.4,1.3-3.4,2.2c-0.2,0.1-0.4,0.3-0.5,0.6c0,0.2,0,0.4,0,0.6c0.1,0.6,0.3,1.1,0.5,1.6c0.1,0.3,0.2,0.5,0.5,0.7
	c0.2,0.2,0.4,0.2,0.6,0.4c0.4,0.3,1.3,0.8,1.3,1.4c-0.2,2-1.3,4.2-1.8,6.2C550.3,473.2,547.2,468.2,546.6,466.5z"/>
<g class="st1">
	<path d="M559.2,465.6H559c0.8,0.2,1.7,0.2,2.6,0h0.2C560.9,465.5,560.1,465.5,559.2,465.6z"/>
	<path d="M579.8,444.2c-1.4,3.2-3.5,20.3-3.9,23.8c1.4,0.4,2.3,0.6,2.3,0.6s2.2-20.2,3.7-23.8L579.8,444.2z"/>
</g>
<path class="st8" d="M575.4,439c0.1,0.8,0.6,1.5,1.3,2c0.8,0.7,1.6,1.5,2.3,2.3c1,1.4,1.8,2.9,2.3,4.5c0.8,2,1.4,4.1,1.9,6.2
	c-5,2.3-10.7,2.2-16,3.7c-2.3,0.6-4.4,1.8-6,3.5c-1.6,1.7-2.5,4.1-2.2,6.5c0,0.1,0,0.3,0.1,0.4c0.2,0.2,0.4,0.3,0.7,0.3
	c1.3,0,2.6-0.4,3.7-1.3c1-0.8,2-1.7,2.8-2.8c0.5-0.7,1.2-1.2,2-1.5c2.9-0.9,6-0.8,9-0.9c4.5-0.1,9-0.4,13.4-1.1
	c0.6,0.1,1.1-0.4,1.2-0.9c0-0.1,0-0.2,0-0.3c0.4-5.9-1.8-11.7-4-17.1c-0.9-2.2-1.8-4.4-2.8-6.5c-0.8-2.1-1.9-4.1-3.4-5.8
	c-0.6-0.6-1.2-1.1-2-1.5c-0.9-0.3-1.8-0.5-2.7-0.5c-1.5-0.2-2.9-0.2-4.4-0.1c-0.2,0.7-0.4,1.5-0.4,2.3c0.1,2.7,1.3,5.2,2.4,7.7
	C574.8,438.6,575.2,438.6,575.4,439z"/>
<path class="st12" d="M559.4,444c-0.7,1.2-1,2.5-1,3.8c0,0.5,0.1,1.1,0.2,1.6c0.6,1.4,1.7,2.5,3.2,3"/>
<path class="st2" d="M564.5,411.2c-0.5,0-1,0.1-1.5,0.2c-1.3-2-4.4-3.4-8-3.4c-4.8,0-8.7,2.5-8.7,5.5s3.9,5.5,8.7,5.5
	c1.8,0,3.6-0.4,5.2-1.1c1.1,2.3,3.9,3.3,6.3,2.2c2.3-1.1,3.3-3.9,2.2-6.3C567.9,412.2,566.3,411.2,564.5,411.2L564.5,411.2z"/>
<path class="st4" d="M564.9,419.4c-1.8,0-3.5-1-4.2-2.7c-1.6,0.7-3.4,1.1-5.2,1.1c-4.8,0-8.6-2.5-8.6-5.5c0-0.2,0-0.4,0-0.5
	c-0.3,0.5-0.4,1.1-0.4,1.7c0,3,3.9,5.5,8.7,5.5c1.8,0,3.6-0.4,5.2-1.1c1.1,2.3,3.9,3.3,6.3,2.2c1.3-0.6,2.3-1.9,2.6-3.4
	C568.3,418.4,566.7,419.4,564.9,419.4z"/>
<path class="st4" d="M545.2,411.4c2.7-5.6,8.9-8.5,15-7.2c6.6-4.1,15.4-2,19.5,4.6c1.2,1.9,1.9,4,2.1,6.3c0-0.4,0-0.8,0-1.2
	c0-7.8-6.4-14.1-14.2-14.1c-2.6,0-5.2,0.7-7.4,2.1c-6.1-1.4-12.3,1.6-15,7.2c-3.3,3.2-5.2,7.6-5.1,12.2c0,0.4,0,0.8,0,1.2
	C540.3,418.2,542.1,414.2,545.2,411.4z"/>
<path class="st6" d="M635.4,414.4c2.6-4.8-0.3-10.8-3.8-15.1s-7.5-8.8-7.5-14.3c0.1-7.9,8.5-12.5,15.2-16.7c5-3.1,9.5-6.8,13.6-11
	c1.7-1.6,3.1-3.5,4.2-5.6c1.4-3.1,1.3-6.6,1.3-10c-0.3-11.3-0.8-22.5-1.7-33.8"/>
<path class="st3" d="M669.5,307.3c-0.2-4.2-2.5-8-6.1-10.1l-2.8,5.5l0.1-6.6c-1.3-0.4-2.7-0.6-4-0.5c-6.8,0.3-12,6.1-11.7,12.9
	c0.3,6.8,6.1,12,12.9,11.7C664.6,319.9,669.8,314.1,669.5,307.3C669.5,307.3,669.5,307.3,669.5,307.3L669.5,307.3z"/>
<path class="st3" d="M647.6,390.6c-3.1,6-10.5,8.4-16.6,5.3s-8.4-10.5-5.3-16.6c3.1-6,10.5-8.4,16.6-5.3c2.7,1.4,4.8,3.8,5.9,6.7
	l-7.7,6.3l8.5-2C648.9,386.9,648.5,388.9,647.6,390.6z"/>
<path class="st3" d="M641.5,366.7c-6.8,0.3-12.6-4.9-12.9-11.7c-0.3-5.7,3.4-10.9,9-12.4l-0.1,5.1l2.8-5.5l0,0
	c6.8-0.3,12.6,4.9,12.9,11.7C653.5,360.6,648.3,366.4,641.5,366.7C641.5,366.7,641.5,366.7,641.5,366.7L641.5,366.7z"/>
<path class="st3" d="M671.4,346.8c-6.8,0.3-12.6-4.9-12.9-11.7s4.9-12.6,11.7-12.9c2.3-0.1,4.7,0.4,6.7,1.6l-2.2,6l4.5-4.3
	c2.4,2.2,3.9,5.2,4,8.5c0.1,1.1,0,2.3-0.3,3.4C681.5,342.8,676.9,346.6,671.4,346.8z"/>
<path class="st4" d="M667.9,310.6c-2.8,0.3-5.6,1.2-8.5,1.4s-6-0.5-7.8-2.7c-0.8-1.3-1.6-2.6-2.3-4c-0.8-1.2-1.8-2.2-3.1-2.9
	c-3.1,6.1-0.7,13.5,5.4,16.6c6.1,3.1,13.5,0.7,16.6-5.4c0.5-1,0.9-2,1.1-3C668.8,310.5,668.3,310.5,667.9,310.6z"/>
<path class="st4" d="M671.4,346.8c-6.8,0.3-12.6-4.9-12.9-11.7c-0.1-2,0.3-4,1.2-5.8c1,0.7,1.8,1.5,2.5,2.5c0.7,1.4,1.5,2.8,2.4,4.1
	c1.9,2.3,5.2,3,8.2,2.9s5.8-1,8.8-1.2c0.4,0,0.8-0.1,1.2-0.1C681.5,342.7,676.9,346.6,671.4,346.8z"/>
<path class="st4" d="M641.5,366.7c-6.8,0.3-12.6-4.9-12.9-11.7c-0.1-1.9,0.3-3.9,1.1-5.7c1,0.7,1.9,1.5,2.6,2.5
	c1,1.3,1.5,2.9,2.7,4.2c2.1,2.3,5.6,3.1,8.7,3.1s6-0.8,9-1C651.2,363,646.7,366.5,641.5,366.7z"/>
<path class="st4" d="M647.6,390.6c-3.2,6-10.7,8.3-16.7,5.1c-5.4-2.9-7.9-9.3-5.8-15.1c1,0.7,1.9,1.5,2.7,2.4c1.2,1.4,2,3,3.3,4.4
	c2.5,2.5,6.6,3.5,10.2,3.6C643.4,391,645.5,390.9,647.6,390.6z"/>
<linearGradient id="SVGID_4_" gradientUnits="userSpaceOnUse" x1="261.9709" y1="-84.6928" x2="261.9709" y2="16.2972" gradientTransform="matrix(1 0 0 -1 -52 413.37)">
	<stop  offset="0" style="stop-color:#808080;stop-opacity:0.25"/>
	<stop  offset="0.54" style="stop-color:#808080;stop-opacity:0.12"/>
	<stop  offset="1" style="stop-color:#808080;stop-opacity:0.1"/>
</linearGradient>
<path class="st13" d="M277,425.3c0-3.1-1.4-6-3.9-7.9c0-5.6-4.1-10.4-9.6-11.3c-0.8-4-3.8-7.3-7.6-8.5l0,0c-0.5-0.1-0.9-0.3-1.4-0.3
	h-0.1H254h-0.2h-0.2h-0.3h-0.6c-5.5,0.1-10.1,4.2-10.9,9.6c-3.5-0.8-6.7,0.2-7.3,2.5c-0.1,0.6-0.1,1.2,0.1,1.8
	c0.6,1.7,2.5,3.4,5.2,4.2l0.3,0.1l0.5,0.1h0.1l0,0c-0.6,1.2-0.8,2.5-0.8,3.8c0,3.3,1.8,6.3,4.7,7.8l-0.2,0.1
	c-0.3,0.3-0.6,0.7-0.8,1.1c-0.6,1.1-1.1,2.3-1.5,3.5c-0.2,1.1-0.3,2.2-0.6,3.2c-0.6,1.9-2.1,3.6-2.2,5.6c-0.1,0.9,0.1,2-0.6,2.6
	c-0.2,0.1-0.3,0.3-0.5,0.4c-0.4,0.3-0.8,0.7-1.1,1.2c-0.2,0.4-0.5,0.8-0.8,1.1c-0.6,0.4-1.5,0.4-1.8,1.1s0.5,1.5,0.3,2.2
	s-0.8,0.9-1.2,1.3c-0.5,0.6-0.9,1.3-1.1,2c-1.9,0.4-3.9-0.1-5.4-1.4c0.3,0.6,0.4,1.3,0.6,2c-0.9-0.7-1.9-1.2-2.9-1.5
	c-1.2-0.5-2.2-1.3-3.1-2.3l1.7-0.2l-7.3-11.2l-2.2-0.5l1.9,3.7c-0.3,0.1-0.6,0.4-0.7,0.8c-0.1,0.4-0.1,0.8-0.1,1.3
	c0.1,1,0.3,2,0.5,3l0.6,2.6c0,0.2,0.1,0.5,0.2,0.7c-0.7,0-1.5,0-2.2,0.2c-1.5-0.5-3-0.9-4.5-1.1c-0.3-0.1-0.7-0.1-1,0
	c-0.4,0.2-0.7,0.4-1,0.8c-1.3,1.5-2.4,3-3.4,4.7c-4,6.9-9.2,12.8-14.1,19c-3.4,1.4-6.8,2.7-10.3,4l-7.4,2.8c-1.4,0.7-3,1-4.6,1
	c-0.7,0-1.6-0.2-2,0.5c-0.2,0.3-0.3,0.6-0.5,1l-0.8,0.1l0,0c-0.3-1.2-1-2.3-1.8-3.3c-0.4,0.1-0.7,0.3-0.8,0.6
	c-0.2,0.3-0.3,0.7-0.5,1c-0.4,0.6-1.1,0.9-1.6,1.3s-0.8,1.2-1.3,1.8c-0.7,0.5-1.6,0.9-2.5,1c-1.4,0.3-2.7,0.8-3.9,1.5
	c-0.5,0.3-0.9,0.5-1.5,0.7c-0.6,0.1-1.1,0.1-1.7,0.1l-3.9-0.3c-0.4,0-0.7,0-1,0c-0.8,0.3-1.3,1.1-1.2,2c0.1,0.9,0.5,1.6,1.2,2.2
	c0.7,0.5,1.4,0.9,2.2,1.2c3.4,1.3,6.9,2.3,10.4,3.1v0.8c2.5,1.3,5.2,1.9,8,1.9c0.2,0,0.4,0,0.6-0.1c0.3-0.2,0.4-0.5,0.5-0.8
	c0.8-2.5,1.4-5.1,1.6-7.7l0,0c0.5,0,1-0.2,1.4-0.4c1.3-0.4,2.7,0.5,4.1,0.7c1.7,0.2,3.3-0.8,4.9-1.4l0.7-0.2c-0.5,0.6-1,1.1-1.6,1.5
	c-0.7,0.5-1.4,0.8-2.1,1.3c-0.6,0.5-1.1,1-1.8,1.4c-0.4,0.2-0.9,0.4-1.4,0.5c-0.7,0.3-1.3,0.6-1.9,1c-0.5,0.3-1,0.8-1.3,1.3
	c-0.3,0.5-0.4,1.2-0.1,1.8c0.3,0.5,0.8,0.8,1.3,0.9c0.5,0.1,1.1,0.1,1.6,0c2.1-0.2,4.2-0.3,6.3-0.5c0.9-0.1,1.8-0.2,2.6-0.4
	c0.5-0.1,0.9-0.3,1.4-0.4c0.8-0.2,1.6-0.3,2.4-0.4c0.2,0,0.5,0,0.7,0.1c0.5,0.2,0.8,0.7,1.3,0.8c0.3,0,0.7,0,1-0.1
	c1.5-0.3,3.1-0.5,4.7-0.5c0.7,0,1.5-0.2,1.8-0.8s-0.3-1.7-0.5-2.5c-0.1-0.5-0.2-1.1-0.2-1.7c-0.1-1.4-0.5-2.7-1.2-3.9
	c-0.3-0.6-0.6-1.2-0.9-1.8c3-1.1,5.9-2.6,8.6-4.4c1.5-1.1,3.2-1.9,4.9-2.4c2.1-0.2,4.2,0,6.2,0.7c4.8,1.4,9.5,3,14.2,4.9
	c2.2,0.9,4.4,1.9,6.7,2.6c0.7,0.9,1.5,1.7,2.4,2.3c1.6,0.9,3.3,1.4,5.1,1.4c2.4,0.2,4.8,0.3,7.2,0.3c1.9,0.1,3.7-0.3,5.4-1
	c0.4-0.2,0.8-0.5,1.1-0.8c1.3,0.1,2.6-0.4,3.6-1.3c1.3-1.1,2.3-2.6,2.7-4.3c0.6-2.3,0.1-5,1.5-6.8c0.4-0.5,0.9-0.9,1.2-1.4
	c0.4-0.7,0.7-1.5,0.6-2.3c0,0,0-0.1,0.1-0.1c0.3-0.7,0.5-1.5,0.6-2.3c0.2-0.6,0.4-1.2,0.7-1.8c0.7-1.8,1.3-3.6,1.9-5.4
	c0.4-1.2,0.6-2.5,0.9-3.7c0.2-1,0.2-2,0.3-3c0.1-1.6,0.4-3.1,0.9-4.6c1.3-3.6,2-7.3,2.1-11.1v-0.2c3.8-0.4,6.7-3.7,6.6-7.6
	c0-1.1-0.2-2.2-0.7-3.2C276.6,428.8,277,427,277,425.3z M241.2,468.8c0.1,0.4,0.2,0.8,0.4,1.2c-0.6-0.6-1.2-1.2-1.8-1.7
	c0.2,0.1,0.5,0.2,0.7,0.2C240.8,468.5,241,468.6,241.2,468.8L241.2,468.8z M238.4,466.8c-3.5-3-7.5-5.3-11-8.2
	c1.9,1,3.8,2.1,5.7,3.1c2.2,1.3,4.4,2.5,6.7,3.6C239.4,465.9,238.9,466.4,238.4,466.8L238.4,466.8z M239.9,459.3l0.2-0.2
	c0,0.4,0,0.8,0,1.2l-0.9-0.3C239.4,459.8,239.6,459.5,239.9,459.3L239.9,459.3z M209.4,467.4c1.4-1.6,2.7-3.4,3.7-5.2
	c1.4,2.4,3.6,4.1,5.5,6.1C215.6,467.9,212.5,467.5,209.4,467.4z"/>
<polygon class="st14" points="214.4,438.2 216.5,438.7 224,449.7 220.7,450.1 "/>
<path class="st15" d="M161.5,482.8c0.6,1.9,1.3,3.8,2.2,5.7c2.5-0.5,4.9-1.2,7.2-2.1c-0.5-0.7-1-1.4-1.5-2c-0.6-0.6-1.3-1.2-2-1.6
	c-0.8-0.2-1.7-0.2-2.5,0C163.8,482.8,162.6,482.8,161.5,482.8z"/>
<path class="st14" d="M167.4,485.8c-1.2-0.5-2.1-1.6-2.5-2.8c-0.4-1.2-1-2.4-1.9-3.4c-0.4,0.1-0.7,0.3-0.8,0.6
	c-0.2,0.3-0.3,0.7-0.5,1c-0.4,0.6-1.1,0.8-1.6,1.3s-0.8,1.2-1.3,1.7c-0.7,0.5-1.6,0.9-2.5,1c-1.4,0.3-2.7,0.8-4,1.5
	c-0.5,0.3-1,0.5-1.5,0.7c-0.6,0.1-1.1,0.1-1.7,0l-3.9-0.3c-0.3-0.1-0.7-0.1-1,0c-0.8,0.3-1.3,1.1-1.2,2c0.1,0.9,0.5,1.6,1.2,2.1
	c0.7,0.5,1.4,0.9,2.2,1.1c3.4,1.3,7,2.3,10.6,3v0.8c2.5,1.2,5.3,1.9,8,1.9c0.2,0,0.4,0,0.6-0.1c0.3-0.2,0.4-0.5,0.5-0.8
	c0.9-2.8,1.5-5.6,1.6-8.6c0.1-0.7,0-1.5-0.2-2.2C167.3,485.6,168,485.9,167.4,485.8"/>
<path class="st14" d="M242.9,470.9c-11.7,0.7-23.2-2.7-34.9-3.1c-1.5-0.1-2.9,0-4.3,0.3c-1.5,0.4-2.9,1-4.3,1.7
	c-6.3,2.9-12.8,5.3-19.2,7.8l-7.5,2.8c-1.4,0.7-3,1-4.6,1c-0.7,0-1.6-0.2-2,0.4c-1.2,1.8-0.6,4.4,0.2,6.5c0.3,0.7,0.7,1.4,1.4,1.4
	c0.5,0,1-0.2,1.4-0.4c1.4-0.4,2.7,0.5,4.1,0.7c1.7,0.2,3.3-0.8,5-1.4c2.7-1,5.6-1,8.5-1.4c4.8-0.8,9.2-3,13.3-5.5
	c1.5-1.1,3.2-1.9,5-2.3c2.1-0.2,4.2,0,6.2,0.7c4.8,1.4,9.6,3,14.3,4.9c2.4,1.1,4.9,2,7.5,2.7c5.5,1.4,11.4,1.1,16.7-1
	c1.9-0.7,3.9-2,4-4.1c0.1-1.2-0.8-2.2-1.4-3.2c-0.4-0.6-0.8-1.3-1.2-1.9C248.9,474.6,246.5,470.7,242.9,470.9z"/>
<path class="st4" d="M242.9,470.9c-11.7,0.7-23.2-2.7-34.9-3.1c-1.5-0.1-2.9,0-4.3,0.3c-1.5,0.4-2.9,1-4.3,1.7
	c-6.3,2.9-12.8,5.3-19.2,7.8l-7.5,2.8c-1.4,0.7-3,1-4.6,1c-0.7,0-1.6-0.2-2,0.4c-1.2,1.8-0.6,4.4,0.2,6.5c0.3,0.7,0.7,1.4,1.4,1.4
	c0.5,0,1-0.2,1.4-0.4c1.4-0.4,2.7,0.5,4.1,0.7c1.7,0.2,3.3-0.8,5-1.4c2.7-1,5.6-1,8.5-1.4c4.8-0.8,9.2-3,13.3-5.5
	c1.5-1.1,3.2-1.9,5-2.3c2.1-0.2,4.2,0,6.2,0.7c4.8,1.4,9.6,3,14.3,4.9c2.4,1.1,4.9,2,7.5,2.7c5.5,1.4,11.4,1.1,16.7-1
	c1.9-0.7,3.9-2,4-4.1c0.1-1.2-0.8-2.2-1.4-3.2c-0.4-0.6-0.8-1.3-1.2-1.9C248.9,474.6,246.5,470.7,242.9,470.9z"/>
<path class="st15" d="M183.9,483.4c1.8,0.6,3.7,1.2,5.5,1.7c1-1.7,3-2.9,3.4-4.9c0-0.1,0-0.2,0-0.3c0-0.1-0.1-0.1-0.2-0.2
	c-1.3-0.7-2.8-1.2-4.3-1.3c-1.2-0.1-1.8,1.2-2.3,2.1C185.8,481,184.4,483.6,183.9,483.4z"/>
<path class="st14" d="M186.5,482.2c-1.1-0.2-2.1-0.8-2.7-1.8c-0.2-0.5-0.5-1.1-1-1s-0.7,0.6-0.8,1.1c-0.3,1.8-0.9,3.5-1.5,5.2
	c-0.7,1.7-1.8,3.2-3.2,4.2c-0.7,0.5-1.4,0.8-2.1,1.3c-0.6,0.5-1.1,0.9-1.8,1.3c-0.4,0.2-0.9,0.4-1.4,0.5c-0.7,0.3-1.3,0.6-1.9,1
	c-0.5,0.3-1,0.7-1.3,1.3c-0.3,0.5-0.4,1.2-0.1,1.8c0.3,0.5,0.8,0.8,1.3,0.9c0.5,0.1,1.1,0.1,1.6,0c2.1-0.2,4.3-0.3,6.4-0.5
	c0.9-0.1,1.8-0.2,2.7-0.4l1.4-0.4c0.8-0.2,1.6-0.3,2.4-0.4c0.2,0,0.5,0,0.7,0.1c0.5,0.2,0.8,0.7,1.4,0.8c0.3,0,0.7,0,1-0.1
	c1.6-0.3,3.1-0.5,4.7-0.5c0.7,0,1.5-0.2,1.8-0.8c0.4-0.8-0.3-1.7-0.5-2.5c-0.1-0.5-0.2-1.1-0.2-1.6c-0.1-1.4-0.5-2.7-1.2-3.9
	c-0.5-1-1.3-2.1-0.9-3.2c0.2-0.3,0.3-0.7,0.4-1.1C191.4,481.8,187.5,482.4,186.5,482.2z"/>
<path class="st15" d="M225.4,452.2c-2.1-0.9-3.7-2.6-4.7-4.6c-0.2-0.4-0.4-0.9-0.5-1.3c-0.6-1.5-1.6-2.8-2.8-3.9
	c-0.3-0.3-0.6-0.4-1-0.4c-0.4,0.1-0.7,0.4-0.8,0.8c-0.1,0.4-0.1,0.8-0.1,1.2c0.1,1,0.3,2,0.5,2.9l0.6,2.6c0.1,0.4,0.2,0.8,0.4,1.2
	c0.2,0.4,0.6,0.8,1,1.1c0.5,0.5,1,0.9,1.6,1.4c0.3,0.3,0.6,0.5,1,0.7c0.6,0.3,1.2,0.4,1.8,0.5c2.4,0.3,4.7,1.2,6.6,2.6
	c0,0,0-1.7,0-1.9c0-0.5-0.2-1-0.5-1.4C227.6,452.9,226.5,452.4,225.4,452.2z"/>
<path class="st4" d="M225.4,452.2c-2.1-0.9-3.7-2.6-4.7-4.6c-0.2-0.4-0.4-0.9-0.5-1.3c-0.6-1.5-1.6-2.8-2.8-3.9
	c-0.3-0.3-0.6-0.4-1-0.4c-0.4,0.1-0.7,0.4-0.8,0.8c-0.1,0.4-0.1,0.8-0.1,1.2c0.1,1,0.3,2,0.5,2.9l0.6,2.6c0.1,0.4,0.2,0.8,0.4,1.2
	c0.2,0.4,0.6,0.8,1,1.1c0.5,0.5,1,0.9,1.6,1.4c0.3,0.3,0.6,0.5,1,0.7c0.6,0.3,1.2,0.4,1.8,0.5c2.4,0.3,4.7,1.2,6.6,2.6
	c0,0,0-1.7,0-1.9c0-0.5-0.2-1-0.5-1.4C227.6,452.9,226.5,452.4,225.4,452.2z"/>
<ellipse class="st14" cx="249.2" cy="429.6" rx="2.8" ry="2.9"/>
<path class="st14" d="M247.4,427.8c-0.8-0.2-1.6-0.1-2.2,0.3c-0.3,0.3-0.6,0.6-0.8,1c-0.6,1.1-1.1,2.3-1.5,3.5
	c-0.2,1-0.3,2.1-0.6,3.2c-0.6,1.9-2.1,3.5-2.2,5.5c-0.1,0.9,0.1,1.9-0.6,2.5c-0.2,0.1-0.3,0.3-0.5,0.4c-0.5,0.3-0.8,0.7-1.1,1.2
	c-0.2,0.4-0.5,0.8-0.8,1.1c-0.6,0.4-1.5,0.4-1.8,1s0.5,1.4,0.3,2.2s-0.8,0.9-1.2,1.3c-0.5,0.6-0.9,1.2-1.1,2
	c-1.9,0.4-3.9-0.1-5.4-1.3c0.7,2,0.9,4.1,0.9,6.2c0.1,0.7-0.1,1.4-0.5,1.9c2.3,0.2,4.5,0.6,6.7,1.2c0.9,0.3,2,0.3,2.9,0
	c0.5-0.3,1-0.6,1.3-1.1c1.2-1.2,2.5-2.5,2.8-4.2c0.1-1,0.1-1.9,0-2.9c0.1-1.2,0.4-2.4,0.7-3.5c0.6-2.4,1.1-4.8,1.3-7.2
	c0.1-1.5,1.4-2.7,2.1-4c1.3-2.5,2.6-5.2,2.7-8C248.7,429.1,248.4,428,247.4,427.8z"/>
<path class="st4" d="M247.4,427.8c-0.8-0.2-1.6-0.1-2.2,0.3c-0.3,0.3-0.6,0.6-0.8,1c-0.6,1.1-1.1,2.3-1.5,3.5
	c-0.2,1-0.3,2.1-0.6,3.2c-0.6,1.9-2.1,3.5-2.2,5.5c-0.1,0.9,0.1,1.9-0.6,2.5c-0.2,0.1-0.3,0.3-0.5,0.4c-0.5,0.3-0.8,0.7-1.1,1.2
	c-0.2,0.4-0.5,0.8-0.8,1.1c-0.6,0.4-1.5,0.4-1.8,1s0.5,1.4,0.3,2.2s-0.8,0.9-1.2,1.3c-0.5,0.6-0.9,1.2-1.1,2
	c-1.9,0.4-3.9-0.1-5.4-1.3c0.7,2,0.9,4.1,0.9,6.2c0.1,0.7-0.1,1.4-0.5,1.9c2.3,0.2,4.5,0.6,6.7,1.2c0.9,0.3,2,0.3,2.9,0
	c0.5-0.3,1-0.6,1.3-1.1c1.2-1.2,2.5-2.5,2.8-4.2c0.1-1,0.1-1.9,0-2.9c0.1-1.2,0.4-2.4,0.7-3.5c0.6-2.4,1.1-4.8,1.3-7.2
	c0.1-1.5,1.4-2.7,2.1-4c1.3-2.5,2.6-5.2,2.7-8C248.7,429.1,248.4,428,247.4,427.8z"/>
<path class="st14" d="M244.8,473.4c-2.4-1.2-4.2-3.3-6.2-5.2c-3.8-3.5-8.3-6-12.3-9.3c-2.6-2.2-5-4.7-7.8-6.6
	c-2.5-1.6-5.4-2.6-8.4-2.9c-0.3-0.1-0.7-0.1-1,0c-0.4,0.2-0.7,0.4-1,0.8c-1.3,1.4-2.4,3-3.4,4.7c-5,8.5-12.1,15.6-18,23.5
	c-0.1,0.2-0.2,0.4-0.3,0.6c0,0.3,0.1,0.6,0.2,0.9l1.2,2.3c0.7,1.3,1.8,2.8,3.2,2.6c0.6-0.2,1.2-0.6,1.7-1.1l5.4-5.2l5.6-5.4
	c3.3-3.2,6.7-6.4,8.8-10.4c1.7,2.9,4.7,4.8,6.7,7.5c0.8,1,1.4,2.1,2.1,3.2c1.1,1.7,2.4,3.3,3.6,5l6.5,8.2c0.8,1.2,1.8,2.2,3,3
	c1.6,0.9,3.4,1.3,5.2,1.4c2.4,0.2,4.9,0.3,7.3,0.3c1.9,0.1,3.7-0.3,5.5-1c1.7-0.8,2.9-2.5,3-4.4c-0.1-1-0.4-1.9-0.9-2.7
	C252.2,479,249.1,475.4,244.8,473.4z"/>
<ellipse class="st16" cx="251" cy="431.5" rx="2.2" ry="2.2"/>
<path class="st15" d="M250.5,429.9c0.5,1,0.6,2.1,0.2,3.2c-0.3,1-0.8,2-1.4,2.9c-0.5,0.9-1.1,1.8-1.8,2.6c3.4,0.2,6.6-1.2,9.6-2.8
	c2.4-1.3,4.8-2.9,6.1-5.3c-0.8,0.2-1.6,0-2.2-0.4c-0.6-0.4-1.2-1-1.7-1.6l-1.7-1.9c-0.4-0.4-0.7-0.9-1-1.4c-0.4-0.7-0.5-1.4-0.5-2.2
	c-0.7,0.7-1.4,1.3-2.2,1.9c-1.2,0.8-2.5,1.4-3.8,2.1c-0.4,0.3-1.4,0.7-1.1,1.3S250.1,429.3,250.5,429.9z"/>
<path class="st4" d="M250.5,429.9c0.5,1,0.6,2.1,0.2,3.2c-0.3,1-0.8,2-1.4,2.9c-0.5,0.9-1.1,1.8-1.8,2.6c3.4,0.2,6.6-1.2,9.6-2.8
	c2.4-1.3,4.8-2.9,6.1-5.3c-0.8,0.2-1.6,0-2.2-0.4c-0.6-0.4-1.2-1-1.7-1.6l-1.7-1.9c-0.4-0.4-0.7-0.9-1-1.4c-0.4-0.7-0.5-1.4-0.5-2.2
	c-0.7,0.7-1.4,1.3-2.2,1.9c-1.2,0.8-2.5,1.4-3.8,2.1c-0.4,0.3-1.4,0.7-1.1,1.3S250.1,429.3,250.5,429.9z"/>
<path class="st16" d="M250.5,430.2c-0.7,1-0.7,2.3,0,3.3c0.1,0.1,0.5,0.9,0.6,0.9c0.1,0,0.3-0.1,0.4-0.2c0.8-0.8,1.5-1.7,2.1-2.5
	c0.7-0.9,1.6-1.5,2.7-1.8c1.3-0.1,2.7,0.4,3.7,1.2c0.5,0.2,0.9,0.6,1.3,1c0.2,0.4,0.4,0.9,0.4,1.4c0.3,3,0.5,6.1,0.4,9.1
	c0.1,2.2-0.1,4.4-0.4,6.5c-0.2,1.1-0.5,2.2-0.7,3.3c-0.1,1-0.2,2-0.1,3v4.2c0,0.8,0,1.5,0.2,2.3c0.2,0.9,0.6,1.8,0.9,2.7
	c0.3,1,0.5,2.1,0.6,3.1l0.6,4.3c0.2,1.4,0.3,2.8-0.5,4c-0.4,0.5-0.9,0.9-1.2,1.4c-1.4,1.8-1,4.5-1.5,6.7c-0.5,1.6-1.4,3.1-2.7,4.2
	c-1,0.9-2.3,1.4-3.6,1.3c-1.8-0.3-2.8-2.2-3.3-3.9s-0.6-3.6-1.7-5.1c-1-1.1-2.1-2-3.3-2.8c-1.3-0.8-2.2-2-2.6-3.4
	c-0.1-0.6,0-1.3-0.1-1.9c-0.2-1.6-1.3-3-2.8-3.7c-0.9-0.3-2-0.5-2.5-1.3c1.3-0.8,2.2-2.1,2.6-3.5c0.4-1.5,0.6-3,0.6-4.5l0.3-5
	c0.1-2.2,0.2-4.5,1.2-6.5c0.4-0.9,1-1.8,1.5-2.6c0.6-1.3,1.1-2.5,1.5-3.9c0.7-2.1,1.4-4.1,2.1-6.2c0.2-1,0.6-2,1.1-2.9
	C248.7,431.6,249.5,430.4,250.5,430.2z"/>
<path class="st14" d="M239.4,462.9h1.3l0.3-2c0-0.4,0.1-0.8,0.3-1.2c0.2-0.4,0.5-0.8,0.8-1.1c1.3-1.8,1.2-4.3,1.5-6.5
	c0.6-3,1.6-5.9,2.9-8.6l2.6-5.8c0.2-0.5,0.4-1,0.6-1.5c0.1-0.6,0.2-1.1,0.2-1.7c0-0.9,0.3-4.1,0.3-5c0-0.3-0.7-0.2-0.9-0.4
	c-0.3-0.6-0.8,1.1-1.4,1.5c-0.6,0.4-1,1-1.2,1.7c-0.6,1.4-0.9,3-1.4,4.4c-0.5,1.5-1.3,2.8-2.4,3.9c-0.5,0.5-1.1,0.8-1.6,1.3
	c-1.6,1.6-1.8,4.1-1.8,6.3C239.3,449.7,239.1,462.9,239.4,462.9z"/>
<path class="st14" d="M258.5,427.8c-1.3,0.7-2.1,1.9-2.4,3.2c-0.2,1.4-0.6,2.7-1.2,4c-1.6,2.8-5.8,3.6-6.9,6.7
	c-0.3,1-0.4,2.1-0.5,3.2c-0.2,2.2-0.9,4.3-1.1,6.5c-0.1,1.7-0.1,3.4,0.1,5.1l1.5,17.2c0.3,2.5,0.1,5.1-0.4,7.6c1.5,0.2,3,0,4.3-0.7
	c1.4-0.6,2.6-1.5,3.9-2.2c2.2-1.2,4.7-2.1,6.7-3.8c0.4-0.3,0.7-0.6,0.9-1c0.3-0.7,0.5-1.5,0.6-2.3c0.2-0.6,0.4-1.2,0.7-1.8
	c0.7-1.7,1.3-3.5,1.9-5.3c0.4-1.2,0.6-2.4,0.9-3.6c0.2-1,0.2-2,0.3-3c0.1-1.6,0.4-3.1,0.9-4.5c1.3-3.5,2-7.2,2.1-10.9
	c0-0.5,0-1.1-0.1-1.6c-0.2-0.6-0.5-1.3-0.9-1.8c-0.6-1.1-1-2.4-1.5-3.5c-1.4-2.5-3.5-4.7-5.9-6.2
	C261.2,428.2,259.8,427.4,258.5,427.8z"/>
<path class="st15" d="M228.3,455.9c-1-0.5-2-1.2-2.8-2.1c-0.4-0.4-0.7-0.9-1-1.3c-0.9-1-2.1-1.7-3.5-2c-1.3-0.3-2.7-0.4-4-0.4
	c-0.9-0.1-1.8,0-2.7,0.3c-0.9,0.3-1.5,1-1.8,1.9c-0.1,1.1,0.4,2.2,1.4,2.8c0.8,0.6,1.7,1.1,2.7,1.3c0.8,0.1,1.6,0.2,2.4,0.3
	c4.8,0.5,9,3.1,13.2,5.5c3.7,2.1,7.4,4,11.3,5.8c0.1-1.1,0.2-2.3,0.2-3.5c0-0.9-0.1-2.2-0.9-2.7c-1.2-0.5-2.4-0.8-3.6-1.1
	c-2.5-0.8-4.9-1.8-7.2-2.9C230.8,457.4,229.5,456.7,228.3,455.9z"/>
<ellipse class="st15" cx="249.2" cy="420.4" rx="8.5" ry="8.6"/>
<path class="st14" d="M260.9,437.5c-0.7,1-1.2,2-1.7,3.1c-1,2.2-2.7,4-3.5,6.3s-0.8,5.2-2.5,7.1c-0.3,0.3-0.6,0.7-0.8,1.1
	c0,0.3,0,0.5-0.1,0.8c-0.2,0.7-1.4,0.7-1.6,1.4c-0.1,0.2,0,0.4-0.1,0.6c-0.2,0.5-0.8,0.5-1.2,0.8c-0.8,0.6-0.7,1.9-1.2,2.7
	c-0.5,0.6-1.3,0.9-2.1,0.8c-0.8-0.2-1.5-0.4-2.2-0.8c-0.2-0.1-0.5-0.2-0.8-0.2c-0.3,0-0.7,0.1-0.9,0.3c-1.5,1.1-2.4,2.9-2.3,4.8
	c0.1,1.9,0.6,3.7,1.3,5.4c0.1,0.3,0.2,0.6,0.4,0.8c0.6,0.5,1.4,0.5,2.1,0.2c0.7-0.4,1.3-0.7,2.1-0.9c1.3-0.2,2.6,0.7,4,0.6
	c1-0.1,1.9-0.5,2.7-1.2c1.3-0.8,2.6-1.8,3.6-3c0.6-0.8,1-1.6,1.5-2.5c0.7-1,1.4-2,2.1-2.9l4.9-6c0.5-0.6,0.9-1.2,1.3-1.8
	c0.4-0.9,0.8-1.8,1-2.8c0.5-1.6,0.9-3.2,1-4.9c0-1.4-0.1-2.8-0.4-4.1c-0.1-1.3-0.5-2.7-1-3.9C265.5,437,262.9,435.2,260.9,437.5z"/>
<path class="st17" d="M278.1,426.4c0-3.1-1.5-6-3.9-7.8c-0.1-5.6-4.2-10.3-9.7-11.1c-1.2-6-7-9.9-13-8.7c-4.6,0.9-8.1,4.6-8.8,9.3
	c-3.5-0.8-6.8,0.2-7.4,2.4s1.9,5,5.6,6c1.2,0.3,2.4,0.5,3.6,0.4c1.8,2.6,4.5,4.3,7.6,4.8c0.9,4.2,4.1,7.5,8.3,8.6
	c0.6,1.4,1.4,2.6,2.6,3.5c0,0.3,0,0.5,0,0.8c0,4,3.2,7.2,7.2,7.2c4,0,7.2-3.2,7.2-7.2c0,0,0,0,0,0c0-1.1-0.2-2.2-0.7-3.2
	C277.6,429.8,278.1,428.1,278.1,426.4z"/>
<path class="st4" d="M237.6,410.9c0.6-2.2,3.8-3.2,7.4-2.4c0.9-5.4,5.5-9.4,11-9.5h0.7c-1-0.3-2.1-0.5-3.1-0.5
	c-5.5,0.1-10.1,4.1-11,9.5c-3.5-0.8-6.8,0.2-7.4,2.4s1.9,5,5.6,6c0.7,0.2,1.4,0.3,2.1,0.4C239.4,415.8,237.1,413.2,237.6,410.9z"/>
<path class="st4" d="M265.4,435c0-0.3,0-0.5,0-0.8c-1.1-1-2-2.2-2.6-3.5c-4.2-1-7.4-4.4-8.3-8.6c-3.1-0.4-5.9-2.2-7.6-4.7
	c-0.7,0.1-1.4,0-2.1-0.1c1.8,2.4,4.4,4,7.4,4.4c0.9,4.2,4.1,7.5,8.3,8.6c0.6,1.4,1.4,2.6,2.6,3.5c0,0.3,0,0.5,0,0.8
	c-0.1,4,3.1,7.4,7.2,7.5C267.2,440.9,265.3,438.1,265.4,435z"/>
<ellipse transform="matrix(0.7963 -0.6049 0.6049 0.7963 -203.9807 238.4379)" class="st15" cx="252.1" cy="422.1" rx="1.3" ry="1.8"/>
</svg>
