<?xml version="1.0" encoding="utf-8"?>
<!-- Generator: Adobe Illustrator 24.1.0, SVG Export Plug-In . SVG Version: 6.00 Build 0)  -->
<svg version="1.1" id="ed15083a-efbd-40a8-bcf0-5dc6fb1adb49"
	 xmlns="http://www.w3.org/2000/svg" xmlns:xlink="http://www.w3.org/1999/xlink" x="0px" y="0px" viewBox="0 0 764 573"
	 style="enable-background:new 0 0 764 573;" xml:space="preserve">
<style type="text/css">
	.st0{fill:none;}
	.st1{opacity:0.1;}
	.st2{fill:#3F3D56;}
	.st3{fill:#6C63FF;}
	.st4{opacity:0.1;enable-background:new    ;}
	.st5{opacity:0.1;fill:#6C63FF;enable-background:new    ;}
	.st6{fill:none;stroke:#3F3D56;stroke-width:4;stroke-miterlimit:10;}
	.st7{fill:url(#SVGID_1_);}
	.st8{fill:#BE6F72;}
	.st9{fill:#FF6F61;}
	.st10{fill:url(#SVGID_4_);}
	.st11{fill:url(#SVGID_5_);}
	.st12{opacity:0.1;fill:none;stroke:#000000;stroke-miterlimit:10;enable-background:new    ;}
	.st13{fill:url(#SVGID_6_);}
	.st14{fill:#2F2E41;}
	.st15{fill:#FBBEBE;}
	.st16{fill:#E8E8F0;}
	.st17{fill:#F86D70;}
</style>
<pattern  x="-47" y="573" width="36.9" height="49.5" patternUnits="userSpaceOnUse" id="SVGID_2_" viewBox="0 -49.5 36.9 49.5" style="overflow:visible;">
	<g>
		<rect y="-49.5" class="st0" width="36.9" height="49.5"/>
		<g>
			<rect y="-49.5" class="st0" width="36.9" height="49.5"/>
			<rect y="-49.5" class="st0" width="36.9" height="49.5"/>
			<path d="M4.3-36.3c4.5,0,4.5-7,0-7S-0.2-36.3,4.3-36.3z"/>
			<path d="M4.5-32.3c4.5,0,4.5-7,0-7S0-32.3,4.5-32.3z"/>
			<path d="M4.5-28.6c4.5,0,4.5-7,0-7S0-28.6,4.5-28.6z"/>
			<path d="M3.4-24.8c4.5,0,4.5-7,0-7S-1.1-24.8,3.4-24.8z"/>
			<path d="M1.1-21.2l0.2,0.4c1,1.7,3.1,2.2,4.8,1.2c1.6-1,2.2-3.1,1.3-4.8l-0.2-0.4c-1-1.7-3.1-2.2-4.8-1.3
				C0.7-25,0.2-22.9,1.1-21.2z"/>
			<path d="M1.5-19.4l0.2,0.6c0.3,0.9,0.8,1.6,1.6,2.1s1.8,0.6,2.7,0.3c1.9-0.5,2.9-2.4,2.4-4.3l-0.2-0.6c-0.3-0.9-0.8-1.6-1.6-2.1
				S4.8-24,3.9-23.8C2.1-23.2,1-21.3,1.5-19.4z"/>
			<path d="M1.6-15.6v0.4c0,1.9,1.6,3.5,3.5,3.5s3.5-1.6,3.5-3.5v-0.4c0-1.9-1.6-3.5-3.5-3.5C3.2-19.1,1.6-17.5,1.6-15.6z"/>
			<path d="M4.9-7.2c4.5,0,4.5-7,0-7S0.4-7.2,4.9-7.2z"/>
			<path d="M1.8-7.5v0.2c0,1.9,1.6,3.5,3.5,3.5s3.5-1.6,3.5-3.5v-0.2c0-1.9-1.6-3.5-3.5-3.5S1.8-9.4,1.8-7.5z"/>
			<path d="M6-0.2c4.5,0,4.5-7,0-7S1.5-0.2,6-0.2z"/>
			<path d="M10-35.4c4.5,0,4.5-7,0-7S5.5-35.4,10-35.4z"/>
			<path d="M6.6-28.6c4.5,0,4.5-7,0-7S2.1-28.6,6.6-28.6z"/>
			<path d="M8.5-22.5c4.5,0,4.5-7,0-7S4-22.5,8.5-22.5z"/>
			<path d="M8.5-20.2c4.5,0,4.5-7,0-7S4-20.2,8.5-20.2z"/>
			<path d="M14.9-15.7c4.5,0,4.5-7,0-7S10.4-15.7,14.9-15.7z"/>
			<path d="M9.8-11c4.5,0,4.5-7,0-7S5.3-11,9.8-11z"/>
			<path d="M10.6-4.4c4.5,0,4.5-7,0-7S6.1-4.4,10.6-4.4z"/>
			<path d="M10.6,0c4.5,0,4.5-7,0-7S6.1,0,10.6,0z"/>
			<path d="M12.8-31.4c2.6,0,2.6-4,0-4S10.3-31.4,12.8-31.4z"/>
			<path d="M13-29.1c2.6,0,2.6-4,0-4S10.4-29.1,13-29.1z"/>
			<path d="M13.1-28.5v0.2c0,1.1,0.9,2,2,2s2-0.9,2-2v-0.2c0-1.1-0.9-2-2-2S13.1-29.6,13.1-28.5z"/>
			<path d="M15.1-23.6c2.6,0,2.6-4,0-4S12.5-23.6,15.1-23.6z"/>
			<path d="M16.6-38.4c0.6,0,1-0.4,1-1c0-0.6-0.4-1-1-1s-1,0.4-1,1C15.6-38.8,16.1-38.4,16.6-38.4z"/>
			<path d="M21.7-33c0.6,0,1-0.4,1-1s-0.4-1-1-1s-1,0.4-1,1S21.2-33,21.7-33z"/>
			<path d="M16.9-40.6V-41c0-0.6-0.4-1-1-1s-1,0.4-1,1v0.4c0,0.6,0.4,1,1,1C16.4-39.6,16.9-40,16.9-40.6z"/>
			<path d="M16.5-44.7v-0.2c0-0.6-0.4-1-1-1s-1,0.4-1,1v0.2c0,0.6,0.4,1,1,1C16-43.7,16.5-44.2,16.5-44.7z"/>
			<path d="M15.5-47.5c0.6,0,1-0.4,1-1s-0.4-1-1-1s-1,0.4-1,1S14.9-47.5,15.5-47.5z"/>
			<path d="M10.6-47.5c0.6,0,1-0.4,1-1s-0.4-1-1-1s-1,0.4-1,1S10-47.5,10.6-47.5z"/>
			<path d="M10.4-44.8c0.6,0,1-0.4,1-1c0-0.6-0.4-1-1-1s-1,0.4-1,1C9.4-45.2,9.8-44.8,10.4-44.8z"/>
			<path d="M7.4-43.3c0.6,0,1-0.4,1-1c0-0.6-0.4-1-1-1s-1,0.4-1,1C6.4-43.7,6.8-43.3,7.4-43.3z"/>
			<path d="M11.9-42.4h0.4c0.6,0,1-0.4,1-1c0-0.6-0.4-1-1-1h-0.4c-0.6,0-1,0.4-1,1C10.9-42.8,11.3-42.4,11.9-42.4z"/>
			<path d="M13.3-38.5l0.6,1.3c0.3,0.5,0.9,0.6,1.4,0.4l0,0c0.5-0.3,0.6-0.9,0.4-1.4l0,0L15-39.5c-0.3-0.5-0.9-0.6-1.4-0.4l0,0
				C13.2-39.6,13-39,13.3-38.5z"/>
			<path d="M18.4-30.2v0.2c0,0.6,0.4,1,1,1s1-0.4,1-1v-0.2c0-0.6-0.4-1-1-1S18.4-30.7,18.4-30.2z"/>
			<path d="M20.7-24.6l0.2,0.4c0.6,1.1,2.3,0.1,1.7-1l-0.2-0.4C21.8-26.7,20.1-25.7,20.7-24.6z"/>
			<path d="M22.1-20.1c-0.5,0.5-0.8,1.1-0.8,1.9c0,0.6,0.4,1,1,1s1-0.4,1-1c0-0.2,0.1-0.3,0.2-0.4c0.4-0.4,0.4-1,0-1.4l0,0
				C23.2-20.5,22.5-20.5,22.1-20.1z"/>
			<path d="M20.3-16.1l-0.5,1.7c-0.4,1.2,1.5,1.8,1.9,0.5l0.5-1.7C22.6-16.8,20.7-17.3,20.3-16.1z"/>
			<path d="M19.4-12.5h-0.2c-0.6,0-1,0.4-1,1s0.4,1,1,1h0.2c0.6,0,1-0.4,1-1S20-12.5,19.4-12.5z"/>
			<path d="M17.6-8l-0.2,0.4c-0.6,1.2,1.1,2.2,1.7,1L19.3-7C19.9-8.2,18.2-9.2,17.6-8z"/>
			<path d="M15.8-1.6V-1c0,0.6,0.4,1,1,1c0.6,0,1-0.4,1-1v-0.6c0-0.6-0.4-1-1-1S15.8-2.2,15.8-1.6z"/>
			<path d="M14.3-0.1c0.6,0,1-0.4,1-1s-0.4-1-1-1s-1,0.4-1,1S13.8-0.1,14.3-0.1z"/>
			<path d="M14.3-8.2c0.6,0,1-0.4,1-1s-0.4-1-1-1s-1,0.4-1,1S13.8-8.2,14.3-8.2z"/>
			<path d="M17.1-13c0.6-0.3,1-1,1-1.6s-0.4-1-1-1s-1,0.4-1,1c0-0.1,0.2-0.2,0-0.1C15-14.2,16-12.5,17.1-13z"/>
			<path d="M17.4-18.2c0.6,0,1-0.4,1-1s-0.4-1-1-1s-1,0.4-1,1S16.8-18.2,17.4-18.2z"/>
			<path d="M18.1-21c0.6,0,1-0.4,1-1s-0.4-1-1-1s-1,0.4-1,1S17.6-21,18.1-21z"/>
			<path d="M19-24.6l0.2-0.4c0.6-1.1-1.1-2.2-1.7-1l-0.2,0.4C16.7-24.4,18.4-23.4,19-24.6z"/>
			<path d="M17.9-33.5c0.6,0,1-0.4,1-1s-0.4-1-1-1s-1,0.4-1,1S17.4-33.5,17.9-33.5z"/>
			<path d="M24.6-33.5l0.6,0.9c0.3,0.4,1,0.5,1.4,0.2c0.4-0.3,0.5-0.8,0.3-1.2l-0.6-1c-0.3-0.5-0.9-0.6-1.4-0.3
				C24.6-34.5,24.4-34,24.6-33.5L24.6-33.5z"/>
			<path d="M34.9-19.8v0.2c0,0.6,0.4,1,1,1s1-0.4,1-1v-0.2c0-0.6-0.4-1-1-1S34.9-20.3,34.9-19.8z"/>
			<path d="M24-10.3c0.6,0,1-0.4,1-1s-0.4-1-1-1s-1,0.4-1,1S23.5-10.3,24-10.3z"/>
			<path d="M22.9-20.5c0.6,0,1-0.4,1-1s-0.4-1-1-1s-1,0.4-1,1S22.3-20.5,22.9-20.5z"/>
			<path d="M18.2-27.6l0.6-0.6c0.9-0.9-0.5-2.3-1.4-1.4L16.8-29C15.9-28.1,17.3-26.7,18.2-27.6z"/>
		</g>
	</g>
</pattern>
<pattern  x="-47" y="573" width="36.9" height="49.5" patternUnits="userSpaceOnUse" id="SVGID_3_" viewBox="0 -49.5 36.9 49.5" style="overflow:visible;">
	<g>
		<rect y="-49.5" class="st0" width="36.9" height="49.5"/>
		<g>
			<rect y="-49.5" class="st0" width="36.9" height="49.5"/>
			<rect y="-49.5" class="st0" width="36.9" height="49.5"/>
			<path d="M4.3-36.3c4.5,0,4.5-7,0-7S-0.2-36.3,4.3-36.3z"/>
			<path d="M4.5-32.3c4.5,0,4.5-7,0-7S0-32.3,4.5-32.3z"/>
			<path d="M4.5-28.6c4.5,0,4.5-7,0-7S0-28.6,4.5-28.6z"/>
			<path d="M3.4-24.8c4.5,0,4.5-7,0-7S-1.1-24.8,3.4-24.8z"/>
			<path d="M1.1-21.2l0.2,0.4c1,1.7,3.1,2.2,4.8,1.2c1.6-1,2.2-3.1,1.3-4.8l-0.2-0.4c-1-1.7-3.1-2.2-4.8-1.3
				C0.7-25,0.2-22.9,1.1-21.2z"/>
			<path d="M1.5-19.4l0.2,0.6c0.3,0.9,0.8,1.6,1.6,2.1s1.8,0.6,2.7,0.3c1.9-0.5,2.9-2.4,2.4-4.3l-0.2-0.6c-0.3-0.9-0.8-1.6-1.6-2.1
				S4.8-24,3.9-23.8C2.1-23.2,1-21.3,1.5-19.4z"/>
			<path d="M1.6-15.6v0.4c0,1.9,1.6,3.5,3.5,3.5s3.5-1.6,3.5-3.5v-0.4c0-1.9-1.6-3.5-3.5-3.5C3.2-19.1,1.6-17.5,1.6-15.6z"/>
			<path d="M4.9-7.2c4.5,0,4.5-7,0-7S0.4-7.2,4.9-7.2z"/>
			<path d="M1.8-7.5v0.2c0,1.9,1.6,3.5,3.5,3.5s3.5-1.6,3.5-3.5v-0.2c0-1.9-1.6-3.5-3.5-3.5S1.8-9.4,1.8-7.5z"/>
			<path d="M6-0.2c4.5,0,4.5-7,0-7S1.5-0.2,6-0.2z"/>
			<path d="M10-35.4c4.5,0,4.5-7,0-7S5.5-35.4,10-35.4z"/>
			<path d="M6.6-28.6c4.5,0,4.5-7,0-7S2.1-28.6,6.6-28.6z"/>
			<path d="M8.5-22.5c4.5,0,4.5-7,0-7S4-22.5,8.5-22.5z"/>
			<path d="M8.5-20.2c4.5,0,4.5-7,0-7S4-20.2,8.5-20.2z"/>
			<path d="M14.9-15.7c4.5,0,4.5-7,0-7S10.4-15.7,14.9-15.7z"/>
			<path d="M9.8-11c4.5,0,4.5-7,0-7S5.3-11,9.8-11z"/>
			<path d="M10.6-4.4c4.5,0,4.5-7,0-7S6.1-4.4,10.6-4.4z"/>
			<path d="M10.6,0c4.5,0,4.5-7,0-7S6.1,0,10.6,0z"/>
			<path d="M12.8-31.4c2.6,0,2.6-4,0-4S10.3-31.4,12.8-31.4z"/>
			<path d="M13-29.1c2.6,0,2.6-4,0-4S10.4-29.1,13-29.1z"/>
			<path d="M13.1-28.5v0.2c0,1.1,0.9,2,2,2s2-0.9,2-2v-0.2c0-1.1-0.9-2-2-2S13.1-29.6,13.1-28.5z"/>
			<path d="M15.1-23.6c2.6,0,2.6-4,0-4S12.5-23.6,15.1-23.6z"/>
			<path d="M16.6-38.4c0.6,0,1-0.4,1-1c0-0.6-0.4-1-1-1s-1,0.4-1,1C15.6-38.8,16.1-38.4,16.6-38.4z"/>
			<path d="M21.7-33c0.6,0,1-0.4,1-1s-0.4-1-1-1s-1,0.4-1,1S21.2-33,21.7-33z"/>
			<path d="M16.9-40.6V-41c0-0.6-0.4-1-1-1s-1,0.4-1,1v0.4c0,0.6,0.4,1,1,1C16.4-39.6,16.9-40,16.9-40.6z"/>
			<path d="M16.5-44.7v-0.2c0-0.6-0.4-1-1-1s-1,0.4-1,1v0.2c0,0.6,0.4,1,1,1C16-43.7,16.5-44.2,16.5-44.7z"/>
			<path d="M15.5-47.5c0.6,0,1-0.4,1-1s-0.4-1-1-1s-1,0.4-1,1S14.9-47.5,15.5-47.5z"/>
			<path d="M10.6-47.5c0.6,0,1-0.4,1-1s-0.4-1-1-1s-1,0.4-1,1S10-47.5,10.6-47.5z"/>
			<path d="M10.4-44.8c0.6,0,1-0.4,1-1c0-0.6-0.4-1-1-1s-1,0.4-1,1C9.4-45.2,9.8-44.8,10.4-44.8z"/>
			<path d="M7.4-43.3c0.6,0,1-0.4,1-1c0-0.6-0.4-1-1-1s-1,0.4-1,1C6.4-43.7,6.8-43.3,7.4-43.3z"/>
			<path d="M11.9-42.4h0.4c0.6,0,1-0.4,1-1c0-0.6-0.4-1-1-1h-0.4c-0.6,0-1,0.4-1,1C10.9-42.8,11.3-42.4,11.9-42.4z"/>
			<path d="M13.3-38.5l0.6,1.3c0.3,0.5,0.9,0.6,1.4,0.4l0,0c0.5-0.3,0.6-0.9,0.4-1.4l0,0L15-39.5c-0.3-0.5-0.9-0.6-1.4-0.4l0,0
				C13.2-39.6,13-39,13.3-38.5z"/>
			<path d="M18.4-30.2v0.2c0,0.6,0.4,1,1,1s1-0.4,1-1v-0.2c0-0.6-0.4-1-1-1S18.4-30.7,18.4-30.2z"/>
			<path d="M20.7-24.6l0.2,0.4c0.6,1.1,2.3,0.1,1.7-1l-0.2-0.4C21.8-26.7,20.1-25.7,20.7-24.6z"/>
			<path d="M22.1-20.1c-0.5,0.5-0.8,1.1-0.8,1.9c0,0.6,0.4,1,1,1s1-0.4,1-1c0-0.2,0.1-0.3,0.2-0.4c0.4-0.4,0.4-1,0-1.4l0,0
				C23.2-20.5,22.5-20.5,22.1-20.1z"/>
			<path d="M20.3-16.1l-0.5,1.7c-0.4,1.2,1.5,1.8,1.9,0.5l0.5-1.7C22.6-16.8,20.7-17.3,20.3-16.1z"/>
			<path d="M19.4-12.5h-0.2c-0.6,0-1,0.4-1,1s0.4,1,1,1h0.2c0.6,0,1-0.4,1-1S20-12.5,19.4-12.5z"/>
			<path d="M17.6-8l-0.2,0.4c-0.6,1.2,1.1,2.2,1.7,1L19.3-7C19.9-8.2,18.2-9.2,17.6-8z"/>
			<path d="M15.8-1.6V-1c0,0.6,0.4,1,1,1c0.6,0,1-0.4,1-1v-0.6c0-0.6-0.4-1-1-1S15.8-2.2,15.8-1.6z"/>
			<path d="M14.3-0.1c0.6,0,1-0.4,1-1s-0.4-1-1-1s-1,0.4-1,1S13.8-0.1,14.3-0.1z"/>
			<path d="M14.3-8.2c0.6,0,1-0.4,1-1s-0.4-1-1-1s-1,0.4-1,1S13.8-8.2,14.3-8.2z"/>
			<path d="M17.1-13c0.6-0.3,1-1,1-1.6s-0.4-1-1-1s-1,0.4-1,1c0-0.1,0.2-0.2,0-0.1C15-14.2,16-12.5,17.1-13z"/>
			<path d="M17.4-18.2c0.6,0,1-0.4,1-1s-0.4-1-1-1s-1,0.4-1,1S16.8-18.2,17.4-18.2z"/>
			<path d="M18.1-21c0.6,0,1-0.4,1-1s-0.4-1-1-1s-1,0.4-1,1S17.6-21,18.1-21z"/>
			<path d="M19-24.6l0.2-0.4c0.6-1.1-1.1-2.2-1.7-1l-0.2,0.4C16.7-24.4,18.4-23.4,19-24.6z"/>
			<path d="M17.9-33.5c0.6,0,1-0.4,1-1s-0.4-1-1-1s-1,0.4-1,1S17.4-33.5,17.9-33.5z"/>
			<path d="M24.6-33.5l0.6,0.9c0.3,0.4,1,0.5,1.4,0.2c0.4-0.3,0.5-0.8,0.3-1.2l-0.6-1c-0.3-0.5-0.9-0.6-1.4-0.3
				C24.6-34.5,24.4-34,24.6-33.5L24.6-33.5z"/>
			<path d="M34.9-19.8v0.2c0,0.6,0.4,1,1,1s1-0.4,1-1v-0.2c0-0.6-0.4-1-1-1S34.9-20.3,34.9-19.8z"/>
			<path d="M24-10.3c0.6,0,1-0.4,1-1s-0.4-1-1-1s-1,0.4-1,1S23.5-10.3,24-10.3z"/>
			<path d="M22.9-20.5c0.6,0,1-0.4,1-1s-0.4-1-1-1s-1,0.4-1,1S22.3-20.5,22.9-20.5z"/>
			<path d="M18.2-27.6l0.6-0.6c0.9-0.9-0.5-2.3-1.4-1.4L16.8-29C15.9-28.1,17.3-26.7,18.2-27.6z"/>
		</g>
	</g>
</pattern>
<g class="st1">
	<ellipse class="st2" cx="311.9" cy="347.6" rx="12.2" ry="16"/>
	<path class="st2" d="M321.5,279.4c1.7-3,2.6-6.3,2.6-9.7c0-8.8-5.5-16-12.2-16s-12.2,7.1-12.2,16c0,3.4,0.9,6.7,2.6,9.7
		c-3.4,6.1-3.4,13.5,0,19.5c-3.4,6.1-3.4,13.5,0,19.5c-1.7,3-2.6,6.3-2.6,9.7c0,8.8,5.5,16,12.2,16s12.2-7.2,12.2-16
		c0-3.4-0.9-6.7-2.6-9.7c3.4-6.1,3.4-13.5,0-19.5C325,292.8,325,285.4,321.5,279.4L321.5,279.4z"/>
	<ellipse class="st2" cx="311.9" cy="250.1" rx="12.2" ry="16"/>
	<ellipse class="st2" cx="311.9" cy="230.6" rx="12.2" ry="16"/>
	<path class="st3" d="M266.3,97.1c-1.7-2.1-3.2-4.4-4.5-6.6l32-5.2l-34.6,0.2c-6.7-14.7-7.1-31.4-1.1-46.3l46.5,24.1l-42.8-31.5
		c16-28.1,51.6-37.8,79.7-21.8c28.1,16,37.8,51.6,21.8,79.7c-1.5,2.7-3.2,5.1-5.1,7.6c2.6,3.3,4.8,6.9,6.6,10.6l-41.6,21.6
		l44.3-14.9c6.3,18.7,2.8,39.3-9.4,54.8c19.9,25.4,15.5,62-9.7,82c-25.4,19.9-62,15.5-82-9.7c-16.7-21.2-16.7-51,0-72.2
		C249.7,148.2,249.7,118.3,266.3,97.1L266.3,97.1z"/>
	<path class="st4" d="M370.6,133.2c0,13.1-4.4,25.8-12.5,36.1c19.9,25.4,15.5,62-9.7,82c-25.4,19.9-62,15.5-82-9.7
		c-16.7-21.2-16.7-51,0-72.2C258.5,159.4,370.6,126.6,370.6,133.2z"/>
</g>
<g class="st1">
	<ellipse class="st2" cx="454.3" cy="313.5" rx="9.1" ry="11.9"/>
	<path class="st2" d="M461.4,262.4c1.3-2.2,1.9-4.7,1.9-7.3c0-6.5-4.1-11.9-9.1-11.9c-5,0-9.1,5.4-9.1,11.9c0,2.6,0.6,5,1.9,7.3
		c-2.6,4.5-2.6,10.1,0,14.6c-2.6,4.5-2.6,10.1,0,14.6c-1.3,2.2-1.9,4.7-1.9,7.3c0,6.5,4.1,11.9,9.1,11.9c5,0,9.1-5.4,9.1-11.9
		c0-2.6-0.6-5-1.9-7.3c2.6-4.5,2.6-10.1,0-14.6C464,272.5,464,267.1,461.4,262.4z"/>
	<ellipse class="st2" cx="454.3" cy="240.6" rx="9.1" ry="11.9"/>
	<ellipse class="st2" cx="454.3" cy="226" rx="9.1" ry="11.9"/>
	<path class="st3" d="M420.1,126.3c-1.3-1.6-2.4-3.2-3.4-5l23.9-4l-25.9,0.2c-5-10.9-5.4-23.5-0.9-34.6l34.7,18l-32-23.6
		c12-20.9,38.8-28.1,59.7-16.1c20.9,12,28.1,38.8,16.1,59.7c-1.1,1.8-2.2,3.5-3.5,5.2c1.9,2.5,3.6,5.1,5,7.9l-31.1,16.2l33.1-11.1
		c4.7,13.9,2,29.3-7.1,41c14.9,19,11.7,46.4-7.3,61.3c-19,14.9-46.4,11.7-61.3-7.3c-12.5-15.9-12.5-38.1,0-54
		C407.8,164.4,407.8,142.2,420.1,126.3L420.1,126.3z"/>
	<path class="st4" d="M498.1,153.3c0,9.7-3.3,19.3-9.3,27c14.9,19,11.7,46.4-7.3,61.3c-19,14.9-46.4,11.7-61.3-7.3
		c-12.5-15.9-12.5-38.1,0-54C414.3,172.8,498.1,148.4,498.1,153.3z"/>
</g>
<path class="st5" d="M664.7,78c-3.9-0.7-7.8-0.3-11.4,1.3c-4.4,1.9-9.3,1.9-13.6,0c-5.1-2.2-11-2.1-16.1,0.3c-1.4,0.7-3,1.2-4.6,1.2
	c-6.5,0-11.9-6.5-13.1-15.2c1.3-1,2.4-2.1,3.2-3.5c3.9-6.1,9.7-10.1,16.4-10.1c6.6,0,12.4,3.9,16.3,10c2.4,3.7,6.4,6,10.8,5.9h0.2
	C658.1,67.7,662.6,71.9,664.7,78z"/>
<path class="st5" d="M684.5,50.8L674,57.4l6.4-11.6c-1.8-1.4-4.1-2.2-6.3-2.2h-0.2c-0.7,0-1.4,0-2.1-0.1l-3.6,2.2l1.5-2.8
	c-2.6-0.9-4.7-2.6-6.2-4.7l-6.4,4.1l4.1-7.3c-3.7-4.5-8.8-7.2-14.2-7.2c-6.6,0-12.5,4-16.4,10.1c-2.2,3.7-6.4,6-10.8,5.8h-0.3
	c-7.3,0-13.3,8.4-13.3,18.5c0,10.3,5.9,18.5,13.3,18.5c1.6,0,3.2-0.4,4.6-1.2c5-2.5,10.9-2.6,16.1-0.3c4.4,1.9,9.3,1.9,13.6,0
	c5.1-2.2,10.9-2.1,16,0.3c1.4,0.7,3,1.2,4.6,1.2c7.3,0,13.3-8.4,13.3-18.5C687.3,58.2,686.4,54.3,684.5,50.8z"/>
<path class="st5" d="M217.5,72.2c-2.7-0.5-5.5-0.2-7.9,0.9c-3,1.4-6.5,1.4-9.5,0c-3.6-1.6-7.7-1.5-11.2,0.2c-1,0.5-2.1,0.7-3.2,0.9
	c-4.5,0-8.4-4.6-9.1-10.6c0.9-0.6,1.7-1.5,2.2-2.5c2.7-4.3,6.9-7.1,11.5-7.1s8.7,2.8,11.4,7c1.6,2.6,4.5,4.2,7.6,4.2h0.1
	C212.8,65,215.9,67.9,217.5,72.2z"/>
<path class="st5" d="M231.4,53.2l-7.4,4.7l4.5-8.1c-1.3-1-2.8-1.6-4.4-1.6H224c-0.5,0-1.1,0-1.5-0.1l-2.5,1.6l1.1-1.9
	c-1.8-0.6-3.3-1.8-4.4-3.3l-4.5,2.8L215,42c-2.4-3.1-6.1-4.9-10-5c-4.6,0-8.8,2.8-11.5,7.1c-1.6,2.6-4.5,4.2-7.6,4.1h-0.2
	c-5.1,0-9.3,5.8-9.3,13s4.2,13,9.3,13c1.1,0,2.2-0.3,3.2-0.9c3.5-1.7,7.6-1.8,11.2-0.2c1.5,0.6,3.1,1.1,4.8,1.1c1.6,0,3.2-0.3,4.7-1
	c3.5-1.5,7.6-1.5,11.1,0.2c1,0.5,2.1,0.7,3.2,0.7c5.1,0,9.3-5.8,9.3-13C233.4,58.4,232.6,55.6,231.4,53.2z"/>
<path class="st5" d="M87.2,156.2c2.7-0.5,5.5-0.2,7.9,0.9c3,1.4,6.5,1.4,9.5,0c3.6-1.6,7.7-1.5,11.2,0.2c1,0.5,2.1,0.9,3.2,0.9
	c4.5,0,8.4-4.6,9.1-10.6c-0.9-0.6-1.7-1.5-2.2-2.5c-2.7-4.3-6.9-7.1-11.5-7.1c-4.6,0-8.7,2.7-11.4,7c-1.6,2.6-4.5,4.2-7.6,4.2h-0.1
	C91.8,149,88.7,151.9,87.2,156.2z"/>
<path class="st5" d="M73.3,137.2l7.4,4.7l-4.5-8.1c1.3-1,2.8-1.6,4.5-1.6h0.1c0.5,0,1.1,0,1.5-0.1l2.5,1.6l-1.1-1.9
	c1.7-0.6,3.3-1.8,4.4-3.3l4.5,2.8l-2.8-5.1c2.4-3.1,6.1-4.9,10-5c4.6,0,8.8,2.8,11.5,7.1c1.6,2.6,4.5,4.2,7.6,4.1h0.2
	c5.1,0,9.3,5.8,9.3,13s-4.2,13-9.3,13c-1.1,0-2.2-0.3-3.2-0.9c-3.5-1.7-7.6-1.8-11.2-0.2c-1.5,0.6-3.1,1.1-4.8,1.1
	c-1.6,0-3.2-0.3-4.7-1c-3.5-1.5-7.6-1.5-11.1,0.2c-1,0.5-2.1,0.7-3.2,0.7c-5.1,0-9.3-5.8-9.3-13C71.3,142.4,72,139.7,73.3,137.2z"/>
<path class="st6" d="M509.9,484.9c2.8-5.1-0.3-11.6-4.1-16.2s-8.1-9.4-8-15.3c0.1-8.5,9.1-13.5,16.3-17.9
	c5.4-3.3,10.3-7.3,14.7-11.8c1.8-1.7,3.3-3.7,4.5-6c1.5-3.3,1.4-7.1,1.4-10.7c-0.3-12.1-0.9-24.1-1.8-36.2"/>
<path class="st3" d="M546.6,370.2c-0.2-4.5-2.7-8.6-6.6-10.8l-3,5.9l0.1-7.1c-7-2-14.4,1.9-16.4,8.9c-2,7,1.9,14.4,8.9,16.4
	c7,2,14.4-1.9,16.4-8.9C546.5,373.2,546.6,371.7,546.6,370.2z"/>
<path class="st3" d="M523,459.4c-3.3,6.4-11.2,9-17.8,5.7c-4.2-2.1-6.9-6.3-7.2-11c-0.1-1.8,0.2-3.6,0.9-5.4
	c2.7-6.7,10.3-10.2,17.1-7.5c3.4,1.4,6.2,4.2,7.5,7.6l-8.2,6.7l9.1-2.1C524.4,455.6,524,457.6,523,459.4z"/>
<path class="st3" d="M516.5,433.8c-7.3,0.3-13.5-5.2-13.8-12.5c-0.3-6.1,3.7-11.7,9.6-13.3l-0.1,5.5l3-5.9l0,0
	c7.3-0.3,13.5,5.2,13.8,12.5C529.3,427.4,523.8,433.5,516.5,433.8L516.5,433.8z"/>
<path class="st3" d="M548.5,412.6c-7.3,0.4-13.5-5.2-13.8-12.5c-0.4-7.3,5.2-13.5,12.5-13.8c2.5-0.1,5,0.4,7.2,1.7l-2.4,6.4l4.7-4.7
	c5.4,4.9,5.7,13.3,0.9,18.6C555.3,410.9,551.9,412.4,548.5,412.6L548.5,412.6z"/>
<path class="st4" d="M544.8,373.7c-3,0.3-6,1.3-9.1,1.5c-3.1,0.2-6.4-0.5-8.4-2.9c-0.9-1.4-1.7-2.8-2.5-4.3
	c-0.9-1.3-1.9-2.4-3.3-3.1c-3.3,6.5-0.7,14.5,5.8,17.8c6.5,3.3,14.5,0.7,17.8-5.8c0.5-1.1,0.9-2.1,1.2-3.2
	C545.7,373.6,545.3,373.7,544.8,373.7z"/>
<path class="st4" d="M548.5,412.6c-7.3,0.3-13.5-5.2-13.8-12.5c-0.1-2.1,0.3-4.3,1.3-6.2c1.1,0.7,1.9,1.6,2.7,2.7
	c0.7,1.5,1.7,3,2.6,4.4c2,2.4,5.6,3.2,8.8,3c3.2-0.2,6.2-1.1,9.4-1.3c0.4,0,0.9-0.1,1.3-0.1C559.4,408.1,554.4,412.3,548.5,412.6z"
	/>
<path class="st4" d="M516.5,433.8c-7.3,0.3-13.5-5.2-13.8-12.5c-0.1-2,0.3-4.1,1.2-6c1.1,0.7,2,1.6,2.8,2.7c0.9,1.5,1.8,3,2.9,4.5
	c2.2,2.5,6,3.3,9.3,3.2c3.3-0.1,6.4-0.9,9.6-1.1C526.9,429.9,522.1,433.6,516.5,433.8z"/>
<path class="st4" d="M523,459.4c-3.3,6.4-11.2,9-17.8,5.7c-4.2-2.1-6.9-6.3-7.2-11c-0.1-1.8,0.2-3.6,0.9-5.4c1.1,0.7,2,1.6,2.9,2.6
	c1.3,1.5,2,3.2,3.5,4.7c2.7,2.7,7.1,3.7,10.9,3.9C518.5,459.8,520.8,459.7,523,459.4z"/>
<path class="st6" d="M291.7,319.5c-2.8-5.1,0.3-11.6,4.1-16.2s8-9.4,8-15.3c-0.1-8.5-9.1-13.5-16.3-17.9
	c-5.4-3.3-10.2-7.3-14.6-11.8c-1.8-1.7-3.3-3.7-4.5-6c-1.5-3.3-1.4-7.1-1.4-10.7c0.3-12.1,1-24.1,1.8-36.2"/>
<path class="st3" d="M255.1,204.9c0.2-4.5,2.7-8.6,6.5-10.8l3,5.9l-0.1-7.1c1.4-0.4,2.9-0.5,4.3-0.5c7.3,0.3,12.9,6.5,12.5,13.8
	c-0.3,7.3-6.5,12.9-13.8,12.5C260.4,218.3,254.8,212.1,255.1,204.9L255.1,204.9z"/>
<path class="st3" d="M278.6,294.1c3.3,6.4,11.2,9,17.8,5.7c6.4-3.3,9-11.2,5.7-17.8c-3.3-6.4-11.2-9-17.8-5.7
	c-2.9,1.5-5.1,4.1-6.3,7.2l8.2,6.7l-9.1-2.1C277.2,290.2,277.6,292.2,278.6,294.1z"/>
<path class="st3" d="M285.1,268.6c7.3,0.3,13.5-5.2,13.8-12.5c0.3-6.1-3.6-11.7-9.6-13.3l0.1,5.5l-3-5.9l0,0
	c-7.3-0.3-13.5,5.2-13.8,12.5c-0.1,1.5,0.1,3,0.5,4.5C274.8,264.5,279.6,268.2,285.1,268.6z"/>
<path class="st3" d="M253.1,247.2c7.3,0.3,13.5-5.2,13.8-12.5c0.3-7.3-5.2-13.5-12.5-13.8c-2.5-0.1-5,0.4-7.2,1.7l2.4,6.4l-4.8-4.6
	c-2.6,2.4-4.2,5.6-4.3,9.1c-0.1,1.2,0,2.5,0.3,3.6C242.3,242.8,247.3,246.9,253.1,247.2z"/>
<path class="st4" d="M257,208.4c3,0.3,6,1.3,9.1,1.5c3.1,0.2,6.4-0.5,8.4-2.9c0.9-1.4,1.7-2.8,2.5-4.3c0.9-1.3,1.9-2.4,3.3-3.1
	c3.3,6.5,0.7,14.5-5.8,17.8c-6.5,3.3-14.5,0.7-17.8-5.8c-0.5-1.1-1-2.1-1.2-3.2C255.9,208.2,256.4,208.4,257,208.4z"/>
<path class="st4" d="M253.1,247.2c7.3,0.3,13.5-5.2,13.8-12.5c0.1-2.1-0.3-4.3-1.3-6.2c-1.1,0.7-1.9,1.6-2.7,2.7
	c-0.7,1.5-1.7,3-2.6,4.4c-2,2.4-5.6,3.2-8.8,3.1c-3.2-0.1-6.2-1.1-9.4-1.3c-0.4,0-0.9-0.1-1.3-0.1
	C242.3,242.7,247.3,246.9,253.1,247.2z"/>
<path class="st4" d="M285.1,268.6c7.3,0.3,13.5-5.2,13.8-12.5c0.1-2-0.3-4.2-1.2-6c-1.1,0.7-2,1.6-2.8,2.7c-0.9,1.5-1.8,3-2.9,4.4
	c-2.2,2.5-6,3.3-9.3,3.2s-6.4-0.9-9.6-1.1C274.8,264.6,279.6,268.2,285.1,268.6z"/>
<path class="st4" d="M278.6,294.1c3.3,6.4,11.4,9,17.8,5.7c5.9-3.1,8.6-10.1,6.3-16.4c-1.1,0.7-2,1.6-2.9,2.6
	c-1.3,1.5-2.1,3.2-3.5,4.7c-2.7,2.7-7.1,3.7-10.9,3.9C283.1,294.5,280.8,294.4,278.6,294.1z"/>
<circle class="st2" cx="633.5" cy="214.9" r="107.1"/>
<path class="st3" d="M679.5,242.5c-3.7-3.7-12.6-9.3-17.1-11.5c-5.1-2.5-7-2.5-10.6,0.2c-3,2.1-5,4.2-8.5,3.4
	c-3.4-0.7-10.4-5.9-17-12.5c-6.6-6.6-11.8-13.5-12.5-17s1.3-5.5,3.4-8.5c2.6-3.6,2.7-5.5,0.2-10.6c-2.1-4.4-7.7-13.4-11.5-17.1
	c-3.7-3.7-4.6-2.9-6.6-2.1c-2.1,0.9-4.2,1.9-6.1,3.2c-3.7,2.5-5.8,4.6-7.3,7.7c-1.5,3.1-3.1,8.9,5.4,24.1
	c6.3,11.7,14.2,22.3,23.7,31.6l0,0l0,0c9.3,9.4,20,17.5,31.7,23.7c15.2,8.6,21,6.9,24.1,5.4c3.1-1.5,5.2-3.5,7.7-7.3
	c1.3-1.9,2.4-4,3.2-6.1C682.5,247,683.4,246.2,679.5,242.5z"/>
<path class="st4" d="M633.5,107.8c-59.1,0-107.1,47.9-107.1,107.1c0,59.1,47.9,107.1,107,107.1s107.1-47.9,107.1-107.1v-0.1
	C740.7,155.8,692.7,107.9,633.5,107.8z M633.5,307.6c-51.3,0-92.9-41.6-92.9-92.9s41.6-92.9,92.9-92.9c51.3,0,92.9,41.6,92.9,92.9
	l0,0C726.4,266.1,684.9,307.8,633.5,307.6L633.5,307.6L633.5,307.6z"/>
<circle class="st2" cx="387.6" cy="377.5" r="107.1"/>
<path class="st3" d="M448.5,345.1l-32,32.7c-0.2,0.2-0.2,0.5,0,0.9l0,0l22.5,23.9c1.5,1.5,1.5,4,0,5.5c-0.7,0.7-1.7,1.1-2.7,1.2
	c-1.1,0-2-0.4-2.8-1.2l-22.4-23.9c-0.2-0.2-0.6-0.2-0.9,0l-5.5,5.5c-4.5,4.6-10.7,7.2-17.1,7.2c-6.5,0-12.9-2.7-17.5-7.4l-5.2-5.4
	c-0.2-0.2-0.6-0.2-0.9,0l-22.3,23.8c-1.5,1.5-4,1.5-5.5,0l0,0c-1.5-1.5-1.5-4,0-5.5l0,0l22.4-23.9c0.2-0.2,0.2-0.6,0-0.9l-32-32.7
	c-0.2-0.2-0.6-0.2-0.9,0c-0.1,0.1-0.2,0.2-0.2,0.4v65.2c0,5.2,4.3,9.5,9.5,9.5H440c5.2,0,9.5-4.3,9.5-9.5v-65.2
	c0-0.3-0.2-0.6-0.5-0.6C448.8,344.9,448.6,345,448.5,345.1z"/>
<path class="st3" d="M387.6,389.2c4.4,0,8.6-1.7,11.7-4.8l46.7-47.6c-1.6-1.4-3.7-2.1-5.9-2.1H335.3c-2.1,0-4.3,0.7-5.9,2.1
	l46.7,47.6C379.1,387.4,383.2,389.2,387.6,389.2z"/>
<path class="st4" d="M386.2,270.5c-59.1,0-107.1,47.9-107.1,107.1c0,59.1,47.9,107.1,107,107.1s107.1-47.9,107.1-107.1v-0.1
	C493.3,318.4,445.4,270.5,386.2,270.5z M386.2,470.3c-51.3,0-92.9-41.6-92.9-92.9s41.6-92.9,92.9-92.9s92.9,41.6,92.9,92.9l0,0
	C479.1,428.8,437.5,470.3,386.2,470.3z"/>
<circle class="st2" cx="133.6" cy="297.6" r="107.1"/>
<path class="st3" d="M133.6,246.3l-42.7,98.5l4,4l38.7-17l38.7,17l4-4L133.6,246.3z"/>
<path class="st4" d="M133.6,190.5c-59.1,0-107.1,47.9-107.2,107c0,59.1,47.9,107.1,107,107.2c59.1,0,107.1-47.9,107.2-107
	c0,0,0,0,0-0.1C240.6,238.5,192.7,190.5,133.6,190.5z M133.6,390.3c-51.3,0-92.9-41.6-92.9-92.9s41.6-92.9,92.9-92.9
	s92.9,41.6,92.9,92.9l0,0C226.3,348.8,184.8,390.3,133.6,390.3L133.6,390.3z"/>
<linearGradient id="SVGID_1_" gradientUnits="userSpaceOnUse" x1="671.8731" y1="1180.6306" x2="671.8731" y2="996.3247" gradientTransform="matrix(1 0 0 1 -52 -610.63)">
	<stop  offset="0" style="stop-color:#808080;stop-opacity:0.25"/>
	<stop  offset="0.54" style="stop-color:#808080;stop-opacity:0.12"/>
	<stop  offset="1" style="stop-color:#808080;stop-opacity:0.1"/>
</linearGradient>
<path class="st7" d="M643.4,432.3c-1-2.4-1.9-4.7-3-7.1c-0.9-2.2-2-4.4-3.6-6.3c-0.6-0.6-1.3-1.2-2.1-1.6c-0.9-0.3-1.8-0.5-2.8-0.5
	c-1.5-0.2-2.9-0.2-4.4-0.1c-0.5-0.2-1.2-0.4-1.8-0.6c6.5-1.7,11.1-7.5,11.4-14.1c0-0.2,0-0.4,0-0.6c0-8.5-6.7-15.3-15.2-15.3l0,0
	c-2.8,0-5.6,0.7-8,2.2c-6.5-1.5-13.2,1.7-16.1,7.7c-3.5,3.4-5.6,8.2-5.5,13.2c0,0.2,0,0.4,0,0.6c0.3,8.4,5.7,15,12.4,15.6
	c-0.7,0.3-1.4,0.7-1.9,1.3c-2,2-2.5,5.1-2.7,8l-0.2,2.1l-3.6,1.3c-0.3,0.1-0.5,0.5-0.4,0.9c0,0.1,0.1,0.2,0.2,0.3l3.4,2.5
	c0,0.2,0,0.4,0,0.6s0,0.4,0.1,0.7c-0.5,0.5-1.1,1.2-1.3,1.9c-0.3,1.1-0.4,2.4-0.3,3.4l0.1,3c0,2.2,0.3,4.5,0.9,6.6
	c0.4,1.3,2.4,4.5,3.7,4.5c-1.3,5.9-1.6,18.3-1.6,18.3c-0.2,0.2,0.3,0.3,1.1,0.4c0.7,5.9,3.3,22.5,7.7,29.8c0.7,2.4,1.3,4.8,1.7,7.3
	c0,0,1.3,15.7,3,20.5c1.4,4,2.6,13.8,2.9,16.7c-0.6,0.1-1.1,0.6-1.2,1.2c-0.9,2.6-6.3,6.4-6.3,6.4c-1.7,0.9-3.3,1.8-4.7,3
	c-1.7,1.6-1.6,3,6,2c14.8-1.7,17.4-6.4,17.4-6.4s-0.2-0.7-0.5-1.8c-0.4-1.6-1.1-3.1-1.9-4.6c-0.2-0.2-0.4,0.1-0.6,0.6
	c-1.1-6.9-1.5-13.8-1-20.7c0,0,0.4-7.3-1.7-12.3c-0.4-2.7-0.4-5.5,0-8c0.9-3.4-3.4-20-3.4-20l-2.5-12.2c0.3,0.4,0.5,0.9,0.6,1.4
	l0.1,0.2l0.1,0.3c0,0.1,0.1,0.2,0.2,0.3c1.6,6.9,6.2,25.8,6.2,28.6c0,3.4,4.2,11.9,4.2,11.9s1.7,14,4.6,19.6
	c2.2,4.2,2.4,10.4,2.1,13.1l0,0c0,0-0.5,3.5-1.4,4.4c-0.6,0.9-1.2,1.8-1.6,2.8l-0.1,0.2c0,0-1.3,2.6-0.4,3c3.2,1.3,6.7,1.7,10.2,1.3
	c0,0,1.7-2.1,1.7-3c0-0.5-0.1-1.1-0.2-1.5c-0.3-2-0.9-5.1-0.9-5.2c0.3-1.4-1.1-5.1-1.1-5.1l-0.4-11.9c0.7-8-0.2-16.2-3-23.9
	c0,0-2.1-7.7-1.7-9.7c0.4-2-0.9-24.7-0.9-24.7l-0.1-0.3c-0.1-1.6-0.1-3.2,0.1-4.8c0.4-5.1-1.3-15.7-1.7-16.2
	c-0.3-1.2-0.5-2.4-0.6-3.5c0.1-0.9,0.4-3.5,0.7-6.7c4.2-0.1,8.4-0.5,12.4-1.1c0.4,0,0.7-0.1,1.1-0.4c0.2-0.2,0.2-0.5,0.2-0.9
	C648.2,444.5,645.9,438.3,643.4,432.3z M634.9,445.9c0.4-3,0.9-6,1.4-8.2l0.1,0.2c0.9,2.2,1.5,4.5,2,6.7
	C637.3,445.2,636.1,445.6,634.9,445.9z"/>
<path class="st8" d="M602.2,480.3c0,0,2.6,22.7,8,31.6c0.7,2.4,1.3,4.7,1.7,7.2c0,0,1.3,15.5,3,20.2c1.7,4.7,3,17.2,3,17.2
	s5.9,6.7,8,1.3c-1.3-7.2-1.7-14.6-1.3-21.8c0,0,0.4-7.2-1.7-12.2c-0.4-2.7-0.4-5.4,0-8c0.9-3.4-3.4-19.8-3.4-19.8l-3.3-16.4
	L602.2,480.3z"/>
<path class="st9" d="M628.6,562c0,0-2.6,4.6-17.2,6.3c-7.6,0.9-7.7-0.5-6-2c1.5-1.2,3-2.1,4.7-3c0,0,5.5-3.7,6.3-6.3
	c0.9-2.6,3.7-0.4,3.7-0.4c4.2,6.3,5-1.7,5.9-0.9c0.9,1.4,1.5,2.9,1.9,4.5C628.4,561.3,628.6,562,628.6,562z"/>
<path class="st4" d="M628.6,562c0,0-2.6,4.6-17.2,6.3c-7.6,0.9-7.7-0.5-6-2c1.2,0.7,3.6,1.1,8.5-0.9c7-2.9,12.1-4.5,14.1-5.1
	C628.4,561.3,628.6,562,628.6,562z"/>
<path class="st4" d="M624.4,535.9c0,0,0.4-7.2-1.7-12.2c-0.4-2.7-0.4-5.4,0-8c0.9-3.4-3.4-19.8-3.4-19.8l-3.3-16.4l-2.9,0.2
	l3.3,16.3c0,0,4.2,16.4,3.4,19.8c-0.4,2.7-0.4,5.4,0,8c2.1,5,1.7,12.2,1.7,12.2c-0.5,7.3-0.1,14.7,1.3,21.8
	c-0.2,0.6-0.6,1.3-1.2,1.7c1.6,0.7,3.2,0.6,4.2-1.7C624.4,550.6,624,543.3,624.4,535.9z"/>
<path class="st2" d="M621.7,388c-2.8,0-5.6,0.7-7.9,2.2c-6.5-1.5-13.2,1.7-16.1,7.7c-3.5,3.4-5.6,8.1-5.5,13.1c0,9,6,16.2,13.5,16.2
	c5.4,0,10.1-3.9,12.2-9.3c1.3,0.3,2.5,0.5,3.7,0.5c8.4,0,15.1-6.7,15.1-15.2C636.9,394.7,630,388,621.7,388L621.7,388z"/>
<path class="st8" d="M634.1,482.4l1.3,3.3c0,0,1.3,22.3,0.9,24.4c-0.4,2.1,1.7,9.6,1.7,9.6c2.7,7.5,3.7,15.6,3,23.6l0.4,11.8
	c0,0,1.7,4.6,0.9,5.5c-0.9,0.9-7.2-0.7-7.2-0.7s0.9-8.8-2.1-14.4c-3-5.6-4.6-19.4-4.6-19.4s-4.2-8.5-4.2-11.8
	c0-3.3-6.7-30.7-6.7-30.7L634.1,482.4z"/>
<path class="st2" d="M601.3,482c0,0,0.4-15.2,2.1-19.8c0.9-2.1,1.5-4.4,1.9-6.7c0,0,25.5,4.6,27.6,2.9c0,0,0.4,5.9,0.9,6.3
	c0.4,0.4,2.1,10.9,1.7,16c-0.4,5,0,5,0,5s-17.2,2.6-17.7,0c-0.4-2.6-1.7-2.5-1.7-2.5S600.5,482.9,601.3,482z"/>
<g class="st1">
	<path d="M615.2,482c0,0-10.6-0.3-13.8-0.9c0,0.5,0,0.9,0,0.9c-0.9,0.9,14.8,1.3,14.8,1.3c0.2,0,0.4,0.1,0.5,0.2
		C616.1,482,615.2,482,615.2,482z"/>
	<path d="M633.8,464.8c-0.4-0.4-0.9-6.3-0.9-6.3c-0.2,0.1-0.4,0.2-0.7,0.2c0.1,1.8,0.4,4.5,0.7,4.8c0.3,0.3,2.1,10.9,1.7,16
		c-0.4,5,0,5,0,5s-13.7,2-16.9,0.6c0,0.2,0.1,0.4,0.1,0.6c0.4,2.6,17.7,0,17.7,0s-0.4,0,0-5C635.9,475.7,634.1,465.2,633.8,464.8z"
		/>
	<pattern  id="SVGID_4_" xlink:href="#SVGID_2_" patternTransform="matrix(1 0 0 1 -259.4 16270.2344)"  class="st1">
	</pattern>
	<path class="st10" d="M615.2,482c0,0-10.6-0.3-13.8-0.9c0,0.5,0,0.9,0,0.9c-0.9,0.9,14.8,1.3,14.8,1.3c0.2,0,0.4,0.1,0.5,0.2
		C616.1,482,615.2,482,615.2,482z"/>
	<pattern  id="SVGID_5_" xlink:href="#SVGID_3_" patternTransform="matrix(1 0 0 1 -259.4 16270.2344)"  class="st1">
	</pattern>
	<path class="st11" d="M633.8,464.8c-0.4-0.4-0.9-6.3-0.9-6.3c-0.2,0.1-0.4,0.2-0.7,0.2c0.1,1.8,0.4,4.5,0.7,4.8
		c0.3,0.3,2.1,10.9,1.7,16c-0.4,5,0,5,0,5s-13.7,2-16.9,0.6c0,0.2,0.1,0.4,0.1,0.6c0.4,2.6,17.7,0,17.7,0s-0.4,0,0-5
		C635.9,475.7,634.1,465.2,633.8,464.8z"/>
</g>
<path class="st8" d="M619.8,414.4c0.3,0.9,1,1.5,1.6,2c0.4,0.3,1,0.5,1.5,0.6c-1,0.5-1.9,1-2.9,1.5c-1.5,1-2.9,2-4.3,3.2
	c-1.4,1.2-3.1,1.8-4.9,1.9c1.3-1.7,1.5-4,0.6-6c-0.4-0.6-0.6-1.4-0.7-2c0-1.2,1.1-2.1,2-2.8c0.9-0.5,1.6-1.1,2.5-1.6
	c0.6-0.4,1.6-1.3,2.5-1.3c0.9,0,1,0.7,1.1,1.5C619.1,412.6,619.4,413.6,619.8,414.4z"/>
<path class="st4" d="M619.8,414.4c0.3,0.9,1,1.5,1.6,2c0.4,0.3,1,0.5,1.5,0.6c-1,0.5-1.9,1-2.9,1.5c-1.5,1-2.9,2-4.3,3.2
	c-1.4,1.2-3.1,1.8-4.9,1.9c1.3-1.7,1.5-4,0.6-6c-0.4-0.6-0.6-1.4-0.7-2c0-1.2,1.1-2.1,2-2.8c0.9-0.5,1.6-1.1,2.5-1.6
	c0.6-0.4,1.6-1.3,2.5-1.3c0.9,0,1,0.7,1.1,1.5C619.1,412.6,619.4,413.6,619.8,414.4z"/>
<circle class="st8" cx="629.7" cy="429.6" r="9.6"/>
<path class="st9" d="M643.4,567.1c0,0.9-1.7,3-1.7,3c-3.4,0.4-6.9,0-10.1-1.3c-0.9-0.4,0.4-3,0.4-3l0.1-0.2c0.4-1,1-1.9,1.6-2.8
	c0.9-0.9,1.3-4.3,1.3-4.3c2.6-4.3,7.3,1.8,7.3,1.8s0.5,3.2,0.9,5.1C643.3,566.3,643.4,566.8,643.4,567.1z"/>
<path class="st4" d="M643.4,567.1c0,0.9-1.7,3-1.7,3c-3.4,0.4-6.9,0-10.1-1.3c-0.9-0.4,0.4-3,0.4-3l0.1-0.2c2.9,1.3,6,1.9,9.2,1.9
	l1.9-1.9C643.3,566.3,643.4,566.8,643.4,567.1z"/>
<circle class="st8" cx="610.3" cy="409.4" r="9.4"/>
<path class="st8" d="M602.7,428.4c-2,1.9-2.5,5.1-2.7,8l-0.3,4.2c-0.1,1.2-0.1,2.2-0.1,3.4c0,0.7,0.2,1.4,0.2,2.1s0.1,1.7,0.1,2.5
	v6.2c-0.1,1.3,0.1,2.6,0.6,3.7c0.6,1.2,2,1.7,3.2,1.2c0.6-0.5,1.2-1.3,1.3-2c1.1-2.5,1.7-5.1,2.1-7.8c0.1-1,0.1-1.8,0.2-2.8
	c0.1-1,0.2-1.9,0.4-2.9c0.6-4,0.9-7.9,1.2-11.9c0.1-1.2,1.2-5.8-0.4-6.3c-0.7-0.2-2.4,0.5-3,0.7
	C604.5,427.1,603.6,427.6,602.7,428.4z"/>
<path class="st4" d="M602.7,428.4c-2,1.9-2.5,5.1-2.7,8l-0.3,4.2c-0.1,1.2-0.1,2.2-0.1,3.4c0,0.7,0.2,1.4,0.2,2.1s0.1,1.7,0.1,2.5
	v6.2c-0.1,1.3,0.1,2.6,0.6,3.7c0.6,1.2,2,1.7,3.2,1.2c0.6-0.5,1.2-1.3,1.3-2c1.1-2.5,1.7-5.1,2.1-7.8c0.1-1,0.1-1.8,0.2-2.8
	c0.1-1,0.2-1.9,0.4-2.9c0.6-4,0.9-7.9,1.2-11.9c0.1-1.2,1.2-5.8-0.4-6.3c-0.7-0.2-2.4,0.5-3,0.7
	C604.5,427.1,603.6,427.6,602.7,428.4z"/>
<path class="st9" d="M622.3,415.5c0,0-7.2,5.5-11.4,6.7c0,0-2.5,2.9-2.9,3.5s-1.3,8.2-2.1,10c-0.9,1.7-3,5.5,0,9.2
	c0,0,0.9,3.7,0.4,5c-0.4,1.3-1.9,5.9-0.5,6.1c1.4,0.2,5.6,3.1,9.4,2.4s17.9,3.2,17.9,3.2s2.4-21.6,4.1-25.5l-3.7-1.3
	c0,0-10.5-6.3-4.2-16C629.1,418.9,623.2,417.6,622.3,415.5z"/>
<path class="st2" d="M596.2,440.9l8.7,6.2c0.2,0.2,0.5,0.2,0.7,0l2.4-1.8c0.3-0.2,0.3-0.6,0.1-1c0,0,0,0-0.1-0.1l-6.6-5.9
	c-0.2-0.2-0.4-0.2-0.6-0.1l-4.3,1.5c-0.3,0.1-0.5,0.5-0.4,0.9C596.1,440.7,596.1,440.8,596.2,440.9z"/>
<path class="st8" d="M599.2,459.4c-0.6-2.1-1-4.4-0.9-6.5l-0.1-3c-0.1-1.2,0-2.4,0.3-3.4c0.6-1.5,2-2.7,3.6-3.2
	c1.6-0.4,3.3-0.5,4.9-0.3c0.2,0,0.4,0.1,0.6,0.2c0.2,0.1,0.3,0.3,0.3,0.5c0.5,1,0.5,2,0.2,3.1c-0.2,0.4-0.5,0.7-1,1.1
	c-1.2,0.9-2.6,1.4-3.6,2.4c-0.2,0.1-0.4,0.3-0.5,0.6c0,0.2,0,0.4,0,0.6c0.1,0.6,0.3,1.2,0.5,1.7c0.1,0.3,0.2,0.5,0.5,0.7
	c0.2,0.2,0.4,0.2,0.6,0.4c0.4,0.3,1.4,0.9,1.4,1.5c-0.2,2.1-1.4,4.5-1.9,6.6C603.1,466.6,599.8,461.2,599.2,459.4z"/>
<g class="st1">
	<path d="M612.7,458.4h-0.2c0.9,0.2,1.8,0.2,2.8,0h0.2C614.5,458.3,613.6,458.3,612.7,458.4z"/>
	<path d="M634.7,435.5c-1.5,3.4-3.7,21.7-4.2,25.5c1.5,0.4,2.5,0.6,2.5,0.6s2.4-21.6,4-25.5L634.7,435.5z"/>
</g>
<path class="st8" d="M630,430c0.1,0.9,0.6,1.6,1.4,2.1c0.9,0.7,1.7,1.6,2.5,2.5c1.1,1.5,1.9,3.1,2.5,4.8c0.9,2.1,1.5,4.4,2,6.6
	c-5.4,2.5-11.5,2.4-17.1,4c-2.5,0.6-4.7,1.9-6.4,3.7s-2.7,4.4-2.4,7c0,0.1,0,0.3,0.1,0.4c0.2,0.2,0.4,0.3,0.7,0.3
	c1.4,0,2.8-0.4,4-1.4c1.1-0.9,2.1-1.8,3-3c0.5-0.7,1.3-1.3,2.1-1.6c3.1-1,6.4-0.9,9.6-1c4.8-0.1,9.6-0.4,14.4-1.2
	c0.6,0.1,1.2-0.4,1.3-1c0-0.1,0-0.2,0-0.3c0.4-6.3-1.9-12.5-4.3-18.3c-1-2.4-1.9-4.7-3-7c-0.9-2.2-2-4.4-3.6-6.2
	c-0.6-0.6-1.3-1.2-2.1-1.6c-1-0.3-1.9-0.5-2.9-0.5c-1.6-0.2-3.1-0.2-4.7-0.1c-0.2,0.7-0.4,1.6-0.4,2.5c0.1,2.9,1.4,5.6,2.6,8.2
	C629.4,429.5,629.8,429.5,630,430z"/>
<path class="st12" d="M612.9,435.3c-0.7,1.3-1.1,2.7-1.1,4.1c0,0.5,0.1,1.2,0.2,1.7c0.6,1.5,1.8,2.7,3.4,3.2"/>
<path class="st2" d="M618.3,400.2c-0.5,0-1.1,0.1-1.6,0.2c-1.4-2.1-4.7-3.6-8.6-3.6c-5.1,0-9.3,2.7-9.3,5.9c0,3.2,4.2,5.9,9.3,5.9
	c1.9,0,3.9-0.4,5.6-1.2c1.2,2.5,4.2,3.5,6.7,2.4c2.5-1.2,3.5-4.2,2.4-6.7C622,401.3,620.3,400.2,618.3,400.2L618.3,400.2z"/>
<path class="st4" d="M618.8,409c-1.9,0-3.7-1.1-4.5-2.9c-1.7,0.7-3.6,1.2-5.6,1.2c-5.1,0-9.2-2.7-9.2-5.9c0-0.2,0-0.4,0-0.5
	c-0.3,0.5-0.4,1.2-0.4,1.8c0,3.2,4.2,5.9,9.3,5.9c1.9,0,3.9-0.4,5.6-1.2c1.2,2.5,4.2,3.5,6.7,2.4c1.4-0.6,2.5-2,2.8-3.6
	C622.4,407.9,620.7,409,618.8,409z"/>
<path class="st4" d="M597.7,400.4c2.9-6,9.5-9.1,16.1-7.7c7.1-4.4,16.5-2.1,20.9,4.9c1.3,2,2,4.3,2.2,6.7c0-0.4,0-0.9,0-1.3
	c0-8.4-6.9-15.1-15.2-15.1c-2.8,0-5.6,0.7-7.9,2.2c-6.5-1.5-13.2,1.7-16.1,7.7c-3.5,3.4-5.6,8.1-5.5,13.1c0,0.4,0,0.9,0,1.3
	C592.4,407.7,594.3,403.4,597.7,400.4z"/>
<path class="st6" d="M694.3,403.6c2.8-5.1-0.3-11.6-4.1-16.2s-8-9.4-8-15.3c0.1-8.5,9.1-13.4,16.3-17.9c5.4-3.3,10.2-7.3,14.6-11.8
	c1.8-1.7,3.3-3.7,4.5-6c1.5-3.3,1.4-7.1,1.4-10.7c-0.3-12.1-0.9-24.1-1.8-36.2"/>
<path class="st3" d="M730.8,288.9c-0.2-4.5-2.7-8.6-6.5-10.8l-3,5.9l0.1-7.1c-1.4-0.4-2.9-0.6-4.3-0.5c-7.3,0.3-12.9,6.5-12.5,13.8
	c0.3,7.3,6.5,12.9,13.8,12.5C725.6,302.4,731.1,296.2,730.8,288.9L730.8,288.9L730.8,288.9z"/>
<path class="st3" d="M707.3,378.1c-3.3,6.4-11.2,9-17.8,5.7c-6.5-3.3-9-11.2-5.7-17.8c3.3-6.4,11.2-9,17.8-5.7
	c2.9,1.5,5.1,4.1,6.3,7.2l-8.2,6.7l9.1-2.1C708.7,374.2,708.3,376.3,707.3,378.1z"/>
<path class="st3" d="M700.8,352.5c-7.3,0.3-13.5-5.2-13.8-12.5c-0.3-6.1,3.6-11.7,9.6-13.3l-0.1,5.5l3-5.9l0,0
	c7.3-0.3,13.5,5.2,13.8,12.5C713.7,346,708.1,352.2,700.8,352.5L700.8,352.5L700.8,352.5z"/>
<path class="st3" d="M732.8,331.2c-7.3,0.3-13.5-5.2-13.8-12.5c-0.3-7.3,5.2-13.5,12.5-13.8c2.5-0.1,5,0.4,7.2,1.7l-2.4,6.4l4.8-4.6
	c2.6,2.4,4.2,5.6,4.3,9.1c0.1,1.2,0,2.5-0.3,3.6C743.7,326.9,738.7,331,732.8,331.2z"/>
<path class="st4" d="M729.1,292.4c-3,0.3-6,1.3-9.1,1.5c-3.1,0.2-6.4-0.5-8.4-2.9c-0.9-1.4-1.7-2.8-2.5-4.3
	c-0.9-1.3-1.9-2.4-3.3-3.1c-3.3,6.5-0.7,14.5,5.8,17.8s14.5,0.7,17.8-5.8c0.5-1.1,1-2.1,1.2-3.2
	C730.1,292.3,729.5,292.3,729.1,292.4z"/>
<path class="st4" d="M732.8,331.2c-7.3,0.3-13.5-5.2-13.8-12.5c-0.1-2.1,0.3-4.3,1.3-6.2c1.1,0.7,1.9,1.6,2.7,2.7
	c0.7,1.5,1.6,3,2.6,4.4c2,2.5,5.6,3.2,8.8,3.1c3.2-0.1,6.2-1.1,9.4-1.3c0.4,0,0.9-0.1,1.3-0.1C743.7,326.8,738.7,331,732.8,331.2z"
	/>
<path class="st4" d="M700.8,352.5c-7.3,0.3-13.5-5.2-13.8-12.5c-0.1-2,0.3-4.2,1.2-6.1c1.1,0.7,2,1.6,2.8,2.7
	c1.1,1.4,1.6,3.1,2.9,4.5c2.2,2.5,6,3.3,9.3,3.3c3.3,0,6.4-0.9,9.6-1.1C711.2,348.6,706.4,352.3,700.8,352.5z"/>
<path class="st4" d="M707.3,378.1c-3.4,6.4-11.5,8.9-17.9,5.5c-5.8-3.1-8.5-10-6.2-16.2c1.1,0.7,2,1.6,2.9,2.6
	c1.3,1.5,2.1,3.2,3.5,4.7c2.7,2.7,7.1,3.7,10.9,3.9C702.8,378.5,705.1,378.4,707.3,378.1z"/>
<linearGradient id="SVGID_6_" gradientUnits="userSpaceOnUse" x1="290.5338" y1="1103.8492" x2="290.5338" y2="995.7789" gradientTransform="matrix(1 0 0 1 -52 -610.63)">
	<stop  offset="0" style="stop-color:#808080;stop-opacity:0.25"/>
	<stop  offset="0.54" style="stop-color:#808080;stop-opacity:0.12"/>
	<stop  offset="1" style="stop-color:#808080;stop-opacity:0.1"/>
</linearGradient>
<path class="st13" d="M310.4,415.3c0-3.3-1.5-6.4-4.2-8.5c0-6-4.4-11.1-10.3-12.1c-0.9-4.3-4.1-7.8-8.1-9.1l0,0
	c-0.5-0.1-1-0.3-1.5-0.3h-0.1h-0.4h-0.2h-0.2H285h-0.6c-5.9,0.1-10.8,4.5-11.7,10.3c-3.7-0.9-7.2,0.2-7.8,2.7
	c-0.1,0.6-0.1,1.3,0.1,1.9c0.6,1.8,2.7,3.6,5.6,4.5l0.3,0.1l0.5,0.1h0.1l0,0c-0.6,1.3-0.9,2.7-0.9,4.1c0,3.5,1.9,6.7,5,8.4l-0.2,0.1
	c-0.3,0.3-0.6,0.7-0.9,1.2c-0.6,1.2-1.2,2.5-1.6,3.7c-0.2,1.2-0.3,2.4-0.6,3.4c-0.6,2-2.2,3.9-2.4,6c-0.1,1,0.1,2.1-0.6,2.8
	c-0.2,0.1-0.3,0.3-0.5,0.4c-0.4,0.3-0.9,0.7-1.2,1.3c-0.2,0.4-0.5,0.9-0.9,1.2c-0.6,0.4-1.6,0.4-1.9,1.2s0.5,1.6,0.3,2.4
	c-0.2,0.7-0.9,1-1.3,1.4c-0.5,0.6-1,1.4-1.2,2.1c-2,0.4-4.2-0.1-5.8-1.5c0.3,0.6,0.4,1.4,0.6,2.1c-1-0.7-2-1.3-3.1-1.6
	c-1.3-0.5-2.4-1.4-3.3-2.5l1.8-0.2l-7.8-12l-2.4-0.5l2,4c-0.3,0.1-0.6,0.4-0.7,0.9c-0.1,0.4-0.1,0.9-0.1,1.4
	c0.1,1.1,0.3,2.1,0.5,3.2l0.6,2.8c0,0.2,0.1,0.5,0.2,0.7c-0.7,0-1.6,0-2.4,0.2c-1.6-0.5-3.2-1-4.8-1.2c-0.3-0.1-0.7-0.1-1.1,0
	c-0.4,0.2-0.7,0.4-1.1,0.9c-1.4,1.6-2.6,3.2-3.6,5c-4.3,7.4-9.9,13.7-15.1,20.4c-3.6,1.5-7.3,2.9-11,4.3l-7.9,3
	c-1.5,0.7-3.2,1.1-4.9,1.1c-0.7,0-1.7-0.2-2.1,0.5c-0.2,0.3-0.3,0.6-0.5,1.1l-0.9,0.1l0,0c-0.3-1.3-1.1-2.5-1.9-3.5
	c-0.4,0.1-0.7,0.3-0.9,0.6c-0.2,0.3-0.3,0.7-0.5,1.1c-0.4,0.6-1.2,1-1.7,1.4c-0.5,0.4-0.9,1.3-1.4,1.9c-0.7,0.5-1.7,1-2.7,1.1
	c-1.5,0.3-2.9,0.9-4.2,1.6c-0.5,0.3-1,0.5-1.6,0.7c-0.6,0.1-1.2,0.1-1.8,0.1l-4.2-0.3c-0.4,0-0.7,0-1.1,0c-0.9,0.3-1.4,1.2-1.3,2.1
	c0.1,1,0.5,1.7,1.3,2.4c0.7,0.5,1.5,1,2.4,1.3c3.6,1.4,7.4,2.5,11.1,3.3v0.9c2.7,1.4,5.6,2,8.6,2c0.2,0,0.4,0,0.6-0.1
	c0.3-0.2,0.4-0.5,0.5-0.9c0.9-2.7,1.5-5.5,1.7-8.2l0,0c0.5,0,1.1-0.2,1.5-0.4c1.4-0.4,2.9,0.5,4.4,0.7c1.8,0.2,3.5-0.9,5.2-1.5
	l0.7-0.2c-0.5,0.6-1.1,1.2-1.7,1.6c-0.7,0.5-1.5,0.9-2.2,1.4c-0.6,0.5-1.2,1.1-1.9,1.5c-0.4,0.2-1,0.4-1.5,0.5
	c-0.7,0.3-1.4,0.6-2,1.1c-0.5,0.3-1.1,0.9-1.4,1.4s-0.4,1.3-0.1,1.9c0.3,0.5,0.9,0.9,1.4,1c0.5,0.1,1.2,0.1,1.7,0
	c2.2-0.2,4.5-0.3,6.7-0.5c1-0.1,1.9-0.2,2.8-0.4c0.5-0.1,1-0.3,1.5-0.4c0.9-0.2,1.7-0.3,2.6-0.4c0.2,0,0.5,0,0.7,0.1
	c0.5,0.2,0.9,0.7,1.4,0.9c0.3,0,0.7,0,1.1-0.1c1.6-0.3,3.3-0.5,5-0.5c0.7,0,1.6-0.2,1.9-0.9c0.3-0.6-0.3-1.8-0.5-2.7
	c-0.1-0.5-0.2-1.2-0.2-1.8c-0.1-1.5-0.5-2.9-1.3-4.2c-0.3-0.6-0.6-1.3-1-1.9c3.2-1.2,6.3-2.8,9.2-4.7c1.6-1.2,3.4-2,5.2-2.6
	c2.2-0.2,4.5,0,6.6,0.7c5.1,1.5,10.2,3.2,15.2,5.2c2.4,1,4.7,2,7.2,2.8c0.7,1,1.6,1.8,2.6,2.5c1.7,1,3.5,1.5,5.5,1.5
	c2.6,0.2,5.1,0.3,7.7,0.3c2,0.1,4-0.3,5.8-1.1c0.4-0.2,0.9-0.5,1.2-0.9c1.4,0.1,2.8-0.4,3.9-1.4c1.4-1.2,2.5-2.8,2.9-4.6
	c0.6-2.5,0.1-5.4,1.6-7.3c0.4-0.5,1-1,1.3-1.5c0.4-0.7,0.7-1.6,0.6-2.5c0,0,0-0.1,0.1-0.1c0.3-0.7,0.5-1.6,0.6-2.5
	c0.2-0.6,0.4-1.3,0.7-1.9c0.7-1.9,1.4-3.9,2-5.8c0.4-1.3,0.6-2.7,1-4c0.2-1.1,0.2-2.1,0.3-3.2c0.1-1.7,0.4-3.3,1-4.9
	c1.4-3.9,2.1-7.8,2.2-11.9v-0.2c4.1-0.4,7.2-4,7.1-8.1c0-1.2-0.2-2.4-0.7-3.4C310,419,310.4,417.1,310.4,415.3z M272.1,461.9
	c0.1,0.4,0.2,0.9,0.4,1.3c-0.6-0.6-1.3-1.3-1.9-1.8c0.2,0.1,0.5,0.2,0.7,0.2C271.6,461.6,271.9,461.7,272.1,461.9L272.1,461.9z
	 M269.1,459.7c-3.7-3.2-8-5.7-11.8-8.8c2,1.1,4.1,2.2,6.1,3.3c2.4,1.4,4.7,2.7,7.2,3.9C270.1,458.8,269.6,459.3,269.1,459.7
	L269.1,459.7z M270.7,451.7l0.2-0.2c0,0.4,0,0.9,0,1.3l-1-0.3C270.1,452.2,270.4,451.9,270.7,451.7L270.7,451.7z M238,460.4
	c1.5-1.7,2.9-3.6,4-5.6c1.5,2.6,3.9,4.4,5.9,6.5C244.6,460.9,241.3,460.5,238,460.4z"/>
<polygon class="st14" points="243.4,429.1 245.6,429.6 253.6,441.4 250.1,441.8 "/>
<path class="st15" d="M186.7,476.9c0.6,2,1.4,4.1,2.4,6.1c2.7-0.5,5.2-1.3,7.7-2.2c-0.5-0.7-1.1-1.5-1.6-2.1
	c-0.6-0.6-1.4-1.3-2.1-1.7c-0.9-0.2-1.8-0.2-2.7,0C189.2,476.9,187.9,476.9,186.7,476.9z"/>
<path class="st14" d="M193,480.1c-1.3-0.5-2.2-1.7-2.7-3c-0.4-1.3-1.1-2.6-2-3.6c-0.4,0.1-0.7,0.3-0.9,0.6c-0.2,0.3-0.3,0.7-0.5,1.1
	c-0.4,0.6-1.2,0.9-1.7,1.4c-0.5,0.5-0.9,1.3-1.4,1.8c-0.7,0.5-1.7,1-2.7,1.1c-1.5,0.3-2.9,0.9-4.3,1.6c-0.5,0.3-1.1,0.5-1.6,0.7
	c-0.6,0.1-1.2,0.1-1.8,0l-4.2-0.3c-0.3-0.1-0.7-0.1-1.1,0c-0.9,0.3-1.4,1.2-1.3,2.1c0.1,1,0.5,1.7,1.3,2.2c0.7,0.5,1.5,1,2.4,1.2
	c3.6,1.4,7.5,2.5,11.4,3.2v0.9c2.7,1.3,5.7,2,8.6,2c0.2,0,0.4,0,0.6-0.1c0.3-0.2,0.4-0.5,0.5-0.9c1-3,1.6-6,1.7-9.2
	c0.1-0.7,0-1.6-0.2-2.4C192.9,479.9,193.7,480.2,193,480.1"/>
<path class="st14" d="M273.9,464.1c-12.5,0.7-24.8-2.9-37.4-3.3c-1.6-0.1-3.1,0-4.6,0.3c-1.6,0.4-3.1,1.1-4.6,1.8
	c-6.7,3.1-13.7,5.7-20.6,8.4l-8,3c-1.5,0.7-3.2,1.1-4.9,1.1c-0.7,0-1.7-0.2-2.1,0.4c-1.3,1.9-0.6,4.7,0.2,7c0.3,0.7,0.7,1.5,1.5,1.5
	c0.5,0,1.1-0.2,1.5-0.4c1.5-0.4,2.9,0.5,4.4,0.7c1.8,0.2,3.5-0.9,5.4-1.5c2.9-1.1,6-1.1,9.1-1.5c5.1-0.9,9.9-3.2,14.2-5.9
	c1.6-1.2,3.4-2,5.4-2.5c2.2-0.2,4.5,0,6.6,0.7c5.1,1.5,10.3,3.2,15.3,5.2c2.6,1.2,5.2,2.1,8,2.9c5.9,1.5,12.2,1.2,17.9-1.1
	c2-0.7,4.2-2.1,4.3-4.4c0.1-1.3-0.9-2.4-1.5-3.4c-0.4-0.6-0.9-1.4-1.3-2C280.3,468.1,277.7,463.9,273.9,464.1z"/>
<path class="st4" d="M273.9,464.1c-12.5,0.7-24.8-2.9-37.4-3.3c-1.6-0.1-3.1,0-4.6,0.3c-1.6,0.4-3.1,1.1-4.6,1.8
	c-6.7,3.1-13.7,5.7-20.6,8.4l-8,3c-1.5,0.7-3.2,1.1-4.9,1.1c-0.7,0-1.7-0.2-2.1,0.4c-1.3,1.9-0.6,4.7,0.2,7c0.3,0.7,0.7,1.5,1.5,1.5
	c0.5,0,1.1-0.2,1.5-0.4c1.5-0.4,2.9,0.5,4.4,0.7c1.8,0.2,3.5-0.9,5.4-1.5c2.9-1.1,6-1.1,9.1-1.5c5.1-0.9,9.9-3.2,14.2-5.9
	c1.6-1.2,3.4-2,5.4-2.5c2.2-0.2,4.5,0,6.6,0.7c5.1,1.5,10.3,3.2,15.3,5.2c2.6,1.2,5.2,2.1,8,2.9c5.9,1.5,12.2,1.2,17.9-1.1
	c2-0.7,4.2-2.1,4.3-4.4c0.1-1.3-0.9-2.4-1.5-3.4c-0.4-0.6-0.9-1.4-1.3-2C280.3,468.1,277.7,463.9,273.9,464.1z"/>
<path class="st15" d="M210.7,477.5c1.9,0.6,4,1.3,5.9,1.8c1.1-1.8,3.2-3.1,3.6-5.2c0-0.1,0-0.2,0-0.3c0-0.1-0.1-0.1-0.2-0.2
	c-1.4-0.7-3-1.3-4.6-1.4c-1.3-0.1-1.9,1.3-2.5,2.2C212.7,474.9,211.2,477.7,210.7,477.5z"/>
<path class="st14" d="M213.5,476.2c-1.2-0.2-2.2-0.9-2.9-1.9c-0.2-0.5-0.5-1.2-1.1-1.1c-0.5,0.1-0.7,0.6-0.9,1.2
	c-0.3,1.9-1,3.7-1.6,5.6c-0.7,1.8-1.9,3.4-3.4,4.5c-0.7,0.5-1.5,0.9-2.2,1.4c-0.6,0.5-1.2,1-1.9,1.4c-0.4,0.2-1,0.4-1.5,0.5
	c-0.7,0.3-1.4,0.6-2,1.1c-0.5,0.3-1.1,0.7-1.4,1.4c-0.3,0.5-0.4,1.3-0.1,1.9c0.3,0.5,0.9,0.9,1.4,1c0.5,0.1,1.2,0.1,1.7,0
	c2.2-0.2,4.6-0.3,6.9-0.5c1-0.1,1.9-0.2,2.9-0.4l1.5-0.4c0.9-0.2,1.7-0.3,2.6-0.4c0.2,0,0.5,0,0.7,0.1c0.5,0.2,0.9,0.7,1.5,0.9
	c0.3,0,0.7,0,1.1-0.1c1.7-0.3,3.3-0.5,5-0.5c0.7,0,1.6-0.2,1.9-0.9c0.4-0.9-0.3-1.8-0.5-2.7c-0.1-0.5-0.2-1.2-0.2-1.7
	c-0.1-1.5-0.5-2.9-1.3-4.2c-0.5-1.1-1.4-2.2-1-3.4c0.2-0.3,0.3-0.7,0.4-1.2C218.7,475.8,214.5,476.4,213.5,476.2z"/>
<path class="st15" d="M255.1,444.1c-2.2-1-4-2.8-5-4.9c-0.2-0.4-0.4-1-0.5-1.4c-0.6-1.6-1.7-3-3-4.2c-0.3-0.3-0.6-0.4-1.1-0.4
	c-0.4,0.1-0.7,0.4-0.9,0.9c-0.1,0.4-0.1,0.9-0.1,1.3c0.1,1.1,0.3,2.1,0.5,3.1l0.6,2.8c0.1,0.4,0.2,0.9,0.4,1.3
	c0.2,0.4,0.6,0.9,1.1,1.2c0.5,0.5,1.1,1,1.7,1.5c0.3,0.3,0.6,0.5,1.1,0.7c0.6,0.3,1.3,0.4,1.9,0.5c2.6,0.3,5,1.3,7.1,2.8
	c0,0,0-1.8,0-2c0-0.5-0.2-1.1-0.5-1.5C257.5,444.8,256.3,444.3,255.1,444.1z"/>
<path class="st4" d="M255.1,444.1c-2.2-1-4-2.8-5-4.9c-0.2-0.4-0.4-1-0.5-1.4c-0.6-1.6-1.7-3-3-4.2c-0.3-0.3-0.6-0.4-1.1-0.4
	c-0.4,0.1-0.7,0.4-0.9,0.9c-0.1,0.4-0.1,0.9-0.1,1.3c0.1,1.1,0.3,2.1,0.5,3.1l0.6,2.8c0.1,0.4,0.2,0.9,0.4,1.3
	c0.2,0.4,0.6,0.9,1.1,1.2c0.5,0.5,1.1,1,1.7,1.5c0.3,0.3,0.6,0.5,1.1,0.7c0.6,0.3,1.3,0.4,1.9,0.5c2.6,0.3,5,1.3,7.1,2.8
	c0,0,0-1.8,0-2c0-0.5-0.2-1.1-0.5-1.5C257.5,444.8,256.3,444.3,255.1,444.1z"/>
<ellipse class="st14" cx="280.6" cy="419.9" rx="3" ry="3.1"/>
<path class="st14" d="M278.7,418c-0.9-0.2-1.7-0.1-2.4,0.3c-0.3,0.3-0.6,0.6-0.9,1.1c-0.6,1.2-1.2,2.5-1.6,3.7
	c-0.2,1.1-0.3,2.2-0.6,3.4c-0.6,2-2.2,3.7-2.4,5.9c-0.1,1,0.1,2-0.6,2.7c-0.2,0.1-0.3,0.3-0.5,0.4c-0.5,0.3-0.9,0.7-1.2,1.3
	c-0.2,0.4-0.5,0.9-0.9,1.2c-0.6,0.4-1.6,0.4-1.9,1.1c-0.3,0.6,0.5,1.5,0.3,2.4c-0.2,0.9-0.9,1-1.3,1.4c-0.5,0.6-1,1.3-1.2,2.1
	c-2,0.4-4.2-0.1-5.8-1.4c0.7,2.1,1,4.4,1,6.6c0.1,0.7-0.1,1.5-0.5,2c2.5,0.2,4.8,0.6,7.2,1.3c1,0.3,2.1,0.3,3.1,0
	c0.5-0.3,1.1-0.6,1.4-1.2c1.3-1.3,2.7-2.7,3-4.5c0.1-1.1,0.1-2,0-3.1c0.1-1.3,0.4-2.6,0.7-3.7c0.6-2.6,1.2-5.1,1.4-7.7
	c0.1-1.6,1.5-2.9,2.2-4.3c1.4-2.7,2.8-5.6,2.9-8.6C280.1,419.4,279.8,418.2,278.7,418z"/>
<path class="st4" d="M278.7,418c-0.9-0.2-1.7-0.1-2.4,0.3c-0.3,0.3-0.6,0.6-0.9,1.1c-0.6,1.2-1.2,2.5-1.6,3.7
	c-0.2,1.1-0.3,2.2-0.6,3.4c-0.6,2-2.2,3.7-2.4,5.9c-0.1,1,0.1,2-0.6,2.7c-0.2,0.1-0.3,0.3-0.5,0.4c-0.5,0.3-0.9,0.7-1.2,1.3
	c-0.2,0.4-0.5,0.9-0.9,1.2c-0.6,0.4-1.6,0.4-1.9,1.1c-0.3,0.6,0.5,1.5,0.3,2.4c-0.2,0.9-0.9,1-1.3,1.4c-0.5,0.6-1,1.3-1.2,2.1
	c-2,0.4-4.2-0.1-5.8-1.4c0.7,2.1,1,4.4,1,6.6c0.1,0.7-0.1,1.5-0.5,2c2.5,0.2,4.8,0.6,7.2,1.3c1,0.3,2.1,0.3,3.1,0
	c0.5-0.3,1.1-0.6,1.4-1.2c1.3-1.3,2.7-2.7,3-4.5c0.1-1.1,0.1-2,0-3.1c0.1-1.3,0.4-2.6,0.7-3.7c0.6-2.6,1.2-5.1,1.4-7.7
	c0.1-1.6,1.5-2.9,2.2-4.3c1.4-2.7,2.8-5.6,2.9-8.6C280.1,419.4,279.8,418.2,278.7,418z"/>
<path class="st14" d="M275.9,466.8c-2.6-1.3-4.5-3.5-6.6-5.6c-4.1-3.7-8.9-6.4-13.2-10c-2.8-2.4-5.4-5-8.4-7.1
	c-2.7-1.7-5.8-2.8-9-3.1c-0.3-0.1-0.7-0.1-1.1,0c-0.4,0.2-0.7,0.4-1.1,0.9c-1.4,1.5-2.6,3.2-3.6,5c-5.4,9.1-13,16.7-19.3,25.2
	c-0.1,0.2-0.2,0.4-0.3,0.6c0,0.3,0.1,0.6,0.2,1l1.3,2.5c0.7,1.4,1.9,3,3.4,2.8c0.6-0.2,1.3-0.6,1.8-1.2l5.8-5.6l6-5.8
	c3.5-3.4,7.2-6.9,9.4-11.1c1.8,3.1,5,5.1,7.2,8c0.9,1.1,1.5,2.2,2.2,3.4c1.2,1.8,2.6,3.5,3.9,5.4l7,8.8c0.9,1.3,1.9,2.4,3.2,3.2
	c1.7,1,3.6,1.4,5.6,1.5c2.6,0.2,5.2,0.3,7.8,0.3c2,0.1,4-0.3,5.9-1.1c1.8-0.9,3.1-2.7,3.2-4.7c-0.1-1.1-0.4-2-1-2.9
	C283.8,472.8,280.5,468.9,275.9,466.8z"/>
<ellipse class="st16" cx="282.6" cy="421.9" rx="2.4" ry="2.4"/>
<path class="st15" d="M282,420.2c0.5,1.1,0.6,2.2,0.2,3.4c-0.3,1.1-0.9,2.1-1.5,3.1c-0.5,1-1.2,1.9-1.9,2.8c3.6,0.2,7.1-1.3,10.3-3
	c2.6-1.4,5.1-3.1,6.5-5.7c-0.9,0.2-1.7,0-2.4-0.4s-1.3-1.1-1.8-1.7l-1.8-2c-0.4-0.4-0.7-1-1.1-1.5c-0.4-0.7-0.5-1.5-0.5-2.4
	c-0.7,0.7-1.5,1.4-2.4,2c-1.3,0.9-2.7,1.5-4.1,2.2c-0.4,0.3-1.5,0.7-1.2,1.4C280.7,419.1,281.6,419.6,282,420.2z"/>
<path class="st4" d="M282,420.2c0.5,1.1,0.6,2.2,0.2,3.4c-0.3,1.1-0.9,2.1-1.5,3.1c-0.5,1-1.2,1.9-1.9,2.8c3.6,0.2,7.1-1.3,10.3-3
	c2.6-1.4,5.1-3.1,6.5-5.7c-0.9,0.2-1.7,0-2.4-0.4s-1.3-1.1-1.8-1.7l-1.8-2c-0.4-0.4-0.7-1-1.1-1.5c-0.4-0.7-0.5-1.5-0.5-2.4
	c-0.7,0.7-1.5,1.4-2.4,2c-1.3,0.9-2.7,1.5-4.1,2.2c-0.4,0.3-1.5,0.7-1.2,1.4C280.7,419.1,281.6,419.6,282,420.2z"/>
<path class="st16" d="M282,420.5c-0.7,1.1-0.7,2.5,0,3.5c0.1,0.1,0.5,1,0.6,1s0.3-0.1,0.4-0.2c0.9-0.9,1.6-1.8,2.2-2.7
	c0.7-1,1.7-1.6,2.9-1.9c1.4-0.1,2.9,0.4,4,1.3c0.5,0.2,1,0.6,1.4,1.1c0.2,0.4,0.4,1,0.4,1.5c0.3,3.2,0.5,6.5,0.4,9.7
	c0.1,2.4-0.1,4.7-0.4,7c-0.2,1.2-0.5,2.4-0.7,3.5c-0.1,1.1-0.2,2.1-0.1,3.2v4.5c0,0.9,0,1.6,0.2,2.5c0.2,1,0.6,1.9,1,2.9
	c0.3,1.1,0.5,2.2,0.6,3.3l0.6,4.6c0.2,1.5,0.3,3-0.5,4.3c-0.4,0.5-1,1-1.3,1.5c-1.5,1.9-1.1,4.8-1.6,7.2c-0.5,1.7-1.5,3.3-2.9,4.5
	c-1.1,1-2.5,1.5-3.9,1.4c-1.9-0.3-3-2.4-3.5-4.2c-0.5-1.8-0.6-3.9-1.8-5.5c-1.1-1.2-2.2-2.1-3.5-3c-1.4-0.9-2.4-2.1-2.8-3.6
	c-0.1-0.6,0-1.4-0.1-2c-0.2-1.7-1.4-3.2-3-4c-1-0.3-2.1-0.5-2.7-1.4c1.4-0.9,2.4-2.2,2.8-3.7c0.4-1.6,0.6-3.2,0.6-4.8l0.3-5.4
	c0.1-2.4,0.2-4.8,1.3-7c0.4-1,1.1-1.9,1.6-2.8c0.6-1.4,1.2-2.7,1.6-4.2c0.7-2.2,1.5-4.4,2.2-6.6c0.2-1.1,0.6-2.1,1.2-3.1
	C280.1,422,281,420.7,282,420.5z"/>
<path class="st14" d="M270.1,455.6h1.4l0.3-2.1c0-0.4,0.1-0.9,0.3-1.3c0.2-0.4,0.5-0.9,0.9-1.2c1.4-1.9,1.3-4.6,1.6-7
	c0.6-3.2,1.7-6.3,3.1-9.2l2.8-6.2c0.2-0.5,0.4-1.1,0.6-1.6c0.1-0.6,0.2-1.2,0.2-1.8c0-1,0.3-4.4,0.3-5.4c0-0.3-0.7-0.2-1-0.4
	c-0.3-0.6-0.9,1.2-1.5,1.6c-0.6,0.4-1.1,1.1-1.3,1.8c-0.6,1.5-1,3.2-1.5,4.7c-0.5,1.6-1.4,3-2.6,4.2c-0.5,0.5-1.2,0.9-1.7,1.4
	c-1.7,1.7-1.9,4.4-1.9,6.7C270,441.4,269.8,455.6,270.1,455.6z"/>
<path class="st14" d="M290.6,418c-1.4,0.7-2.2,2-2.6,3.4c-0.2,1.5-0.6,2.9-1.3,4.3c-1.7,3-6.2,3.9-7.4,7.2c-0.3,1.1-0.4,2.2-0.5,3.4
	c-0.2,2.4-1,4.6-1.2,7c-0.1,1.8-0.1,3.6,0.1,5.5l1.6,18.4c0.3,2.7,0.1,5.5-0.4,8.1c1.6,0.2,3.2,0,4.6-0.7c1.5-0.6,2.8-1.6,4.2-2.4
	c2.4-1.3,5-2.2,7.2-4.1c0.4-0.3,0.7-0.6,1-1.1c0.3-0.7,0.5-1.6,0.6-2.5c0.2-0.6,0.4-1.3,0.7-1.9c0.7-1.8,1.4-3.7,2-5.7
	c0.4-1.3,0.6-2.6,1-3.9c0.2-1.1,0.2-2.1,0.3-3.2c0.1-1.7,0.4-3.3,1-4.8c1.4-3.7,2.1-7.7,2.2-11.7c0-0.5,0-1.2-0.1-1.7
	c-0.2-0.6-0.5-1.4-1-1.9c-0.6-1.2-1.1-2.6-1.6-3.7c-1.5-2.7-3.7-5-6.3-6.6C293.5,418.4,292,417.5,290.6,418z"/>
<path class="st15" d="M258.2,448.1c-1.1-0.5-2.1-1.3-3-2.2c-0.4-0.4-0.7-1-1.1-1.4c-1-1.1-2.2-1.8-3.7-2.1c-1.4-0.3-2.9-0.4-4.3-0.4
	c-1-0.1-1.9,0-2.9,0.3c-1,0.3-1.6,1.1-1.9,2c-0.1,1.2,0.4,2.4,1.5,3c0.9,0.6,1.8,1.2,2.9,1.4c0.9,0.1,1.7,0.2,2.6,0.3
	c5.1,0.5,9.6,3.3,14.1,5.9c4,2.2,7.9,4.3,12.1,6.2c0.1-1.2,0.2-2.5,0.2-3.7c0-1-0.1-2.4-1-2.9c-1.3-0.5-2.6-0.9-3.9-1.2
	c-2.7-0.9-5.2-1.9-7.7-3.1C260.9,449.7,259.5,448.9,258.2,448.1z"/>
<ellipse class="st15" cx="280.6" cy="410" rx="9.1" ry="9.2"/>
<path class="st14" d="M293.2,428.4c-0.7,1.1-1.3,2.1-1.8,3.3c-1.1,2.4-2.9,4.3-3.7,6.7s-0.9,5.6-2.7,7.6c-0.3,0.3-0.6,0.7-0.9,1.2
	c0,0.3,0,0.5-0.1,0.9c-0.2,0.7-1.5,0.7-1.7,1.5c-0.1,0.2,0,0.4-0.1,0.6c-0.2,0.5-0.9,0.5-1.3,0.9c-0.9,0.6-0.7,2-1.3,2.9
	c-0.5,0.6-1.4,1-2.2,0.9c-0.9-0.2-1.6-0.4-2.4-0.9c-0.2-0.1-0.5-0.2-0.9-0.2s-0.7,0.1-1,0.3c-1.6,1.2-2.6,3.1-2.5,5.1
	c0.1,2,0.6,4,1.4,5.8c0.1,0.3,0.2,0.6,0.4,0.9c0.6,0.5,1.5,0.5,2.2,0.2c0.7-0.4,1.4-0.7,2.2-1c1.4-0.2,2.8,0.7,4.3,0.6
	c1.1-0.1,2-0.5,2.9-1.3c1.4-0.9,2.8-1.9,3.9-3.2c0.6-0.9,1.1-1.7,1.6-2.7c0.7-1.1,1.5-2.1,2.2-3.1l5.2-6.4c0.5-0.6,1-1.3,1.4-1.9
	c0.4-1,0.9-1.9,1.1-3c0.5-1.7,1-3.4,1.1-5.2c0-1.5-0.1-3-0.4-4.4c-0.1-1.4-0.5-2.9-1.1-4.2C298.1,427.8,295.3,425.9,293.2,428.4z"/>
<path class="st17" d="M311.6,416.5c0-3.3-1.6-6.4-4.2-8.4c-0.1-6-4.5-11-10.4-11.9c-1.3-6.4-7.5-10.6-13.9-9.3
	c-4.9,1-8.7,4.9-9.4,10c-3.7-0.9-7.3,0.2-7.9,2.6c-0.6,2.4,2,5.4,6,6.4c1.3,0.3,2.6,0.5,3.9,0.4c1.9,2.8,4.8,4.6,8.1,5.1
	c1,4.5,4.4,8,8.9,9.2c0.6,1.5,1.5,2.8,2.8,3.7c0,0.3,0,0.5,0,0.9c0,4.3,3.4,7.7,7.7,7.7c4.3,0,7.7-3.4,7.7-7.7l0,0
	c0-1.2-0.2-2.4-0.7-3.4C311.1,420.1,311.6,418.3,311.6,416.5z"/>
<path class="st4" d="M268.2,399.9c0.6-2.4,4.1-3.4,7.9-2.6c1-5.8,5.9-10.1,11.8-10.2h0.7c-1.1-0.3-2.2-0.5-3.3-0.5
	c-5.9,0.1-10.8,4.4-11.8,10.2c-3.7-0.9-7.3,0.2-7.9,2.6c-0.6,2.4,2,5.4,6,6.4c0.7,0.2,1.5,0.3,2.2,0.4
	C270.1,405.1,267.7,402.3,268.2,399.9z"/>
<path class="st4" d="M298,425.7c0-0.3,0-0.5,0-0.9c-1.2-1.1-2.1-2.4-2.8-3.7c-4.5-1.1-7.9-4.7-8.9-9.2c-3.3-0.4-6.3-2.4-8.1-5
	c-0.7,0.1-1.5,0-2.2-0.1c1.9,2.6,4.7,4.3,7.9,4.7c1,4.5,4.4,8,8.9,9.2c0.6,1.5,1.5,2.8,2.8,3.7c0,0.3,0,0.5,0,0.9
	c-0.1,4.3,3.3,7.9,7.7,8C299.9,432,297.9,429,298,425.7z"/>
<ellipse transform="matrix(0.7963 -0.6049 0.6049 0.7963 -191.3117 255.5174)" class="st15" cx="283.7" cy="411.8" rx="1.4" ry="1.9"/>
</svg>
